%
M48
M72
T01C0.02500
T02C0.03200
T03C0.03898
T04C0.04000
T05C0.06300
T06C0.11200
T07C0.17500
%
T01
X205167Y140167
X217667Y202667
X197667Y295167
T02
X240167Y295167
X240167Y285167
X247667Y82667
X247667Y72667
X45167Y272667
X45167Y282667
X20167Y40167
X20167Y30167
T03
X67037Y30167
X67037Y37214
X67037Y44261
X67037Y51308
X67037Y58356
X77864Y58356
X77864Y51308
X77864Y44261
X77864Y37214
X77864Y30167
X77864Y80757
X77864Y88631
X77864Y96505
X67037Y96505
X67037Y88631
X67037Y80757
X67037Y109064
X67037Y116623
X67037Y124182
X67037Y131741
X67037Y139301
X67037Y146860
X77864Y146860
X77864Y139301
X77864Y131741
X77864Y124182
X77864Y116623
X77864Y109064
X77864Y177667
X77864Y184714
X77864Y191761
X77864Y198808
X77864Y205856
X67037Y205856
X67037Y198808
X67037Y191761
X67037Y184714
X67037Y177667
X67037Y228257
X67037Y236131
X67037Y244005
X77864Y244005
X77864Y236131
X77864Y228257
X77864Y256564
X77864Y264123
X77864Y271682
X77864Y279241
X77864Y286801
X77864Y294360
X67037Y294360
X67037Y286801
X67037Y279241
X67037Y271682
X67037Y264123
X67037Y256564
X141840Y255383
X141840Y262745
X141840Y272155
X141840Y279517
X141840Y286879
X141840Y294241
X152667Y294241
X152667Y286879
X152667Y279517
X152667Y272155
X152667Y262745
X152667Y255383
X152667Y248021
X152667Y240659
X152667Y231249
X152667Y223887
X152667Y216525
X152667Y209163
X152667Y199753
X152667Y192391
X152667Y185029
X152667Y177667
X141840Y177667
X141840Y185029
X141840Y192391
X141840Y199753
X141840Y209163
X141840Y216525
X141840Y223887
X141840Y231249
X141840Y240659
X141840Y248021
X141840Y146741
X141840Y139379
X141840Y132017
X141840Y124655
X141840Y115245
X141840Y107883
X141840Y100521
X141840Y93159
X141840Y83749
X141840Y76387
X141840Y69025
X141840Y61663
X141840Y52253
X141840Y44891
X141840Y37529
X141840Y30167
X152667Y30167
X152667Y37529
X152667Y44891
X152667Y52253
X152667Y61663
X152667Y69025
X152667Y76387
X152667Y83749
X152667Y93159
X152667Y100521
X152667Y107883
X152667Y115245
X152667Y124655
X152667Y132017
X152667Y139379
X152667Y146741
T04
X182667Y145167
X242667Y127667
X252667Y127667
X252667Y117667
X252667Y107667
X242667Y107667
X242667Y117667
X245167Y197667
X245167Y207667
X245167Y217667
X255167Y217667
X255167Y207667
X255167Y197667
X177667Y290167
X50167Y252667
X50167Y242667
X50167Y232667
X50167Y222667
X52667Y110167
X52667Y100167
X52667Y90167
X52667Y80167
T05
X205967Y226167
X219367Y226167
X219367Y279167
X205967Y279167
X210967Y119167
X224367Y119167
X224367Y66167
X210967Y66167
T06
X18651Y17667
X110167Y17667
X110167Y162667
X17667Y162667
X17667Y307667
X110167Y307667
X255167Y307667
X255167Y17667
T07
X209417Y35167
X180917Y35167
X22667Y73417
X22667Y101917
X22667Y223417
X22667Y251917
X242667Y238417
X242667Y266917
M30
