G75*
%MOIN*%
%OFA0B0*%
%FSLAX25Y25*%
%IPPOS*%
%LPD*%
%AMOC8*
5,1,8,0,0,1.08239X$1,22.5*
%
%ADD10C,0.00000*%
%ADD11C,0.05906*%
%ADD12C,0.06000*%
%ADD13R,0.02400X0.08700*%
%ADD14R,0.04331X0.03937*%
%ADD15OC8,0.06300*%
%ADD16R,0.09300X0.20100*%
%ADD17OC8,0.09450*%
%ADD18R,0.03000X0.04800*%
%ADD19R,0.02200X0.07800*%
%ADD20R,0.05700X0.04400*%
%ADD21R,0.06300X0.05500*%
%ADD22R,0.14200X0.07100*%
%ADD23R,0.02600X0.03800*%
%ADD24R,0.04400X0.05700*%
%ADD25R,0.05500X0.06300*%
%ADD26OC8,0.21500*%
%ADD27OC8,0.07600*%
%ADD28C,0.03200*%
%ADD29C,0.02400*%
%ADD30C,0.04100*%
%ADD31C,0.01600*%
%ADD32C,0.04000*%
%ADD33C,0.03000*%
%ADD34C,0.05000*%
D10*
X0007667Y0007667D02*
X0007667Y0317667D01*
X0265167Y0317667D01*
X0265167Y0007667D01*
X0007667Y0007667D01*
X0013051Y0017667D02*
X0013053Y0017816D01*
X0013059Y0017965D01*
X0013069Y0018114D01*
X0013083Y0018262D01*
X0013101Y0018410D01*
X0013122Y0018558D01*
X0013148Y0018705D01*
X0013178Y0018851D01*
X0013211Y0018996D01*
X0013248Y0019140D01*
X0013289Y0019284D01*
X0013334Y0019426D01*
X0013383Y0019567D01*
X0013436Y0019706D01*
X0013492Y0019844D01*
X0013551Y0019981D01*
X0013615Y0020116D01*
X0013682Y0020249D01*
X0013752Y0020380D01*
X0013826Y0020510D01*
X0013904Y0020637D01*
X0013984Y0020763D01*
X0014069Y0020886D01*
X0014156Y0021007D01*
X0014246Y0021125D01*
X0014340Y0021241D01*
X0014437Y0021355D01*
X0014536Y0021466D01*
X0014639Y0021574D01*
X0014744Y0021679D01*
X0014852Y0021782D01*
X0014963Y0021881D01*
X0015077Y0021978D01*
X0015193Y0022072D01*
X0015311Y0022162D01*
X0015432Y0022249D01*
X0015555Y0022334D01*
X0015681Y0022414D01*
X0015808Y0022492D01*
X0015938Y0022566D01*
X0016069Y0022636D01*
X0016202Y0022703D01*
X0016337Y0022767D01*
X0016474Y0022826D01*
X0016612Y0022882D01*
X0016751Y0022935D01*
X0016892Y0022984D01*
X0017034Y0023029D01*
X0017178Y0023070D01*
X0017322Y0023107D01*
X0017467Y0023140D01*
X0017613Y0023170D01*
X0017760Y0023196D01*
X0017908Y0023217D01*
X0018056Y0023235D01*
X0018204Y0023249D01*
X0018353Y0023259D01*
X0018502Y0023265D01*
X0018651Y0023267D01*
X0018800Y0023265D01*
X0018949Y0023259D01*
X0019098Y0023249D01*
X0019246Y0023235D01*
X0019394Y0023217D01*
X0019542Y0023196D01*
X0019689Y0023170D01*
X0019835Y0023140D01*
X0019980Y0023107D01*
X0020124Y0023070D01*
X0020268Y0023029D01*
X0020410Y0022984D01*
X0020551Y0022935D01*
X0020690Y0022882D01*
X0020828Y0022826D01*
X0020965Y0022767D01*
X0021100Y0022703D01*
X0021233Y0022636D01*
X0021364Y0022566D01*
X0021494Y0022492D01*
X0021621Y0022414D01*
X0021747Y0022334D01*
X0021870Y0022249D01*
X0021991Y0022162D01*
X0022109Y0022072D01*
X0022225Y0021978D01*
X0022339Y0021881D01*
X0022450Y0021782D01*
X0022558Y0021679D01*
X0022663Y0021574D01*
X0022766Y0021466D01*
X0022865Y0021355D01*
X0022962Y0021241D01*
X0023056Y0021125D01*
X0023146Y0021007D01*
X0023233Y0020886D01*
X0023318Y0020763D01*
X0023398Y0020637D01*
X0023476Y0020510D01*
X0023550Y0020380D01*
X0023620Y0020249D01*
X0023687Y0020116D01*
X0023751Y0019981D01*
X0023810Y0019844D01*
X0023866Y0019706D01*
X0023919Y0019567D01*
X0023968Y0019426D01*
X0024013Y0019284D01*
X0024054Y0019140D01*
X0024091Y0018996D01*
X0024124Y0018851D01*
X0024154Y0018705D01*
X0024180Y0018558D01*
X0024201Y0018410D01*
X0024219Y0018262D01*
X0024233Y0018114D01*
X0024243Y0017965D01*
X0024249Y0017816D01*
X0024251Y0017667D01*
X0024249Y0017518D01*
X0024243Y0017369D01*
X0024233Y0017220D01*
X0024219Y0017072D01*
X0024201Y0016924D01*
X0024180Y0016776D01*
X0024154Y0016629D01*
X0024124Y0016483D01*
X0024091Y0016338D01*
X0024054Y0016194D01*
X0024013Y0016050D01*
X0023968Y0015908D01*
X0023919Y0015767D01*
X0023866Y0015628D01*
X0023810Y0015490D01*
X0023751Y0015353D01*
X0023687Y0015218D01*
X0023620Y0015085D01*
X0023550Y0014954D01*
X0023476Y0014824D01*
X0023398Y0014697D01*
X0023318Y0014571D01*
X0023233Y0014448D01*
X0023146Y0014327D01*
X0023056Y0014209D01*
X0022962Y0014093D01*
X0022865Y0013979D01*
X0022766Y0013868D01*
X0022663Y0013760D01*
X0022558Y0013655D01*
X0022450Y0013552D01*
X0022339Y0013453D01*
X0022225Y0013356D01*
X0022109Y0013262D01*
X0021991Y0013172D01*
X0021870Y0013085D01*
X0021747Y0013000D01*
X0021621Y0012920D01*
X0021494Y0012842D01*
X0021364Y0012768D01*
X0021233Y0012698D01*
X0021100Y0012631D01*
X0020965Y0012567D01*
X0020828Y0012508D01*
X0020690Y0012452D01*
X0020551Y0012399D01*
X0020410Y0012350D01*
X0020268Y0012305D01*
X0020124Y0012264D01*
X0019980Y0012227D01*
X0019835Y0012194D01*
X0019689Y0012164D01*
X0019542Y0012138D01*
X0019394Y0012117D01*
X0019246Y0012099D01*
X0019098Y0012085D01*
X0018949Y0012075D01*
X0018800Y0012069D01*
X0018651Y0012067D01*
X0018502Y0012069D01*
X0018353Y0012075D01*
X0018204Y0012085D01*
X0018056Y0012099D01*
X0017908Y0012117D01*
X0017760Y0012138D01*
X0017613Y0012164D01*
X0017467Y0012194D01*
X0017322Y0012227D01*
X0017178Y0012264D01*
X0017034Y0012305D01*
X0016892Y0012350D01*
X0016751Y0012399D01*
X0016612Y0012452D01*
X0016474Y0012508D01*
X0016337Y0012567D01*
X0016202Y0012631D01*
X0016069Y0012698D01*
X0015938Y0012768D01*
X0015808Y0012842D01*
X0015681Y0012920D01*
X0015555Y0013000D01*
X0015432Y0013085D01*
X0015311Y0013172D01*
X0015193Y0013262D01*
X0015077Y0013356D01*
X0014963Y0013453D01*
X0014852Y0013552D01*
X0014744Y0013655D01*
X0014639Y0013760D01*
X0014536Y0013868D01*
X0014437Y0013979D01*
X0014340Y0014093D01*
X0014246Y0014209D01*
X0014156Y0014327D01*
X0014069Y0014448D01*
X0013984Y0014571D01*
X0013904Y0014697D01*
X0013826Y0014824D01*
X0013752Y0014954D01*
X0013682Y0015085D01*
X0013615Y0015218D01*
X0013551Y0015353D01*
X0013492Y0015490D01*
X0013436Y0015628D01*
X0013383Y0015767D01*
X0013334Y0015908D01*
X0013289Y0016050D01*
X0013248Y0016194D01*
X0013211Y0016338D01*
X0013178Y0016483D01*
X0013148Y0016629D01*
X0013122Y0016776D01*
X0013101Y0016924D01*
X0013083Y0017072D01*
X0013069Y0017220D01*
X0013059Y0017369D01*
X0013053Y0017518D01*
X0013051Y0017667D01*
X0104567Y0017667D02*
X0104569Y0017816D01*
X0104575Y0017965D01*
X0104585Y0018114D01*
X0104599Y0018262D01*
X0104617Y0018410D01*
X0104638Y0018558D01*
X0104664Y0018705D01*
X0104694Y0018851D01*
X0104727Y0018996D01*
X0104764Y0019140D01*
X0104805Y0019284D01*
X0104850Y0019426D01*
X0104899Y0019567D01*
X0104952Y0019706D01*
X0105008Y0019844D01*
X0105067Y0019981D01*
X0105131Y0020116D01*
X0105198Y0020249D01*
X0105268Y0020380D01*
X0105342Y0020510D01*
X0105420Y0020637D01*
X0105500Y0020763D01*
X0105585Y0020886D01*
X0105672Y0021007D01*
X0105762Y0021125D01*
X0105856Y0021241D01*
X0105953Y0021355D01*
X0106052Y0021466D01*
X0106155Y0021574D01*
X0106260Y0021679D01*
X0106368Y0021782D01*
X0106479Y0021881D01*
X0106593Y0021978D01*
X0106709Y0022072D01*
X0106827Y0022162D01*
X0106948Y0022249D01*
X0107071Y0022334D01*
X0107197Y0022414D01*
X0107324Y0022492D01*
X0107454Y0022566D01*
X0107585Y0022636D01*
X0107718Y0022703D01*
X0107853Y0022767D01*
X0107990Y0022826D01*
X0108128Y0022882D01*
X0108267Y0022935D01*
X0108408Y0022984D01*
X0108550Y0023029D01*
X0108694Y0023070D01*
X0108838Y0023107D01*
X0108983Y0023140D01*
X0109129Y0023170D01*
X0109276Y0023196D01*
X0109424Y0023217D01*
X0109572Y0023235D01*
X0109720Y0023249D01*
X0109869Y0023259D01*
X0110018Y0023265D01*
X0110167Y0023267D01*
X0110316Y0023265D01*
X0110465Y0023259D01*
X0110614Y0023249D01*
X0110762Y0023235D01*
X0110910Y0023217D01*
X0111058Y0023196D01*
X0111205Y0023170D01*
X0111351Y0023140D01*
X0111496Y0023107D01*
X0111640Y0023070D01*
X0111784Y0023029D01*
X0111926Y0022984D01*
X0112067Y0022935D01*
X0112206Y0022882D01*
X0112344Y0022826D01*
X0112481Y0022767D01*
X0112616Y0022703D01*
X0112749Y0022636D01*
X0112880Y0022566D01*
X0113010Y0022492D01*
X0113137Y0022414D01*
X0113263Y0022334D01*
X0113386Y0022249D01*
X0113507Y0022162D01*
X0113625Y0022072D01*
X0113741Y0021978D01*
X0113855Y0021881D01*
X0113966Y0021782D01*
X0114074Y0021679D01*
X0114179Y0021574D01*
X0114282Y0021466D01*
X0114381Y0021355D01*
X0114478Y0021241D01*
X0114572Y0021125D01*
X0114662Y0021007D01*
X0114749Y0020886D01*
X0114834Y0020763D01*
X0114914Y0020637D01*
X0114992Y0020510D01*
X0115066Y0020380D01*
X0115136Y0020249D01*
X0115203Y0020116D01*
X0115267Y0019981D01*
X0115326Y0019844D01*
X0115382Y0019706D01*
X0115435Y0019567D01*
X0115484Y0019426D01*
X0115529Y0019284D01*
X0115570Y0019140D01*
X0115607Y0018996D01*
X0115640Y0018851D01*
X0115670Y0018705D01*
X0115696Y0018558D01*
X0115717Y0018410D01*
X0115735Y0018262D01*
X0115749Y0018114D01*
X0115759Y0017965D01*
X0115765Y0017816D01*
X0115767Y0017667D01*
X0115765Y0017518D01*
X0115759Y0017369D01*
X0115749Y0017220D01*
X0115735Y0017072D01*
X0115717Y0016924D01*
X0115696Y0016776D01*
X0115670Y0016629D01*
X0115640Y0016483D01*
X0115607Y0016338D01*
X0115570Y0016194D01*
X0115529Y0016050D01*
X0115484Y0015908D01*
X0115435Y0015767D01*
X0115382Y0015628D01*
X0115326Y0015490D01*
X0115267Y0015353D01*
X0115203Y0015218D01*
X0115136Y0015085D01*
X0115066Y0014954D01*
X0114992Y0014824D01*
X0114914Y0014697D01*
X0114834Y0014571D01*
X0114749Y0014448D01*
X0114662Y0014327D01*
X0114572Y0014209D01*
X0114478Y0014093D01*
X0114381Y0013979D01*
X0114282Y0013868D01*
X0114179Y0013760D01*
X0114074Y0013655D01*
X0113966Y0013552D01*
X0113855Y0013453D01*
X0113741Y0013356D01*
X0113625Y0013262D01*
X0113507Y0013172D01*
X0113386Y0013085D01*
X0113263Y0013000D01*
X0113137Y0012920D01*
X0113010Y0012842D01*
X0112880Y0012768D01*
X0112749Y0012698D01*
X0112616Y0012631D01*
X0112481Y0012567D01*
X0112344Y0012508D01*
X0112206Y0012452D01*
X0112067Y0012399D01*
X0111926Y0012350D01*
X0111784Y0012305D01*
X0111640Y0012264D01*
X0111496Y0012227D01*
X0111351Y0012194D01*
X0111205Y0012164D01*
X0111058Y0012138D01*
X0110910Y0012117D01*
X0110762Y0012099D01*
X0110614Y0012085D01*
X0110465Y0012075D01*
X0110316Y0012069D01*
X0110167Y0012067D01*
X0110018Y0012069D01*
X0109869Y0012075D01*
X0109720Y0012085D01*
X0109572Y0012099D01*
X0109424Y0012117D01*
X0109276Y0012138D01*
X0109129Y0012164D01*
X0108983Y0012194D01*
X0108838Y0012227D01*
X0108694Y0012264D01*
X0108550Y0012305D01*
X0108408Y0012350D01*
X0108267Y0012399D01*
X0108128Y0012452D01*
X0107990Y0012508D01*
X0107853Y0012567D01*
X0107718Y0012631D01*
X0107585Y0012698D01*
X0107454Y0012768D01*
X0107324Y0012842D01*
X0107197Y0012920D01*
X0107071Y0013000D01*
X0106948Y0013085D01*
X0106827Y0013172D01*
X0106709Y0013262D01*
X0106593Y0013356D01*
X0106479Y0013453D01*
X0106368Y0013552D01*
X0106260Y0013655D01*
X0106155Y0013760D01*
X0106052Y0013868D01*
X0105953Y0013979D01*
X0105856Y0014093D01*
X0105762Y0014209D01*
X0105672Y0014327D01*
X0105585Y0014448D01*
X0105500Y0014571D01*
X0105420Y0014697D01*
X0105342Y0014824D01*
X0105268Y0014954D01*
X0105198Y0015085D01*
X0105131Y0015218D01*
X0105067Y0015353D01*
X0105008Y0015490D01*
X0104952Y0015628D01*
X0104899Y0015767D01*
X0104850Y0015908D01*
X0104805Y0016050D01*
X0104764Y0016194D01*
X0104727Y0016338D01*
X0104694Y0016483D01*
X0104664Y0016629D01*
X0104638Y0016776D01*
X0104617Y0016924D01*
X0104599Y0017072D01*
X0104585Y0017220D01*
X0104575Y0017369D01*
X0104569Y0017518D01*
X0104567Y0017667D01*
X0104567Y0162667D02*
X0104569Y0162816D01*
X0104575Y0162965D01*
X0104585Y0163114D01*
X0104599Y0163262D01*
X0104617Y0163410D01*
X0104638Y0163558D01*
X0104664Y0163705D01*
X0104694Y0163851D01*
X0104727Y0163996D01*
X0104764Y0164140D01*
X0104805Y0164284D01*
X0104850Y0164426D01*
X0104899Y0164567D01*
X0104952Y0164706D01*
X0105008Y0164844D01*
X0105067Y0164981D01*
X0105131Y0165116D01*
X0105198Y0165249D01*
X0105268Y0165380D01*
X0105342Y0165510D01*
X0105420Y0165637D01*
X0105500Y0165763D01*
X0105585Y0165886D01*
X0105672Y0166007D01*
X0105762Y0166125D01*
X0105856Y0166241D01*
X0105953Y0166355D01*
X0106052Y0166466D01*
X0106155Y0166574D01*
X0106260Y0166679D01*
X0106368Y0166782D01*
X0106479Y0166881D01*
X0106593Y0166978D01*
X0106709Y0167072D01*
X0106827Y0167162D01*
X0106948Y0167249D01*
X0107071Y0167334D01*
X0107197Y0167414D01*
X0107324Y0167492D01*
X0107454Y0167566D01*
X0107585Y0167636D01*
X0107718Y0167703D01*
X0107853Y0167767D01*
X0107990Y0167826D01*
X0108128Y0167882D01*
X0108267Y0167935D01*
X0108408Y0167984D01*
X0108550Y0168029D01*
X0108694Y0168070D01*
X0108838Y0168107D01*
X0108983Y0168140D01*
X0109129Y0168170D01*
X0109276Y0168196D01*
X0109424Y0168217D01*
X0109572Y0168235D01*
X0109720Y0168249D01*
X0109869Y0168259D01*
X0110018Y0168265D01*
X0110167Y0168267D01*
X0110316Y0168265D01*
X0110465Y0168259D01*
X0110614Y0168249D01*
X0110762Y0168235D01*
X0110910Y0168217D01*
X0111058Y0168196D01*
X0111205Y0168170D01*
X0111351Y0168140D01*
X0111496Y0168107D01*
X0111640Y0168070D01*
X0111784Y0168029D01*
X0111926Y0167984D01*
X0112067Y0167935D01*
X0112206Y0167882D01*
X0112344Y0167826D01*
X0112481Y0167767D01*
X0112616Y0167703D01*
X0112749Y0167636D01*
X0112880Y0167566D01*
X0113010Y0167492D01*
X0113137Y0167414D01*
X0113263Y0167334D01*
X0113386Y0167249D01*
X0113507Y0167162D01*
X0113625Y0167072D01*
X0113741Y0166978D01*
X0113855Y0166881D01*
X0113966Y0166782D01*
X0114074Y0166679D01*
X0114179Y0166574D01*
X0114282Y0166466D01*
X0114381Y0166355D01*
X0114478Y0166241D01*
X0114572Y0166125D01*
X0114662Y0166007D01*
X0114749Y0165886D01*
X0114834Y0165763D01*
X0114914Y0165637D01*
X0114992Y0165510D01*
X0115066Y0165380D01*
X0115136Y0165249D01*
X0115203Y0165116D01*
X0115267Y0164981D01*
X0115326Y0164844D01*
X0115382Y0164706D01*
X0115435Y0164567D01*
X0115484Y0164426D01*
X0115529Y0164284D01*
X0115570Y0164140D01*
X0115607Y0163996D01*
X0115640Y0163851D01*
X0115670Y0163705D01*
X0115696Y0163558D01*
X0115717Y0163410D01*
X0115735Y0163262D01*
X0115749Y0163114D01*
X0115759Y0162965D01*
X0115765Y0162816D01*
X0115767Y0162667D01*
X0115765Y0162518D01*
X0115759Y0162369D01*
X0115749Y0162220D01*
X0115735Y0162072D01*
X0115717Y0161924D01*
X0115696Y0161776D01*
X0115670Y0161629D01*
X0115640Y0161483D01*
X0115607Y0161338D01*
X0115570Y0161194D01*
X0115529Y0161050D01*
X0115484Y0160908D01*
X0115435Y0160767D01*
X0115382Y0160628D01*
X0115326Y0160490D01*
X0115267Y0160353D01*
X0115203Y0160218D01*
X0115136Y0160085D01*
X0115066Y0159954D01*
X0114992Y0159824D01*
X0114914Y0159697D01*
X0114834Y0159571D01*
X0114749Y0159448D01*
X0114662Y0159327D01*
X0114572Y0159209D01*
X0114478Y0159093D01*
X0114381Y0158979D01*
X0114282Y0158868D01*
X0114179Y0158760D01*
X0114074Y0158655D01*
X0113966Y0158552D01*
X0113855Y0158453D01*
X0113741Y0158356D01*
X0113625Y0158262D01*
X0113507Y0158172D01*
X0113386Y0158085D01*
X0113263Y0158000D01*
X0113137Y0157920D01*
X0113010Y0157842D01*
X0112880Y0157768D01*
X0112749Y0157698D01*
X0112616Y0157631D01*
X0112481Y0157567D01*
X0112344Y0157508D01*
X0112206Y0157452D01*
X0112067Y0157399D01*
X0111926Y0157350D01*
X0111784Y0157305D01*
X0111640Y0157264D01*
X0111496Y0157227D01*
X0111351Y0157194D01*
X0111205Y0157164D01*
X0111058Y0157138D01*
X0110910Y0157117D01*
X0110762Y0157099D01*
X0110614Y0157085D01*
X0110465Y0157075D01*
X0110316Y0157069D01*
X0110167Y0157067D01*
X0110018Y0157069D01*
X0109869Y0157075D01*
X0109720Y0157085D01*
X0109572Y0157099D01*
X0109424Y0157117D01*
X0109276Y0157138D01*
X0109129Y0157164D01*
X0108983Y0157194D01*
X0108838Y0157227D01*
X0108694Y0157264D01*
X0108550Y0157305D01*
X0108408Y0157350D01*
X0108267Y0157399D01*
X0108128Y0157452D01*
X0107990Y0157508D01*
X0107853Y0157567D01*
X0107718Y0157631D01*
X0107585Y0157698D01*
X0107454Y0157768D01*
X0107324Y0157842D01*
X0107197Y0157920D01*
X0107071Y0158000D01*
X0106948Y0158085D01*
X0106827Y0158172D01*
X0106709Y0158262D01*
X0106593Y0158356D01*
X0106479Y0158453D01*
X0106368Y0158552D01*
X0106260Y0158655D01*
X0106155Y0158760D01*
X0106052Y0158868D01*
X0105953Y0158979D01*
X0105856Y0159093D01*
X0105762Y0159209D01*
X0105672Y0159327D01*
X0105585Y0159448D01*
X0105500Y0159571D01*
X0105420Y0159697D01*
X0105342Y0159824D01*
X0105268Y0159954D01*
X0105198Y0160085D01*
X0105131Y0160218D01*
X0105067Y0160353D01*
X0105008Y0160490D01*
X0104952Y0160628D01*
X0104899Y0160767D01*
X0104850Y0160908D01*
X0104805Y0161050D01*
X0104764Y0161194D01*
X0104727Y0161338D01*
X0104694Y0161483D01*
X0104664Y0161629D01*
X0104638Y0161776D01*
X0104617Y0161924D01*
X0104599Y0162072D01*
X0104585Y0162220D01*
X0104575Y0162369D01*
X0104569Y0162518D01*
X0104567Y0162667D01*
X0012067Y0162667D02*
X0012069Y0162816D01*
X0012075Y0162965D01*
X0012085Y0163114D01*
X0012099Y0163262D01*
X0012117Y0163410D01*
X0012138Y0163558D01*
X0012164Y0163705D01*
X0012194Y0163851D01*
X0012227Y0163996D01*
X0012264Y0164140D01*
X0012305Y0164284D01*
X0012350Y0164426D01*
X0012399Y0164567D01*
X0012452Y0164706D01*
X0012508Y0164844D01*
X0012567Y0164981D01*
X0012631Y0165116D01*
X0012698Y0165249D01*
X0012768Y0165380D01*
X0012842Y0165510D01*
X0012920Y0165637D01*
X0013000Y0165763D01*
X0013085Y0165886D01*
X0013172Y0166007D01*
X0013262Y0166125D01*
X0013356Y0166241D01*
X0013453Y0166355D01*
X0013552Y0166466D01*
X0013655Y0166574D01*
X0013760Y0166679D01*
X0013868Y0166782D01*
X0013979Y0166881D01*
X0014093Y0166978D01*
X0014209Y0167072D01*
X0014327Y0167162D01*
X0014448Y0167249D01*
X0014571Y0167334D01*
X0014697Y0167414D01*
X0014824Y0167492D01*
X0014954Y0167566D01*
X0015085Y0167636D01*
X0015218Y0167703D01*
X0015353Y0167767D01*
X0015490Y0167826D01*
X0015628Y0167882D01*
X0015767Y0167935D01*
X0015908Y0167984D01*
X0016050Y0168029D01*
X0016194Y0168070D01*
X0016338Y0168107D01*
X0016483Y0168140D01*
X0016629Y0168170D01*
X0016776Y0168196D01*
X0016924Y0168217D01*
X0017072Y0168235D01*
X0017220Y0168249D01*
X0017369Y0168259D01*
X0017518Y0168265D01*
X0017667Y0168267D01*
X0017816Y0168265D01*
X0017965Y0168259D01*
X0018114Y0168249D01*
X0018262Y0168235D01*
X0018410Y0168217D01*
X0018558Y0168196D01*
X0018705Y0168170D01*
X0018851Y0168140D01*
X0018996Y0168107D01*
X0019140Y0168070D01*
X0019284Y0168029D01*
X0019426Y0167984D01*
X0019567Y0167935D01*
X0019706Y0167882D01*
X0019844Y0167826D01*
X0019981Y0167767D01*
X0020116Y0167703D01*
X0020249Y0167636D01*
X0020380Y0167566D01*
X0020510Y0167492D01*
X0020637Y0167414D01*
X0020763Y0167334D01*
X0020886Y0167249D01*
X0021007Y0167162D01*
X0021125Y0167072D01*
X0021241Y0166978D01*
X0021355Y0166881D01*
X0021466Y0166782D01*
X0021574Y0166679D01*
X0021679Y0166574D01*
X0021782Y0166466D01*
X0021881Y0166355D01*
X0021978Y0166241D01*
X0022072Y0166125D01*
X0022162Y0166007D01*
X0022249Y0165886D01*
X0022334Y0165763D01*
X0022414Y0165637D01*
X0022492Y0165510D01*
X0022566Y0165380D01*
X0022636Y0165249D01*
X0022703Y0165116D01*
X0022767Y0164981D01*
X0022826Y0164844D01*
X0022882Y0164706D01*
X0022935Y0164567D01*
X0022984Y0164426D01*
X0023029Y0164284D01*
X0023070Y0164140D01*
X0023107Y0163996D01*
X0023140Y0163851D01*
X0023170Y0163705D01*
X0023196Y0163558D01*
X0023217Y0163410D01*
X0023235Y0163262D01*
X0023249Y0163114D01*
X0023259Y0162965D01*
X0023265Y0162816D01*
X0023267Y0162667D01*
X0023265Y0162518D01*
X0023259Y0162369D01*
X0023249Y0162220D01*
X0023235Y0162072D01*
X0023217Y0161924D01*
X0023196Y0161776D01*
X0023170Y0161629D01*
X0023140Y0161483D01*
X0023107Y0161338D01*
X0023070Y0161194D01*
X0023029Y0161050D01*
X0022984Y0160908D01*
X0022935Y0160767D01*
X0022882Y0160628D01*
X0022826Y0160490D01*
X0022767Y0160353D01*
X0022703Y0160218D01*
X0022636Y0160085D01*
X0022566Y0159954D01*
X0022492Y0159824D01*
X0022414Y0159697D01*
X0022334Y0159571D01*
X0022249Y0159448D01*
X0022162Y0159327D01*
X0022072Y0159209D01*
X0021978Y0159093D01*
X0021881Y0158979D01*
X0021782Y0158868D01*
X0021679Y0158760D01*
X0021574Y0158655D01*
X0021466Y0158552D01*
X0021355Y0158453D01*
X0021241Y0158356D01*
X0021125Y0158262D01*
X0021007Y0158172D01*
X0020886Y0158085D01*
X0020763Y0158000D01*
X0020637Y0157920D01*
X0020510Y0157842D01*
X0020380Y0157768D01*
X0020249Y0157698D01*
X0020116Y0157631D01*
X0019981Y0157567D01*
X0019844Y0157508D01*
X0019706Y0157452D01*
X0019567Y0157399D01*
X0019426Y0157350D01*
X0019284Y0157305D01*
X0019140Y0157264D01*
X0018996Y0157227D01*
X0018851Y0157194D01*
X0018705Y0157164D01*
X0018558Y0157138D01*
X0018410Y0157117D01*
X0018262Y0157099D01*
X0018114Y0157085D01*
X0017965Y0157075D01*
X0017816Y0157069D01*
X0017667Y0157067D01*
X0017518Y0157069D01*
X0017369Y0157075D01*
X0017220Y0157085D01*
X0017072Y0157099D01*
X0016924Y0157117D01*
X0016776Y0157138D01*
X0016629Y0157164D01*
X0016483Y0157194D01*
X0016338Y0157227D01*
X0016194Y0157264D01*
X0016050Y0157305D01*
X0015908Y0157350D01*
X0015767Y0157399D01*
X0015628Y0157452D01*
X0015490Y0157508D01*
X0015353Y0157567D01*
X0015218Y0157631D01*
X0015085Y0157698D01*
X0014954Y0157768D01*
X0014824Y0157842D01*
X0014697Y0157920D01*
X0014571Y0158000D01*
X0014448Y0158085D01*
X0014327Y0158172D01*
X0014209Y0158262D01*
X0014093Y0158356D01*
X0013979Y0158453D01*
X0013868Y0158552D01*
X0013760Y0158655D01*
X0013655Y0158760D01*
X0013552Y0158868D01*
X0013453Y0158979D01*
X0013356Y0159093D01*
X0013262Y0159209D01*
X0013172Y0159327D01*
X0013085Y0159448D01*
X0013000Y0159571D01*
X0012920Y0159697D01*
X0012842Y0159824D01*
X0012768Y0159954D01*
X0012698Y0160085D01*
X0012631Y0160218D01*
X0012567Y0160353D01*
X0012508Y0160490D01*
X0012452Y0160628D01*
X0012399Y0160767D01*
X0012350Y0160908D01*
X0012305Y0161050D01*
X0012264Y0161194D01*
X0012227Y0161338D01*
X0012194Y0161483D01*
X0012164Y0161629D01*
X0012138Y0161776D01*
X0012117Y0161924D01*
X0012099Y0162072D01*
X0012085Y0162220D01*
X0012075Y0162369D01*
X0012069Y0162518D01*
X0012067Y0162667D01*
X0012067Y0307667D02*
X0012069Y0307816D01*
X0012075Y0307965D01*
X0012085Y0308114D01*
X0012099Y0308262D01*
X0012117Y0308410D01*
X0012138Y0308558D01*
X0012164Y0308705D01*
X0012194Y0308851D01*
X0012227Y0308996D01*
X0012264Y0309140D01*
X0012305Y0309284D01*
X0012350Y0309426D01*
X0012399Y0309567D01*
X0012452Y0309706D01*
X0012508Y0309844D01*
X0012567Y0309981D01*
X0012631Y0310116D01*
X0012698Y0310249D01*
X0012768Y0310380D01*
X0012842Y0310510D01*
X0012920Y0310637D01*
X0013000Y0310763D01*
X0013085Y0310886D01*
X0013172Y0311007D01*
X0013262Y0311125D01*
X0013356Y0311241D01*
X0013453Y0311355D01*
X0013552Y0311466D01*
X0013655Y0311574D01*
X0013760Y0311679D01*
X0013868Y0311782D01*
X0013979Y0311881D01*
X0014093Y0311978D01*
X0014209Y0312072D01*
X0014327Y0312162D01*
X0014448Y0312249D01*
X0014571Y0312334D01*
X0014697Y0312414D01*
X0014824Y0312492D01*
X0014954Y0312566D01*
X0015085Y0312636D01*
X0015218Y0312703D01*
X0015353Y0312767D01*
X0015490Y0312826D01*
X0015628Y0312882D01*
X0015767Y0312935D01*
X0015908Y0312984D01*
X0016050Y0313029D01*
X0016194Y0313070D01*
X0016338Y0313107D01*
X0016483Y0313140D01*
X0016629Y0313170D01*
X0016776Y0313196D01*
X0016924Y0313217D01*
X0017072Y0313235D01*
X0017220Y0313249D01*
X0017369Y0313259D01*
X0017518Y0313265D01*
X0017667Y0313267D01*
X0017816Y0313265D01*
X0017965Y0313259D01*
X0018114Y0313249D01*
X0018262Y0313235D01*
X0018410Y0313217D01*
X0018558Y0313196D01*
X0018705Y0313170D01*
X0018851Y0313140D01*
X0018996Y0313107D01*
X0019140Y0313070D01*
X0019284Y0313029D01*
X0019426Y0312984D01*
X0019567Y0312935D01*
X0019706Y0312882D01*
X0019844Y0312826D01*
X0019981Y0312767D01*
X0020116Y0312703D01*
X0020249Y0312636D01*
X0020380Y0312566D01*
X0020510Y0312492D01*
X0020637Y0312414D01*
X0020763Y0312334D01*
X0020886Y0312249D01*
X0021007Y0312162D01*
X0021125Y0312072D01*
X0021241Y0311978D01*
X0021355Y0311881D01*
X0021466Y0311782D01*
X0021574Y0311679D01*
X0021679Y0311574D01*
X0021782Y0311466D01*
X0021881Y0311355D01*
X0021978Y0311241D01*
X0022072Y0311125D01*
X0022162Y0311007D01*
X0022249Y0310886D01*
X0022334Y0310763D01*
X0022414Y0310637D01*
X0022492Y0310510D01*
X0022566Y0310380D01*
X0022636Y0310249D01*
X0022703Y0310116D01*
X0022767Y0309981D01*
X0022826Y0309844D01*
X0022882Y0309706D01*
X0022935Y0309567D01*
X0022984Y0309426D01*
X0023029Y0309284D01*
X0023070Y0309140D01*
X0023107Y0308996D01*
X0023140Y0308851D01*
X0023170Y0308705D01*
X0023196Y0308558D01*
X0023217Y0308410D01*
X0023235Y0308262D01*
X0023249Y0308114D01*
X0023259Y0307965D01*
X0023265Y0307816D01*
X0023267Y0307667D01*
X0023265Y0307518D01*
X0023259Y0307369D01*
X0023249Y0307220D01*
X0023235Y0307072D01*
X0023217Y0306924D01*
X0023196Y0306776D01*
X0023170Y0306629D01*
X0023140Y0306483D01*
X0023107Y0306338D01*
X0023070Y0306194D01*
X0023029Y0306050D01*
X0022984Y0305908D01*
X0022935Y0305767D01*
X0022882Y0305628D01*
X0022826Y0305490D01*
X0022767Y0305353D01*
X0022703Y0305218D01*
X0022636Y0305085D01*
X0022566Y0304954D01*
X0022492Y0304824D01*
X0022414Y0304697D01*
X0022334Y0304571D01*
X0022249Y0304448D01*
X0022162Y0304327D01*
X0022072Y0304209D01*
X0021978Y0304093D01*
X0021881Y0303979D01*
X0021782Y0303868D01*
X0021679Y0303760D01*
X0021574Y0303655D01*
X0021466Y0303552D01*
X0021355Y0303453D01*
X0021241Y0303356D01*
X0021125Y0303262D01*
X0021007Y0303172D01*
X0020886Y0303085D01*
X0020763Y0303000D01*
X0020637Y0302920D01*
X0020510Y0302842D01*
X0020380Y0302768D01*
X0020249Y0302698D01*
X0020116Y0302631D01*
X0019981Y0302567D01*
X0019844Y0302508D01*
X0019706Y0302452D01*
X0019567Y0302399D01*
X0019426Y0302350D01*
X0019284Y0302305D01*
X0019140Y0302264D01*
X0018996Y0302227D01*
X0018851Y0302194D01*
X0018705Y0302164D01*
X0018558Y0302138D01*
X0018410Y0302117D01*
X0018262Y0302099D01*
X0018114Y0302085D01*
X0017965Y0302075D01*
X0017816Y0302069D01*
X0017667Y0302067D01*
X0017518Y0302069D01*
X0017369Y0302075D01*
X0017220Y0302085D01*
X0017072Y0302099D01*
X0016924Y0302117D01*
X0016776Y0302138D01*
X0016629Y0302164D01*
X0016483Y0302194D01*
X0016338Y0302227D01*
X0016194Y0302264D01*
X0016050Y0302305D01*
X0015908Y0302350D01*
X0015767Y0302399D01*
X0015628Y0302452D01*
X0015490Y0302508D01*
X0015353Y0302567D01*
X0015218Y0302631D01*
X0015085Y0302698D01*
X0014954Y0302768D01*
X0014824Y0302842D01*
X0014697Y0302920D01*
X0014571Y0303000D01*
X0014448Y0303085D01*
X0014327Y0303172D01*
X0014209Y0303262D01*
X0014093Y0303356D01*
X0013979Y0303453D01*
X0013868Y0303552D01*
X0013760Y0303655D01*
X0013655Y0303760D01*
X0013552Y0303868D01*
X0013453Y0303979D01*
X0013356Y0304093D01*
X0013262Y0304209D01*
X0013172Y0304327D01*
X0013085Y0304448D01*
X0013000Y0304571D01*
X0012920Y0304697D01*
X0012842Y0304824D01*
X0012768Y0304954D01*
X0012698Y0305085D01*
X0012631Y0305218D01*
X0012567Y0305353D01*
X0012508Y0305490D01*
X0012452Y0305628D01*
X0012399Y0305767D01*
X0012350Y0305908D01*
X0012305Y0306050D01*
X0012264Y0306194D01*
X0012227Y0306338D01*
X0012194Y0306483D01*
X0012164Y0306629D01*
X0012138Y0306776D01*
X0012117Y0306924D01*
X0012099Y0307072D01*
X0012085Y0307220D01*
X0012075Y0307369D01*
X0012069Y0307518D01*
X0012067Y0307667D01*
X0104567Y0307667D02*
X0104569Y0307816D01*
X0104575Y0307965D01*
X0104585Y0308114D01*
X0104599Y0308262D01*
X0104617Y0308410D01*
X0104638Y0308558D01*
X0104664Y0308705D01*
X0104694Y0308851D01*
X0104727Y0308996D01*
X0104764Y0309140D01*
X0104805Y0309284D01*
X0104850Y0309426D01*
X0104899Y0309567D01*
X0104952Y0309706D01*
X0105008Y0309844D01*
X0105067Y0309981D01*
X0105131Y0310116D01*
X0105198Y0310249D01*
X0105268Y0310380D01*
X0105342Y0310510D01*
X0105420Y0310637D01*
X0105500Y0310763D01*
X0105585Y0310886D01*
X0105672Y0311007D01*
X0105762Y0311125D01*
X0105856Y0311241D01*
X0105953Y0311355D01*
X0106052Y0311466D01*
X0106155Y0311574D01*
X0106260Y0311679D01*
X0106368Y0311782D01*
X0106479Y0311881D01*
X0106593Y0311978D01*
X0106709Y0312072D01*
X0106827Y0312162D01*
X0106948Y0312249D01*
X0107071Y0312334D01*
X0107197Y0312414D01*
X0107324Y0312492D01*
X0107454Y0312566D01*
X0107585Y0312636D01*
X0107718Y0312703D01*
X0107853Y0312767D01*
X0107990Y0312826D01*
X0108128Y0312882D01*
X0108267Y0312935D01*
X0108408Y0312984D01*
X0108550Y0313029D01*
X0108694Y0313070D01*
X0108838Y0313107D01*
X0108983Y0313140D01*
X0109129Y0313170D01*
X0109276Y0313196D01*
X0109424Y0313217D01*
X0109572Y0313235D01*
X0109720Y0313249D01*
X0109869Y0313259D01*
X0110018Y0313265D01*
X0110167Y0313267D01*
X0110316Y0313265D01*
X0110465Y0313259D01*
X0110614Y0313249D01*
X0110762Y0313235D01*
X0110910Y0313217D01*
X0111058Y0313196D01*
X0111205Y0313170D01*
X0111351Y0313140D01*
X0111496Y0313107D01*
X0111640Y0313070D01*
X0111784Y0313029D01*
X0111926Y0312984D01*
X0112067Y0312935D01*
X0112206Y0312882D01*
X0112344Y0312826D01*
X0112481Y0312767D01*
X0112616Y0312703D01*
X0112749Y0312636D01*
X0112880Y0312566D01*
X0113010Y0312492D01*
X0113137Y0312414D01*
X0113263Y0312334D01*
X0113386Y0312249D01*
X0113507Y0312162D01*
X0113625Y0312072D01*
X0113741Y0311978D01*
X0113855Y0311881D01*
X0113966Y0311782D01*
X0114074Y0311679D01*
X0114179Y0311574D01*
X0114282Y0311466D01*
X0114381Y0311355D01*
X0114478Y0311241D01*
X0114572Y0311125D01*
X0114662Y0311007D01*
X0114749Y0310886D01*
X0114834Y0310763D01*
X0114914Y0310637D01*
X0114992Y0310510D01*
X0115066Y0310380D01*
X0115136Y0310249D01*
X0115203Y0310116D01*
X0115267Y0309981D01*
X0115326Y0309844D01*
X0115382Y0309706D01*
X0115435Y0309567D01*
X0115484Y0309426D01*
X0115529Y0309284D01*
X0115570Y0309140D01*
X0115607Y0308996D01*
X0115640Y0308851D01*
X0115670Y0308705D01*
X0115696Y0308558D01*
X0115717Y0308410D01*
X0115735Y0308262D01*
X0115749Y0308114D01*
X0115759Y0307965D01*
X0115765Y0307816D01*
X0115767Y0307667D01*
X0115765Y0307518D01*
X0115759Y0307369D01*
X0115749Y0307220D01*
X0115735Y0307072D01*
X0115717Y0306924D01*
X0115696Y0306776D01*
X0115670Y0306629D01*
X0115640Y0306483D01*
X0115607Y0306338D01*
X0115570Y0306194D01*
X0115529Y0306050D01*
X0115484Y0305908D01*
X0115435Y0305767D01*
X0115382Y0305628D01*
X0115326Y0305490D01*
X0115267Y0305353D01*
X0115203Y0305218D01*
X0115136Y0305085D01*
X0115066Y0304954D01*
X0114992Y0304824D01*
X0114914Y0304697D01*
X0114834Y0304571D01*
X0114749Y0304448D01*
X0114662Y0304327D01*
X0114572Y0304209D01*
X0114478Y0304093D01*
X0114381Y0303979D01*
X0114282Y0303868D01*
X0114179Y0303760D01*
X0114074Y0303655D01*
X0113966Y0303552D01*
X0113855Y0303453D01*
X0113741Y0303356D01*
X0113625Y0303262D01*
X0113507Y0303172D01*
X0113386Y0303085D01*
X0113263Y0303000D01*
X0113137Y0302920D01*
X0113010Y0302842D01*
X0112880Y0302768D01*
X0112749Y0302698D01*
X0112616Y0302631D01*
X0112481Y0302567D01*
X0112344Y0302508D01*
X0112206Y0302452D01*
X0112067Y0302399D01*
X0111926Y0302350D01*
X0111784Y0302305D01*
X0111640Y0302264D01*
X0111496Y0302227D01*
X0111351Y0302194D01*
X0111205Y0302164D01*
X0111058Y0302138D01*
X0110910Y0302117D01*
X0110762Y0302099D01*
X0110614Y0302085D01*
X0110465Y0302075D01*
X0110316Y0302069D01*
X0110167Y0302067D01*
X0110018Y0302069D01*
X0109869Y0302075D01*
X0109720Y0302085D01*
X0109572Y0302099D01*
X0109424Y0302117D01*
X0109276Y0302138D01*
X0109129Y0302164D01*
X0108983Y0302194D01*
X0108838Y0302227D01*
X0108694Y0302264D01*
X0108550Y0302305D01*
X0108408Y0302350D01*
X0108267Y0302399D01*
X0108128Y0302452D01*
X0107990Y0302508D01*
X0107853Y0302567D01*
X0107718Y0302631D01*
X0107585Y0302698D01*
X0107454Y0302768D01*
X0107324Y0302842D01*
X0107197Y0302920D01*
X0107071Y0303000D01*
X0106948Y0303085D01*
X0106827Y0303172D01*
X0106709Y0303262D01*
X0106593Y0303356D01*
X0106479Y0303453D01*
X0106368Y0303552D01*
X0106260Y0303655D01*
X0106155Y0303760D01*
X0106052Y0303868D01*
X0105953Y0303979D01*
X0105856Y0304093D01*
X0105762Y0304209D01*
X0105672Y0304327D01*
X0105585Y0304448D01*
X0105500Y0304571D01*
X0105420Y0304697D01*
X0105342Y0304824D01*
X0105268Y0304954D01*
X0105198Y0305085D01*
X0105131Y0305218D01*
X0105067Y0305353D01*
X0105008Y0305490D01*
X0104952Y0305628D01*
X0104899Y0305767D01*
X0104850Y0305908D01*
X0104805Y0306050D01*
X0104764Y0306194D01*
X0104727Y0306338D01*
X0104694Y0306483D01*
X0104664Y0306629D01*
X0104638Y0306776D01*
X0104617Y0306924D01*
X0104599Y0307072D01*
X0104585Y0307220D01*
X0104575Y0307369D01*
X0104569Y0307518D01*
X0104567Y0307667D01*
X0249567Y0307667D02*
X0249569Y0307816D01*
X0249575Y0307965D01*
X0249585Y0308114D01*
X0249599Y0308262D01*
X0249617Y0308410D01*
X0249638Y0308558D01*
X0249664Y0308705D01*
X0249694Y0308851D01*
X0249727Y0308996D01*
X0249764Y0309140D01*
X0249805Y0309284D01*
X0249850Y0309426D01*
X0249899Y0309567D01*
X0249952Y0309706D01*
X0250008Y0309844D01*
X0250067Y0309981D01*
X0250131Y0310116D01*
X0250198Y0310249D01*
X0250268Y0310380D01*
X0250342Y0310510D01*
X0250420Y0310637D01*
X0250500Y0310763D01*
X0250585Y0310886D01*
X0250672Y0311007D01*
X0250762Y0311125D01*
X0250856Y0311241D01*
X0250953Y0311355D01*
X0251052Y0311466D01*
X0251155Y0311574D01*
X0251260Y0311679D01*
X0251368Y0311782D01*
X0251479Y0311881D01*
X0251593Y0311978D01*
X0251709Y0312072D01*
X0251827Y0312162D01*
X0251948Y0312249D01*
X0252071Y0312334D01*
X0252197Y0312414D01*
X0252324Y0312492D01*
X0252454Y0312566D01*
X0252585Y0312636D01*
X0252718Y0312703D01*
X0252853Y0312767D01*
X0252990Y0312826D01*
X0253128Y0312882D01*
X0253267Y0312935D01*
X0253408Y0312984D01*
X0253550Y0313029D01*
X0253694Y0313070D01*
X0253838Y0313107D01*
X0253983Y0313140D01*
X0254129Y0313170D01*
X0254276Y0313196D01*
X0254424Y0313217D01*
X0254572Y0313235D01*
X0254720Y0313249D01*
X0254869Y0313259D01*
X0255018Y0313265D01*
X0255167Y0313267D01*
X0255316Y0313265D01*
X0255465Y0313259D01*
X0255614Y0313249D01*
X0255762Y0313235D01*
X0255910Y0313217D01*
X0256058Y0313196D01*
X0256205Y0313170D01*
X0256351Y0313140D01*
X0256496Y0313107D01*
X0256640Y0313070D01*
X0256784Y0313029D01*
X0256926Y0312984D01*
X0257067Y0312935D01*
X0257206Y0312882D01*
X0257344Y0312826D01*
X0257481Y0312767D01*
X0257616Y0312703D01*
X0257749Y0312636D01*
X0257880Y0312566D01*
X0258010Y0312492D01*
X0258137Y0312414D01*
X0258263Y0312334D01*
X0258386Y0312249D01*
X0258507Y0312162D01*
X0258625Y0312072D01*
X0258741Y0311978D01*
X0258855Y0311881D01*
X0258966Y0311782D01*
X0259074Y0311679D01*
X0259179Y0311574D01*
X0259282Y0311466D01*
X0259381Y0311355D01*
X0259478Y0311241D01*
X0259572Y0311125D01*
X0259662Y0311007D01*
X0259749Y0310886D01*
X0259834Y0310763D01*
X0259914Y0310637D01*
X0259992Y0310510D01*
X0260066Y0310380D01*
X0260136Y0310249D01*
X0260203Y0310116D01*
X0260267Y0309981D01*
X0260326Y0309844D01*
X0260382Y0309706D01*
X0260435Y0309567D01*
X0260484Y0309426D01*
X0260529Y0309284D01*
X0260570Y0309140D01*
X0260607Y0308996D01*
X0260640Y0308851D01*
X0260670Y0308705D01*
X0260696Y0308558D01*
X0260717Y0308410D01*
X0260735Y0308262D01*
X0260749Y0308114D01*
X0260759Y0307965D01*
X0260765Y0307816D01*
X0260767Y0307667D01*
X0260765Y0307518D01*
X0260759Y0307369D01*
X0260749Y0307220D01*
X0260735Y0307072D01*
X0260717Y0306924D01*
X0260696Y0306776D01*
X0260670Y0306629D01*
X0260640Y0306483D01*
X0260607Y0306338D01*
X0260570Y0306194D01*
X0260529Y0306050D01*
X0260484Y0305908D01*
X0260435Y0305767D01*
X0260382Y0305628D01*
X0260326Y0305490D01*
X0260267Y0305353D01*
X0260203Y0305218D01*
X0260136Y0305085D01*
X0260066Y0304954D01*
X0259992Y0304824D01*
X0259914Y0304697D01*
X0259834Y0304571D01*
X0259749Y0304448D01*
X0259662Y0304327D01*
X0259572Y0304209D01*
X0259478Y0304093D01*
X0259381Y0303979D01*
X0259282Y0303868D01*
X0259179Y0303760D01*
X0259074Y0303655D01*
X0258966Y0303552D01*
X0258855Y0303453D01*
X0258741Y0303356D01*
X0258625Y0303262D01*
X0258507Y0303172D01*
X0258386Y0303085D01*
X0258263Y0303000D01*
X0258137Y0302920D01*
X0258010Y0302842D01*
X0257880Y0302768D01*
X0257749Y0302698D01*
X0257616Y0302631D01*
X0257481Y0302567D01*
X0257344Y0302508D01*
X0257206Y0302452D01*
X0257067Y0302399D01*
X0256926Y0302350D01*
X0256784Y0302305D01*
X0256640Y0302264D01*
X0256496Y0302227D01*
X0256351Y0302194D01*
X0256205Y0302164D01*
X0256058Y0302138D01*
X0255910Y0302117D01*
X0255762Y0302099D01*
X0255614Y0302085D01*
X0255465Y0302075D01*
X0255316Y0302069D01*
X0255167Y0302067D01*
X0255018Y0302069D01*
X0254869Y0302075D01*
X0254720Y0302085D01*
X0254572Y0302099D01*
X0254424Y0302117D01*
X0254276Y0302138D01*
X0254129Y0302164D01*
X0253983Y0302194D01*
X0253838Y0302227D01*
X0253694Y0302264D01*
X0253550Y0302305D01*
X0253408Y0302350D01*
X0253267Y0302399D01*
X0253128Y0302452D01*
X0252990Y0302508D01*
X0252853Y0302567D01*
X0252718Y0302631D01*
X0252585Y0302698D01*
X0252454Y0302768D01*
X0252324Y0302842D01*
X0252197Y0302920D01*
X0252071Y0303000D01*
X0251948Y0303085D01*
X0251827Y0303172D01*
X0251709Y0303262D01*
X0251593Y0303356D01*
X0251479Y0303453D01*
X0251368Y0303552D01*
X0251260Y0303655D01*
X0251155Y0303760D01*
X0251052Y0303868D01*
X0250953Y0303979D01*
X0250856Y0304093D01*
X0250762Y0304209D01*
X0250672Y0304327D01*
X0250585Y0304448D01*
X0250500Y0304571D01*
X0250420Y0304697D01*
X0250342Y0304824D01*
X0250268Y0304954D01*
X0250198Y0305085D01*
X0250131Y0305218D01*
X0250067Y0305353D01*
X0250008Y0305490D01*
X0249952Y0305628D01*
X0249899Y0305767D01*
X0249850Y0305908D01*
X0249805Y0306050D01*
X0249764Y0306194D01*
X0249727Y0306338D01*
X0249694Y0306483D01*
X0249664Y0306629D01*
X0249638Y0306776D01*
X0249617Y0306924D01*
X0249599Y0307072D01*
X0249585Y0307220D01*
X0249575Y0307369D01*
X0249569Y0307518D01*
X0249567Y0307667D01*
X0249567Y0017667D02*
X0249569Y0017816D01*
X0249575Y0017965D01*
X0249585Y0018114D01*
X0249599Y0018262D01*
X0249617Y0018410D01*
X0249638Y0018558D01*
X0249664Y0018705D01*
X0249694Y0018851D01*
X0249727Y0018996D01*
X0249764Y0019140D01*
X0249805Y0019284D01*
X0249850Y0019426D01*
X0249899Y0019567D01*
X0249952Y0019706D01*
X0250008Y0019844D01*
X0250067Y0019981D01*
X0250131Y0020116D01*
X0250198Y0020249D01*
X0250268Y0020380D01*
X0250342Y0020510D01*
X0250420Y0020637D01*
X0250500Y0020763D01*
X0250585Y0020886D01*
X0250672Y0021007D01*
X0250762Y0021125D01*
X0250856Y0021241D01*
X0250953Y0021355D01*
X0251052Y0021466D01*
X0251155Y0021574D01*
X0251260Y0021679D01*
X0251368Y0021782D01*
X0251479Y0021881D01*
X0251593Y0021978D01*
X0251709Y0022072D01*
X0251827Y0022162D01*
X0251948Y0022249D01*
X0252071Y0022334D01*
X0252197Y0022414D01*
X0252324Y0022492D01*
X0252454Y0022566D01*
X0252585Y0022636D01*
X0252718Y0022703D01*
X0252853Y0022767D01*
X0252990Y0022826D01*
X0253128Y0022882D01*
X0253267Y0022935D01*
X0253408Y0022984D01*
X0253550Y0023029D01*
X0253694Y0023070D01*
X0253838Y0023107D01*
X0253983Y0023140D01*
X0254129Y0023170D01*
X0254276Y0023196D01*
X0254424Y0023217D01*
X0254572Y0023235D01*
X0254720Y0023249D01*
X0254869Y0023259D01*
X0255018Y0023265D01*
X0255167Y0023267D01*
X0255316Y0023265D01*
X0255465Y0023259D01*
X0255614Y0023249D01*
X0255762Y0023235D01*
X0255910Y0023217D01*
X0256058Y0023196D01*
X0256205Y0023170D01*
X0256351Y0023140D01*
X0256496Y0023107D01*
X0256640Y0023070D01*
X0256784Y0023029D01*
X0256926Y0022984D01*
X0257067Y0022935D01*
X0257206Y0022882D01*
X0257344Y0022826D01*
X0257481Y0022767D01*
X0257616Y0022703D01*
X0257749Y0022636D01*
X0257880Y0022566D01*
X0258010Y0022492D01*
X0258137Y0022414D01*
X0258263Y0022334D01*
X0258386Y0022249D01*
X0258507Y0022162D01*
X0258625Y0022072D01*
X0258741Y0021978D01*
X0258855Y0021881D01*
X0258966Y0021782D01*
X0259074Y0021679D01*
X0259179Y0021574D01*
X0259282Y0021466D01*
X0259381Y0021355D01*
X0259478Y0021241D01*
X0259572Y0021125D01*
X0259662Y0021007D01*
X0259749Y0020886D01*
X0259834Y0020763D01*
X0259914Y0020637D01*
X0259992Y0020510D01*
X0260066Y0020380D01*
X0260136Y0020249D01*
X0260203Y0020116D01*
X0260267Y0019981D01*
X0260326Y0019844D01*
X0260382Y0019706D01*
X0260435Y0019567D01*
X0260484Y0019426D01*
X0260529Y0019284D01*
X0260570Y0019140D01*
X0260607Y0018996D01*
X0260640Y0018851D01*
X0260670Y0018705D01*
X0260696Y0018558D01*
X0260717Y0018410D01*
X0260735Y0018262D01*
X0260749Y0018114D01*
X0260759Y0017965D01*
X0260765Y0017816D01*
X0260767Y0017667D01*
X0260765Y0017518D01*
X0260759Y0017369D01*
X0260749Y0017220D01*
X0260735Y0017072D01*
X0260717Y0016924D01*
X0260696Y0016776D01*
X0260670Y0016629D01*
X0260640Y0016483D01*
X0260607Y0016338D01*
X0260570Y0016194D01*
X0260529Y0016050D01*
X0260484Y0015908D01*
X0260435Y0015767D01*
X0260382Y0015628D01*
X0260326Y0015490D01*
X0260267Y0015353D01*
X0260203Y0015218D01*
X0260136Y0015085D01*
X0260066Y0014954D01*
X0259992Y0014824D01*
X0259914Y0014697D01*
X0259834Y0014571D01*
X0259749Y0014448D01*
X0259662Y0014327D01*
X0259572Y0014209D01*
X0259478Y0014093D01*
X0259381Y0013979D01*
X0259282Y0013868D01*
X0259179Y0013760D01*
X0259074Y0013655D01*
X0258966Y0013552D01*
X0258855Y0013453D01*
X0258741Y0013356D01*
X0258625Y0013262D01*
X0258507Y0013172D01*
X0258386Y0013085D01*
X0258263Y0013000D01*
X0258137Y0012920D01*
X0258010Y0012842D01*
X0257880Y0012768D01*
X0257749Y0012698D01*
X0257616Y0012631D01*
X0257481Y0012567D01*
X0257344Y0012508D01*
X0257206Y0012452D01*
X0257067Y0012399D01*
X0256926Y0012350D01*
X0256784Y0012305D01*
X0256640Y0012264D01*
X0256496Y0012227D01*
X0256351Y0012194D01*
X0256205Y0012164D01*
X0256058Y0012138D01*
X0255910Y0012117D01*
X0255762Y0012099D01*
X0255614Y0012085D01*
X0255465Y0012075D01*
X0255316Y0012069D01*
X0255167Y0012067D01*
X0255018Y0012069D01*
X0254869Y0012075D01*
X0254720Y0012085D01*
X0254572Y0012099D01*
X0254424Y0012117D01*
X0254276Y0012138D01*
X0254129Y0012164D01*
X0253983Y0012194D01*
X0253838Y0012227D01*
X0253694Y0012264D01*
X0253550Y0012305D01*
X0253408Y0012350D01*
X0253267Y0012399D01*
X0253128Y0012452D01*
X0252990Y0012508D01*
X0252853Y0012567D01*
X0252718Y0012631D01*
X0252585Y0012698D01*
X0252454Y0012768D01*
X0252324Y0012842D01*
X0252197Y0012920D01*
X0252071Y0013000D01*
X0251948Y0013085D01*
X0251827Y0013172D01*
X0251709Y0013262D01*
X0251593Y0013356D01*
X0251479Y0013453D01*
X0251368Y0013552D01*
X0251260Y0013655D01*
X0251155Y0013760D01*
X0251052Y0013868D01*
X0250953Y0013979D01*
X0250856Y0014093D01*
X0250762Y0014209D01*
X0250672Y0014327D01*
X0250585Y0014448D01*
X0250500Y0014571D01*
X0250420Y0014697D01*
X0250342Y0014824D01*
X0250268Y0014954D01*
X0250198Y0015085D01*
X0250131Y0015218D01*
X0250067Y0015353D01*
X0250008Y0015490D01*
X0249952Y0015628D01*
X0249899Y0015767D01*
X0249850Y0015908D01*
X0249805Y0016050D01*
X0249764Y0016194D01*
X0249727Y0016338D01*
X0249694Y0016483D01*
X0249664Y0016629D01*
X0249638Y0016776D01*
X0249617Y0016924D01*
X0249599Y0017072D01*
X0249585Y0017220D01*
X0249575Y0017369D01*
X0249569Y0017518D01*
X0249567Y0017667D01*
D11*
X0152667Y0030167D03*
X0152667Y0037529D03*
X0152667Y0044891D03*
X0152667Y0052253D03*
X0152667Y0061663D03*
X0152667Y0069025D03*
X0152667Y0076387D03*
X0152667Y0083749D03*
X0152667Y0093159D03*
X0152667Y0100521D03*
X0152667Y0107883D03*
X0152667Y0115245D03*
X0152667Y0124655D03*
X0152667Y0132017D03*
X0152667Y0139379D03*
X0152667Y0146741D03*
X0141840Y0146741D03*
X0141840Y0139379D03*
X0141840Y0132017D03*
X0141840Y0124655D03*
X0141840Y0115245D03*
X0141840Y0107883D03*
X0141840Y0100521D03*
X0141840Y0093159D03*
X0141840Y0083749D03*
X0141840Y0076387D03*
X0141840Y0069025D03*
X0141840Y0061663D03*
X0141840Y0052253D03*
X0141840Y0044891D03*
X0141840Y0037529D03*
X0141840Y0030167D03*
X0077864Y0030167D03*
X0077864Y0037214D03*
X0077864Y0044261D03*
X0077864Y0051308D03*
X0077864Y0058356D03*
X0067037Y0058356D03*
X0067037Y0051308D03*
X0067037Y0044261D03*
X0067037Y0037214D03*
X0067037Y0030167D03*
X0067037Y0080757D03*
X0067037Y0088631D03*
X0067037Y0096505D03*
X0077864Y0096505D03*
X0077864Y0088631D03*
X0077864Y0080757D03*
X0077864Y0109064D03*
X0077864Y0116623D03*
X0077864Y0124182D03*
X0077864Y0131741D03*
X0077864Y0139301D03*
X0077864Y0146860D03*
X0067037Y0146860D03*
X0067037Y0139301D03*
X0067037Y0131741D03*
X0067037Y0124182D03*
X0067037Y0116623D03*
X0067037Y0109064D03*
X0067037Y0177667D03*
X0067037Y0184714D03*
X0067037Y0191761D03*
X0067037Y0198808D03*
X0067037Y0205856D03*
X0077864Y0205856D03*
X0077864Y0198808D03*
X0077864Y0191761D03*
X0077864Y0184714D03*
X0077864Y0177667D03*
X0077864Y0228257D03*
X0077864Y0236131D03*
X0077864Y0244005D03*
X0067037Y0244005D03*
X0067037Y0236131D03*
X0067037Y0228257D03*
X0067037Y0256564D03*
X0067037Y0264123D03*
X0067037Y0271682D03*
X0067037Y0279241D03*
X0067037Y0286801D03*
X0067037Y0294360D03*
X0077864Y0294360D03*
X0077864Y0286801D03*
X0077864Y0279241D03*
X0077864Y0271682D03*
X0077864Y0264123D03*
X0077864Y0256564D03*
X0141840Y0255383D03*
X0141840Y0262745D03*
X0141840Y0272155D03*
X0141840Y0279517D03*
X0141840Y0286879D03*
X0141840Y0294241D03*
X0152667Y0294241D03*
X0152667Y0286879D03*
X0152667Y0279517D03*
X0152667Y0272155D03*
X0152667Y0262745D03*
X0152667Y0255383D03*
X0152667Y0248021D03*
X0152667Y0240659D03*
X0152667Y0231249D03*
X0152667Y0223887D03*
X0152667Y0216525D03*
X0152667Y0209163D03*
X0152667Y0199753D03*
X0152667Y0192391D03*
X0152667Y0185029D03*
X0152667Y0177667D03*
X0141840Y0177667D03*
X0141840Y0185029D03*
X0141840Y0192391D03*
X0141840Y0199753D03*
X0141840Y0209163D03*
X0141840Y0216525D03*
X0141840Y0223887D03*
X0141840Y0231249D03*
X0141840Y0240659D03*
X0141840Y0248021D03*
D12*
X0053167Y0252667D02*
X0047167Y0252667D01*
X0047167Y0242667D02*
X0053167Y0242667D01*
X0053167Y0232667D02*
X0047167Y0232667D01*
X0047167Y0222667D02*
X0053167Y0222667D01*
X0055667Y0110167D02*
X0049667Y0110167D01*
X0049667Y0100167D02*
X0055667Y0100167D01*
X0055667Y0090167D02*
X0049667Y0090167D01*
X0049667Y0080167D02*
X0055667Y0080167D01*
X0242667Y0104667D02*
X0242667Y0110667D01*
X0242667Y0114667D02*
X0242667Y0120667D01*
X0242667Y0124667D02*
X0242667Y0130667D01*
X0252667Y0130667D02*
X0252667Y0124667D01*
X0252667Y0120667D02*
X0252667Y0114667D01*
X0252667Y0110667D02*
X0252667Y0104667D01*
X0255167Y0194667D02*
X0255167Y0200667D01*
X0255167Y0204667D02*
X0255167Y0210667D01*
X0255167Y0214667D02*
X0255167Y0220667D01*
X0245167Y0220667D02*
X0245167Y0214667D01*
X0245167Y0210667D02*
X0245167Y0204667D01*
X0245167Y0200667D02*
X0245167Y0194667D01*
D13*
X0192667Y0257367D03*
X0187667Y0257367D03*
X0182667Y0257367D03*
X0177667Y0257367D03*
X0177667Y0277967D03*
X0182667Y0277967D03*
X0187667Y0277967D03*
X0192667Y0277967D03*
X0192667Y0132967D03*
X0197667Y0132967D03*
X0187667Y0132967D03*
X0182667Y0132967D03*
X0182667Y0112367D03*
X0187667Y0112367D03*
X0192667Y0112367D03*
X0197667Y0112367D03*
D14*
X0198513Y0145167D03*
X0191820Y0145167D03*
X0193513Y0287667D03*
X0186820Y0287667D03*
D15*
X0240167Y0285167D03*
X0240167Y0295167D03*
X0247667Y0082667D03*
X0247667Y0072667D03*
X0045167Y0272667D03*
X0045167Y0282667D03*
X0020167Y0040167D03*
X0020167Y0030167D03*
D16*
X0039517Y0052667D03*
X0055817Y0052667D03*
X0053317Y0185167D03*
X0037017Y0185167D03*
D17*
X0205967Y0226167D03*
X0219367Y0226167D03*
X0219367Y0279167D03*
X0205967Y0279167D03*
X0210967Y0119167D03*
X0224367Y0119167D03*
X0224367Y0066167D03*
X0210967Y0066167D03*
D18*
X0207667Y0196067D03*
X0207667Y0209267D03*
D19*
X0217667Y0184867D03*
X0222667Y0184867D03*
X0227667Y0184867D03*
X0232667Y0184867D03*
X0232667Y0165467D03*
X0227667Y0165467D03*
X0222667Y0165467D03*
X0217667Y0165467D03*
D20*
X0210167Y0176617D03*
X0210167Y0183717D03*
D21*
X0242567Y0150167D03*
X0242567Y0140167D03*
X0252767Y0140167D03*
X0252767Y0150167D03*
D22*
X0185167Y0157467D03*
X0185167Y0192867D03*
D23*
X0224917Y0194167D03*
X0224917Y0199167D03*
X0230417Y0199167D03*
X0230417Y0194167D03*
D24*
X0231217Y0205667D03*
X0224117Y0205667D03*
X0211217Y0147667D03*
X0204117Y0147667D03*
X0191217Y0297667D03*
X0184117Y0297667D03*
D25*
X0240167Y0175267D03*
X0250167Y0175267D03*
X0250167Y0165067D03*
X0240167Y0165067D03*
D26*
X0242667Y0238417D03*
X0242667Y0266917D03*
X0209417Y0035167D03*
X0180917Y0035167D03*
X0022667Y0073417D03*
X0022667Y0101917D03*
X0022667Y0223417D03*
X0022667Y0251917D03*
D27*
X0177667Y0290167D03*
X0182667Y0145167D03*
D28*
X0182667Y0132967D02*
X0174867Y0132967D01*
X0172667Y0135167D01*
X0172667Y0157467D01*
X0185167Y0157467D01*
X0210167Y0183717D02*
X0210167Y0193567D01*
X0207667Y0196067D01*
X0188367Y0196067D01*
X0185167Y0192867D01*
X0207667Y0209267D02*
X0211067Y0212667D01*
X0227667Y0212667D01*
X0231217Y0209117D01*
X0231217Y0205667D01*
X0231217Y0200967D01*
X0230417Y0199167D02*
X0230417Y0194167D01*
X0224917Y0194167D02*
X0224917Y0199167D01*
X0240167Y0175267D02*
X0250167Y0175267D01*
X0252567Y0175267D01*
X0257667Y0170167D01*
X0257667Y0152667D01*
X0255167Y0150167D01*
X0252767Y0150167D01*
X0252767Y0140167D01*
X0252667Y0137667D02*
X0252667Y0127667D01*
X0252667Y0117667D01*
X0252667Y0107667D01*
X0242667Y0107667D02*
X0242667Y0117667D01*
X0242667Y0127667D01*
X0242667Y0140067D01*
X0242567Y0140167D02*
X0242567Y0150167D01*
X0240167Y0150167D02*
X0232667Y0157667D01*
X0235067Y0162567D02*
X0235067Y0163067D01*
X0232667Y0165467D01*
X0239867Y0165467D01*
X0240167Y0165167D01*
X0240067Y0165167D02*
X0240167Y0165067D01*
X0250167Y0165067D01*
X0240067Y0165167D02*
X0237667Y0165167D01*
X0235067Y0162567D01*
D29*
X0230067Y0175267D02*
X0227667Y0177667D01*
X0227667Y0184867D01*
X0230067Y0175267D02*
X0240167Y0175267D01*
X0217667Y0169117D02*
X0217667Y0165467D01*
X0217667Y0169117D02*
X0210167Y0176617D01*
X0210167Y0183717D02*
X0216517Y0183717D01*
X0217667Y0184867D01*
X0217667Y0202667D02*
X0221617Y0202667D01*
X0212667Y0155167D02*
X0212667Y0149117D01*
X0211217Y0147667D01*
X0205167Y0147667D02*
X0205167Y0140167D01*
X0201617Y0145167D02*
X0198513Y0145167D01*
X0199117Y0145167D01*
X0198513Y0145167D02*
X0197667Y0144320D01*
X0197667Y0132967D01*
X0192667Y0132967D02*
X0192667Y0144320D01*
X0191820Y0145167D01*
X0201617Y0145167D02*
X0204117Y0147667D01*
X0205167Y0147667D02*
X0205167Y0149117D01*
X0172667Y0157467D02*
X0135367Y0157467D01*
X0125167Y0167667D01*
X0125167Y0290167D01*
X0137667Y0302667D01*
X0165167Y0302667D01*
X0170167Y0297667D01*
X0184117Y0297667D01*
X0191217Y0297667D02*
X0193513Y0295370D01*
X0193513Y0287667D01*
X0192667Y0287667D01*
X0192667Y0277967D01*
X0187667Y0277967D02*
X0187667Y0286820D01*
X0186820Y0287667D01*
X0192667Y0286820D02*
X0193513Y0287667D01*
X0193513Y0295167D01*
X0197667Y0295167D01*
X0177667Y0277967D02*
X0172367Y0277967D01*
X0170167Y0280167D01*
X0170167Y0297667D01*
D30*
X0197667Y0295167D03*
X0217667Y0202667D03*
X0205167Y0140167D03*
D31*
X0201667Y0132667D02*
X0220167Y0132667D01*
X0230167Y0122667D01*
X0230167Y0097667D01*
X0227667Y0095167D01*
X0195167Y0095167D01*
X0192667Y0097667D01*
X0192667Y0125817D01*
X0194424Y0125817D01*
X0195167Y0126124D01*
X0195910Y0125817D01*
X0199424Y0125817D01*
X0200453Y0126243D01*
X0201240Y0127031D01*
X0201667Y0128060D01*
X0201667Y0132667D01*
X0201667Y0132351D02*
X0220483Y0132351D01*
X0222081Y0130752D02*
X0201667Y0130752D01*
X0201667Y0129154D02*
X0223680Y0129154D01*
X0225278Y0127555D02*
X0201458Y0127555D01*
X0199761Y0125956D02*
X0226877Y0125956D01*
X0228475Y0124358D02*
X0192667Y0124358D01*
X0192667Y0122759D02*
X0230074Y0122759D01*
X0230167Y0121161D02*
X0192667Y0121161D01*
X0192667Y0119562D02*
X0230167Y0119562D01*
X0230167Y0117964D02*
X0192667Y0117964D01*
X0192667Y0116365D02*
X0230167Y0116365D01*
X0230167Y0114767D02*
X0192667Y0114767D01*
X0192667Y0113168D02*
X0230167Y0113168D01*
X0230167Y0111570D02*
X0192667Y0111570D01*
X0192667Y0109971D02*
X0230167Y0109971D01*
X0230167Y0108373D02*
X0192667Y0108373D01*
X0192667Y0106774D02*
X0230167Y0106774D01*
X0230167Y0105176D02*
X0192667Y0105176D01*
X0192667Y0103577D02*
X0230167Y0103577D01*
X0230167Y0101979D02*
X0192667Y0101979D01*
X0192667Y0100380D02*
X0230167Y0100380D01*
X0230167Y0098782D02*
X0192667Y0098782D01*
X0193150Y0097183D02*
X0229683Y0097183D01*
X0228085Y0095585D02*
X0194749Y0095585D01*
X0195167Y0090167D02*
X0227667Y0090167D01*
X0232667Y0085167D01*
X0232667Y0077667D01*
X0235167Y0075167D01*
X0250167Y0075167D01*
X0252667Y0072667D01*
X0252667Y0055167D01*
X0250167Y0052667D01*
X0227667Y0052667D01*
X0225167Y0050167D01*
X0225167Y0032667D01*
X0215167Y0022667D01*
X0202667Y0022667D01*
X0195167Y0030167D01*
X0195167Y0047667D01*
X0192667Y0050167D01*
X0192667Y0087667D01*
X0195167Y0090167D01*
X0194191Y0089191D02*
X0228643Y0089191D01*
X0230241Y0087592D02*
X0192667Y0087592D01*
X0192667Y0085994D02*
X0231840Y0085994D01*
X0232667Y0084395D02*
X0192667Y0084395D01*
X0192667Y0082797D02*
X0232667Y0082797D01*
X0232667Y0081198D02*
X0192667Y0081198D01*
X0192667Y0079600D02*
X0232667Y0079600D01*
X0232667Y0078001D02*
X0192667Y0078001D01*
X0192667Y0076403D02*
X0233931Y0076403D01*
X0250529Y0074804D02*
X0192667Y0074804D01*
X0192667Y0073206D02*
X0252128Y0073206D01*
X0252667Y0071607D02*
X0192667Y0071607D01*
X0192667Y0070009D02*
X0252667Y0070009D01*
X0252667Y0068410D02*
X0192667Y0068410D01*
X0192667Y0066812D02*
X0252667Y0066812D01*
X0252667Y0065213D02*
X0192667Y0065213D01*
X0192667Y0063615D02*
X0252667Y0063615D01*
X0252667Y0062016D02*
X0192667Y0062016D01*
X0192667Y0060418D02*
X0252667Y0060418D01*
X0252667Y0058819D02*
X0192667Y0058819D01*
X0192667Y0057221D02*
X0252667Y0057221D01*
X0252667Y0055622D02*
X0192667Y0055622D01*
X0192667Y0054023D02*
X0251523Y0054023D01*
X0227425Y0052425D02*
X0192667Y0052425D01*
X0192667Y0050826D02*
X0225826Y0050826D01*
X0225167Y0049228D02*
X0193605Y0049228D01*
X0195167Y0047629D02*
X0225167Y0047629D01*
X0225167Y0046031D02*
X0195167Y0046031D01*
X0195167Y0044432D02*
X0225167Y0044432D01*
X0225167Y0042834D02*
X0195167Y0042834D01*
X0195167Y0041235D02*
X0225167Y0041235D01*
X0225167Y0039637D02*
X0195167Y0039637D01*
X0195167Y0038038D02*
X0225167Y0038038D01*
X0225167Y0036440D02*
X0195167Y0036440D01*
X0195167Y0034841D02*
X0225167Y0034841D01*
X0225167Y0033243D02*
X0195167Y0033243D01*
X0195167Y0031644D02*
X0224144Y0031644D01*
X0222546Y0030046D02*
X0195287Y0030046D01*
X0196886Y0028447D02*
X0220947Y0028447D01*
X0219349Y0026849D02*
X0198485Y0026849D01*
X0200083Y0025250D02*
X0217750Y0025250D01*
X0216152Y0023652D02*
X0201682Y0023652D01*
X0186217Y0048717D02*
X0175304Y0048717D01*
X0167367Y0040779D01*
X0167367Y0029554D01*
X0167667Y0029254D01*
X0167667Y0027667D01*
X0160167Y0022667D01*
X0140167Y0022667D01*
X0135167Y0027667D01*
X0135167Y0052667D01*
X0137667Y0055167D01*
X0155167Y0055167D01*
X0160167Y0060167D01*
X0160167Y0085167D01*
X0155167Y0090167D01*
X0135167Y0090167D01*
X0132667Y0092667D01*
X0132667Y0115167D01*
X0135167Y0117667D01*
X0157667Y0117667D01*
X0165167Y0125167D01*
X0187667Y0125167D01*
X0187667Y0050167D01*
X0186217Y0048717D01*
X0186728Y0049228D02*
X0135167Y0049228D01*
X0135167Y0050826D02*
X0187667Y0050826D01*
X0187667Y0052425D02*
X0135167Y0052425D01*
X0136523Y0054023D02*
X0187667Y0054023D01*
X0187667Y0055622D02*
X0155622Y0055622D01*
X0157221Y0057221D02*
X0187667Y0057221D01*
X0187667Y0058819D02*
X0158819Y0058819D01*
X0160167Y0060418D02*
X0187667Y0060418D01*
X0187667Y0062016D02*
X0160167Y0062016D01*
X0160167Y0063615D02*
X0187667Y0063615D01*
X0187667Y0065213D02*
X0160167Y0065213D01*
X0160167Y0066812D02*
X0187667Y0066812D01*
X0187667Y0068410D02*
X0160167Y0068410D01*
X0160167Y0070009D02*
X0187667Y0070009D01*
X0187667Y0071607D02*
X0160167Y0071607D01*
X0160167Y0073206D02*
X0187667Y0073206D01*
X0187667Y0074804D02*
X0160167Y0074804D01*
X0160167Y0076403D02*
X0187667Y0076403D01*
X0187667Y0078001D02*
X0160167Y0078001D01*
X0160167Y0079600D02*
X0187667Y0079600D01*
X0187667Y0081198D02*
X0160167Y0081198D01*
X0160167Y0082797D02*
X0187667Y0082797D01*
X0187667Y0084395D02*
X0160167Y0084395D01*
X0159340Y0085994D02*
X0187667Y0085994D01*
X0187667Y0087592D02*
X0157741Y0087592D01*
X0156143Y0089191D02*
X0187667Y0089191D01*
X0187667Y0090789D02*
X0134544Y0090789D01*
X0132946Y0092388D02*
X0187667Y0092388D01*
X0187667Y0093986D02*
X0132667Y0093986D01*
X0132667Y0095585D02*
X0187667Y0095585D01*
X0187667Y0097183D02*
X0132667Y0097183D01*
X0132667Y0098782D02*
X0187667Y0098782D01*
X0187667Y0100380D02*
X0132667Y0100380D01*
X0132667Y0101979D02*
X0187667Y0101979D01*
X0187667Y0103577D02*
X0132667Y0103577D01*
X0132667Y0105176D02*
X0187667Y0105176D01*
X0187667Y0106774D02*
X0132667Y0106774D01*
X0132667Y0108373D02*
X0187667Y0108373D01*
X0187667Y0109971D02*
X0132667Y0109971D01*
X0132667Y0111570D02*
X0187667Y0111570D01*
X0187667Y0113168D02*
X0132667Y0113168D01*
X0132667Y0114767D02*
X0187667Y0114767D01*
X0187667Y0116365D02*
X0133865Y0116365D01*
X0110167Y0100167D02*
X0106505Y0096505D01*
X0077864Y0096505D01*
X0072450Y0098469D02*
X0072987Y0099764D01*
X0074605Y0101382D01*
X0076719Y0102258D01*
X0079008Y0102258D01*
X0081122Y0101382D01*
X0082740Y0099764D01*
X0083013Y0099105D01*
X0105167Y0099105D01*
X0105167Y0153545D01*
X0103781Y0154345D01*
X0101845Y0156281D01*
X0100475Y0158652D01*
X0099767Y0161297D01*
X0099767Y0164036D01*
X0100475Y0166681D01*
X0101845Y0169052D01*
X0103781Y0170989D01*
X0105167Y0171789D01*
X0105167Y0241405D01*
X0083013Y0241405D01*
X0082740Y0240747D01*
X0082062Y0240068D01*
X0082740Y0239390D01*
X0083616Y0237276D01*
X0083616Y0234987D01*
X0082740Y0232873D01*
X0082062Y0232194D01*
X0082740Y0231516D01*
X0083616Y0229402D01*
X0083616Y0227113D01*
X0082740Y0224999D01*
X0081122Y0223380D01*
X0079008Y0222504D01*
X0076719Y0222504D01*
X0074605Y0223380D01*
X0072987Y0224999D01*
X0072450Y0226294D01*
X0071914Y0224999D01*
X0070295Y0223380D01*
X0068181Y0222504D01*
X0065892Y0222504D01*
X0063778Y0223380D01*
X0062160Y0224999D01*
X0061284Y0227113D01*
X0061284Y0229402D01*
X0062160Y0231516D01*
X0062838Y0232194D01*
X0062160Y0232873D01*
X0061284Y0234987D01*
X0061284Y0237276D01*
X0062160Y0239390D01*
X0062838Y0240068D01*
X0062160Y0240747D01*
X0061284Y0242861D01*
X0061284Y0245150D01*
X0062160Y0247264D01*
X0063778Y0248882D01*
X0065892Y0249758D01*
X0068181Y0249758D01*
X0070295Y0248882D01*
X0071914Y0247264D01*
X0072450Y0245969D01*
X0072987Y0247264D01*
X0074605Y0248882D01*
X0076719Y0249758D01*
X0079008Y0249758D01*
X0081122Y0248882D01*
X0082740Y0247264D01*
X0083013Y0246605D01*
X0105167Y0246605D01*
X0105167Y0297667D01*
X0082692Y0297667D01*
X0082740Y0297618D01*
X0083616Y0295504D01*
X0083616Y0293215D01*
X0082740Y0291101D01*
X0082220Y0290580D01*
X0082740Y0290059D01*
X0083616Y0287945D01*
X0083616Y0285656D01*
X0082740Y0283542D01*
X0082220Y0283021D01*
X0082740Y0282500D01*
X0083616Y0280386D01*
X0083616Y0278097D01*
X0082740Y0275983D01*
X0082220Y0275462D01*
X0082740Y0274941D01*
X0083616Y0272827D01*
X0083616Y0270538D01*
X0082740Y0268424D01*
X0082220Y0267903D01*
X0082740Y0267382D01*
X0083616Y0265268D01*
X0083616Y0262979D01*
X0082740Y0260865D01*
X0082220Y0260344D01*
X0082740Y0259823D01*
X0083616Y0257709D01*
X0083616Y0255420D01*
X0082740Y0253306D01*
X0081122Y0251687D01*
X0079008Y0250812D01*
X0076719Y0250812D01*
X0074605Y0251687D01*
X0072987Y0253306D01*
X0072450Y0254601D01*
X0071914Y0253306D01*
X0070295Y0251687D01*
X0068181Y0250812D01*
X0065892Y0250812D01*
X0063778Y0251687D01*
X0062160Y0253306D01*
X0061284Y0255420D01*
X0061284Y0257709D01*
X0062160Y0259823D01*
X0062681Y0260344D01*
X0062160Y0260865D01*
X0061284Y0262979D01*
X0061284Y0265268D01*
X0062160Y0267382D01*
X0062681Y0267903D01*
X0062160Y0268424D01*
X0061284Y0270538D01*
X0061284Y0272827D01*
X0062160Y0274941D01*
X0062681Y0275462D01*
X0062160Y0275983D01*
X0061284Y0278097D01*
X0061284Y0280386D01*
X0062160Y0282500D01*
X0062681Y0283021D01*
X0062160Y0283542D01*
X0061284Y0285656D01*
X0061284Y0287945D01*
X0062160Y0290059D01*
X0062681Y0290580D01*
X0062160Y0291101D01*
X0061284Y0293215D01*
X0061284Y0295504D01*
X0062160Y0297618D01*
X0062208Y0297667D01*
X0020529Y0297667D01*
X0019036Y0297267D01*
X0016297Y0297267D01*
X0015167Y0297570D01*
X0015167Y0263579D01*
X0017054Y0265467D01*
X0028279Y0265467D01*
X0036217Y0257529D01*
X0036217Y0246304D01*
X0028279Y0238367D01*
X0017054Y0238367D01*
X0015167Y0240254D01*
X0015167Y0172764D01*
X0016297Y0173067D01*
X0019036Y0173067D01*
X0021681Y0172358D01*
X0024052Y0170989D01*
X0025989Y0169052D01*
X0027358Y0166681D01*
X0028067Y0164036D01*
X0028067Y0161297D01*
X0027358Y0158652D01*
X0025989Y0156281D01*
X0024052Y0154345D01*
X0021681Y0152975D01*
X0019036Y0152267D01*
X0016297Y0152267D01*
X0015167Y0152570D01*
X0015167Y0113579D01*
X0017054Y0115467D01*
X0028279Y0115467D01*
X0036217Y0107529D01*
X0036217Y0096304D01*
X0028279Y0088367D01*
X0017054Y0088367D01*
X0015167Y0090254D01*
X0015167Y0033581D01*
X0017702Y0036117D01*
X0022631Y0036117D01*
X0026117Y0032631D01*
X0026117Y0027702D01*
X0024635Y0026221D01*
X0025037Y0025989D01*
X0025859Y0025167D01*
X0058990Y0025167D01*
X0057962Y0026194D01*
X0057567Y0027149D01*
X0057567Y0034090D01*
X0056590Y0035067D01*
X0047149Y0035067D01*
X0046194Y0035462D01*
X0042962Y0038694D01*
X0042567Y0039649D01*
X0042567Y0060684D01*
X0042962Y0061639D01*
X0043694Y0062371D01*
X0043694Y0062371D01*
X0046194Y0064871D01*
X0047149Y0065267D01*
X0050006Y0065267D01*
X0050610Y0065517D01*
X0061024Y0065517D01*
X0061627Y0065267D01*
X0080684Y0065267D01*
X0081639Y0064871D01*
X0082371Y0064139D01*
X0084871Y0061639D01*
X0085267Y0060684D01*
X0085267Y0027149D01*
X0084871Y0026194D01*
X0084139Y0025462D01*
X0083844Y0025167D01*
X0102959Y0025167D01*
X0103781Y0025989D01*
X0105167Y0026789D01*
X0105167Y0093905D01*
X0083013Y0093905D01*
X0082740Y0093247D01*
X0082062Y0092568D01*
X0082740Y0091890D01*
X0083616Y0089776D01*
X0083616Y0087487D01*
X0082740Y0085373D01*
X0082062Y0084694D01*
X0082740Y0084016D01*
X0083616Y0081902D01*
X0083616Y0079613D01*
X0082740Y0077499D01*
X0081122Y0075880D01*
X0079008Y0075004D01*
X0076719Y0075004D01*
X0074605Y0075880D01*
X0072987Y0077499D01*
X0072450Y0078794D01*
X0071914Y0077499D01*
X0070295Y0075880D01*
X0068181Y0075004D01*
X0065892Y0075004D01*
X0063778Y0075880D01*
X0062160Y0077499D01*
X0061467Y0079172D01*
X0061467Y0079013D01*
X0060584Y0076881D01*
X0058952Y0075250D01*
X0056820Y0074367D01*
X0048513Y0074367D01*
X0046381Y0075250D01*
X0044750Y0076881D01*
X0043867Y0079013D01*
X0043867Y0081320D01*
X0044750Y0083452D01*
X0046381Y0085084D01*
X0046582Y0085167D01*
X0046381Y0085250D01*
X0044750Y0086881D01*
X0043867Y0089013D01*
X0043867Y0091320D01*
X0044750Y0093452D01*
X0046381Y0095084D01*
X0046582Y0095167D01*
X0046381Y0095250D01*
X0044750Y0096881D01*
X0043867Y0099013D01*
X0043867Y0101320D01*
X0044750Y0103452D01*
X0046381Y0105084D01*
X0046582Y0105167D01*
X0046381Y0105250D01*
X0044750Y0106881D01*
X0043867Y0109013D01*
X0043867Y0111320D01*
X0044750Y0113452D01*
X0046381Y0115084D01*
X0048513Y0115967D01*
X0056820Y0115967D01*
X0058952Y0115084D01*
X0060584Y0113452D01*
X0061467Y0111320D01*
X0061467Y0110650D01*
X0062160Y0112323D01*
X0062681Y0112844D01*
X0062160Y0113365D01*
X0061284Y0115479D01*
X0061284Y0117768D01*
X0062160Y0119882D01*
X0062681Y0120403D01*
X0062160Y0120924D01*
X0061284Y0123038D01*
X0061284Y0125327D01*
X0062160Y0127441D01*
X0062681Y0127962D01*
X0062160Y0128483D01*
X0061284Y0130597D01*
X0061284Y0132886D01*
X0062160Y0135000D01*
X0062681Y0135521D01*
X0062160Y0136042D01*
X0061284Y0138156D01*
X0061284Y0140445D01*
X0062160Y0142559D01*
X0062681Y0143080D01*
X0062160Y0143601D01*
X0061284Y0145715D01*
X0061284Y0148004D01*
X0062160Y0150118D01*
X0063778Y0151737D01*
X0065892Y0152612D01*
X0068181Y0152612D01*
X0070295Y0151737D01*
X0071914Y0150118D01*
X0072450Y0148823D01*
X0072987Y0150118D01*
X0074605Y0151737D01*
X0076719Y0152612D01*
X0079008Y0152612D01*
X0081122Y0151737D01*
X0082740Y0150118D01*
X0083616Y0148004D01*
X0083616Y0145715D01*
X0082740Y0143601D01*
X0082220Y0143080D01*
X0082740Y0142559D01*
X0083616Y0140445D01*
X0083616Y0138156D01*
X0082740Y0136042D01*
X0082220Y0135521D01*
X0082740Y0135000D01*
X0083616Y0132886D01*
X0083616Y0130597D01*
X0082740Y0128483D01*
X0082220Y0127962D01*
X0082740Y0127441D01*
X0083616Y0125327D01*
X0083616Y0123038D01*
X0082740Y0120924D01*
X0082220Y0120403D01*
X0082740Y0119882D01*
X0083616Y0117768D01*
X0083616Y0115479D01*
X0082740Y0113365D01*
X0082220Y0112844D01*
X0082740Y0112323D01*
X0083616Y0110209D01*
X0083616Y0107920D01*
X0082740Y0105806D01*
X0081122Y0104187D01*
X0079008Y0103312D01*
X0076719Y0103312D01*
X0074605Y0104187D01*
X0072987Y0105806D01*
X0072450Y0107101D01*
X0071914Y0105806D01*
X0070295Y0104187D01*
X0068181Y0103312D01*
X0065892Y0103312D01*
X0063778Y0104187D01*
X0062160Y0105806D01*
X0061284Y0107920D01*
X0061284Y0108572D01*
X0060584Y0106881D01*
X0058952Y0105250D01*
X0058752Y0105167D01*
X0058952Y0105084D01*
X0060584Y0103452D01*
X0061467Y0101320D01*
X0061467Y0099013D01*
X0060584Y0096881D01*
X0058952Y0095250D01*
X0058752Y0095167D01*
X0058952Y0095084D01*
X0060584Y0093452D01*
X0061467Y0091320D01*
X0061467Y0090216D01*
X0062160Y0091890D01*
X0062838Y0092568D01*
X0062160Y0093247D01*
X0061284Y0095361D01*
X0061284Y0097650D01*
X0062160Y0099764D01*
X0063778Y0101382D01*
X0065892Y0102258D01*
X0068181Y0102258D01*
X0070295Y0101382D01*
X0071914Y0099764D01*
X0072450Y0098469D01*
X0072320Y0098782D02*
X0072580Y0098782D01*
X0073603Y0100380D02*
X0071297Y0100380D01*
X0068855Y0101979D02*
X0076045Y0101979D01*
X0076078Y0103577D02*
X0068823Y0103577D01*
X0071284Y0105176D02*
X0073616Y0105176D01*
X0072585Y0106774D02*
X0072315Y0106774D01*
X0065251Y0103577D02*
X0060458Y0103577D01*
X0061194Y0101979D02*
X0065218Y0101979D01*
X0062776Y0100380D02*
X0061467Y0100380D01*
X0061371Y0098782D02*
X0061753Y0098782D01*
X0061284Y0097183D02*
X0060709Y0097183D01*
X0061284Y0095585D02*
X0059287Y0095585D01*
X0060049Y0093986D02*
X0061853Y0093986D01*
X0062658Y0092388D02*
X0061025Y0092388D01*
X0061467Y0090789D02*
X0061704Y0090789D01*
X0061952Y0078001D02*
X0061048Y0078001D01*
X0060105Y0076403D02*
X0063256Y0076403D01*
X0057877Y0074804D02*
X0105167Y0074804D01*
X0105167Y0073206D02*
X0015167Y0073206D01*
X0015167Y0074804D02*
X0047457Y0074804D01*
X0045228Y0076403D02*
X0015167Y0076403D01*
X0015167Y0078001D02*
X0044286Y0078001D01*
X0043867Y0079600D02*
X0015167Y0079600D01*
X0015167Y0081198D02*
X0043867Y0081198D01*
X0044478Y0082797D02*
X0015167Y0082797D01*
X0015167Y0084395D02*
X0045693Y0084395D01*
X0045637Y0085994D02*
X0015167Y0085994D01*
X0015167Y0087592D02*
X0044455Y0087592D01*
X0043867Y0089191D02*
X0029103Y0089191D01*
X0030702Y0090789D02*
X0043867Y0090789D01*
X0044309Y0092388D02*
X0032300Y0092388D01*
X0033899Y0093986D02*
X0045284Y0093986D01*
X0046046Y0095585D02*
X0035497Y0095585D01*
X0036217Y0097183D02*
X0044625Y0097183D01*
X0043962Y0098782D02*
X0036217Y0098782D01*
X0036217Y0100380D02*
X0043867Y0100380D01*
X0044139Y0101979D02*
X0036217Y0101979D01*
X0036217Y0103577D02*
X0044875Y0103577D01*
X0046559Y0105176D02*
X0036217Y0105176D01*
X0036217Y0106774D02*
X0044857Y0106774D01*
X0044132Y0108373D02*
X0035373Y0108373D01*
X0033775Y0109971D02*
X0043867Y0109971D01*
X0043970Y0111570D02*
X0032176Y0111570D01*
X0030577Y0113168D02*
X0044632Y0113168D01*
X0046064Y0114767D02*
X0028979Y0114767D01*
X0016354Y0114767D02*
X0015167Y0114767D01*
X0015167Y0116365D02*
X0061284Y0116365D01*
X0061365Y0117964D02*
X0015167Y0117964D01*
X0015167Y0119562D02*
X0062027Y0119562D01*
X0062062Y0121161D02*
X0015167Y0121161D01*
X0015167Y0122759D02*
X0061399Y0122759D01*
X0061284Y0124358D02*
X0015167Y0124358D01*
X0015167Y0125956D02*
X0061545Y0125956D01*
X0062274Y0127555D02*
X0015167Y0127555D01*
X0015167Y0129154D02*
X0061882Y0129154D01*
X0061284Y0130752D02*
X0015167Y0130752D01*
X0015167Y0132351D02*
X0061284Y0132351D01*
X0061724Y0133949D02*
X0015167Y0133949D01*
X0015167Y0135548D02*
X0062654Y0135548D01*
X0061702Y0137146D02*
X0015167Y0137146D01*
X0015167Y0138745D02*
X0061284Y0138745D01*
X0061284Y0140343D02*
X0015167Y0140343D01*
X0015167Y0141942D02*
X0061904Y0141942D01*
X0062221Y0143540D02*
X0015167Y0143540D01*
X0015167Y0145139D02*
X0061523Y0145139D01*
X0061284Y0146737D02*
X0015167Y0146737D01*
X0015167Y0148336D02*
X0061421Y0148336D01*
X0062084Y0149934D02*
X0015167Y0149934D01*
X0015167Y0151533D02*
X0063574Y0151533D01*
X0070499Y0151533D02*
X0074401Y0151533D01*
X0072910Y0149934D02*
X0071990Y0149934D01*
X0081326Y0151533D02*
X0105167Y0151533D01*
X0105167Y0153131D02*
X0021951Y0153131D01*
X0024438Y0154730D02*
X0103396Y0154730D01*
X0101817Y0156328D02*
X0026016Y0156328D01*
X0026939Y0157927D02*
X0100894Y0157927D01*
X0100242Y0159525D02*
X0027592Y0159525D01*
X0028020Y0161124D02*
X0099813Y0161124D01*
X0099767Y0162722D02*
X0028067Y0162722D01*
X0027990Y0164321D02*
X0099843Y0164321D01*
X0100271Y0165919D02*
X0027562Y0165919D01*
X0026875Y0167518D02*
X0100959Y0167518D01*
X0101908Y0169116D02*
X0025925Y0169116D01*
X0024326Y0170715D02*
X0045942Y0170715D01*
X0046194Y0170462D02*
X0047149Y0170067D01*
X0080684Y0170067D01*
X0081639Y0170462D01*
X0084139Y0172962D01*
X0084871Y0173694D01*
X0085267Y0174649D01*
X0085267Y0208184D01*
X0084871Y0209139D01*
X0082371Y0211639D01*
X0081639Y0212371D01*
X0080684Y0212767D01*
X0062149Y0212767D01*
X0061194Y0212371D01*
X0057962Y0209139D01*
X0057567Y0208184D01*
X0057567Y0207149D01*
X0057567Y0201244D01*
X0056590Y0200267D01*
X0047149Y0200267D01*
X0046194Y0199871D01*
X0043694Y0197371D01*
X0042962Y0196639D01*
X0042567Y0195684D01*
X0042567Y0174649D01*
X0042962Y0173694D01*
X0045462Y0171194D01*
X0046194Y0170462D01*
X0044343Y0172313D02*
X0021758Y0172313D01*
X0015167Y0173912D02*
X0042872Y0173912D01*
X0042567Y0175510D02*
X0015167Y0175510D01*
X0015167Y0177109D02*
X0042567Y0177109D01*
X0042567Y0178707D02*
X0015167Y0178707D01*
X0015167Y0180306D02*
X0042567Y0180306D01*
X0042567Y0181904D02*
X0015167Y0181904D01*
X0015167Y0183503D02*
X0042567Y0183503D01*
X0042567Y0185101D02*
X0015167Y0185101D01*
X0015167Y0186700D02*
X0042567Y0186700D01*
X0042567Y0188298D02*
X0015167Y0188298D01*
X0015167Y0189897D02*
X0042567Y0189897D01*
X0042567Y0191495D02*
X0015167Y0191495D01*
X0015167Y0193094D02*
X0042567Y0193094D01*
X0042567Y0194692D02*
X0015167Y0194692D01*
X0015167Y0196291D02*
X0042818Y0196291D01*
X0044213Y0197890D02*
X0015167Y0197890D01*
X0015167Y0199488D02*
X0045811Y0199488D01*
X0047667Y0197667D02*
X0057667Y0197667D01*
X0060167Y0200167D01*
X0060167Y0207667D01*
X0062667Y0210167D01*
X0080167Y0210167D01*
X0082667Y0207667D01*
X0082667Y0175167D01*
X0080167Y0172667D01*
X0047667Y0172667D01*
X0045167Y0175167D01*
X0045167Y0195167D01*
X0047667Y0197667D01*
X0046291Y0196291D02*
X0082667Y0196291D01*
X0082667Y0194692D02*
X0045167Y0194692D01*
X0045167Y0193094D02*
X0082667Y0193094D01*
X0082667Y0191495D02*
X0045167Y0191495D01*
X0045167Y0189897D02*
X0082667Y0189897D01*
X0082667Y0188298D02*
X0045167Y0188298D01*
X0045167Y0186700D02*
X0082667Y0186700D01*
X0082667Y0185101D02*
X0045167Y0185101D01*
X0045167Y0183503D02*
X0082667Y0183503D01*
X0082667Y0181904D02*
X0045167Y0181904D01*
X0045167Y0180306D02*
X0082667Y0180306D01*
X0082667Y0178707D02*
X0045167Y0178707D01*
X0045167Y0177109D02*
X0082667Y0177109D01*
X0082667Y0175510D02*
X0045167Y0175510D01*
X0046421Y0173912D02*
X0081412Y0173912D01*
X0083490Y0172313D02*
X0105167Y0172313D01*
X0105167Y0173912D02*
X0084961Y0173912D01*
X0085267Y0175510D02*
X0105167Y0175510D01*
X0105167Y0177109D02*
X0085267Y0177109D01*
X0085267Y0178707D02*
X0105167Y0178707D01*
X0105167Y0180306D02*
X0085267Y0180306D01*
X0085267Y0181904D02*
X0105167Y0181904D01*
X0105167Y0183503D02*
X0085267Y0183503D01*
X0085267Y0185101D02*
X0105167Y0185101D01*
X0105167Y0186700D02*
X0085267Y0186700D01*
X0085267Y0188298D02*
X0105167Y0188298D01*
X0105167Y0189897D02*
X0085267Y0189897D01*
X0085267Y0191495D02*
X0105167Y0191495D01*
X0105167Y0193094D02*
X0085267Y0193094D01*
X0085267Y0194692D02*
X0105167Y0194692D01*
X0105167Y0196291D02*
X0085267Y0196291D01*
X0085267Y0197890D02*
X0105167Y0197890D01*
X0105167Y0199488D02*
X0085267Y0199488D01*
X0085267Y0201087D02*
X0105167Y0201087D01*
X0105167Y0202685D02*
X0085267Y0202685D01*
X0085267Y0204284D02*
X0105167Y0204284D01*
X0105167Y0205882D02*
X0085267Y0205882D01*
X0085267Y0207481D02*
X0105167Y0207481D01*
X0105167Y0209079D02*
X0084896Y0209079D01*
X0083333Y0210678D02*
X0105167Y0210678D01*
X0105167Y0212276D02*
X0081734Y0212276D01*
X0081254Y0209079D02*
X0061579Y0209079D01*
X0060167Y0207481D02*
X0082667Y0207481D01*
X0082667Y0205882D02*
X0060167Y0205882D01*
X0060167Y0204284D02*
X0082667Y0204284D01*
X0082667Y0202685D02*
X0060167Y0202685D01*
X0060167Y0201087D02*
X0082667Y0201087D01*
X0082667Y0199488D02*
X0059488Y0199488D01*
X0057890Y0197890D02*
X0082667Y0197890D01*
X0081208Y0223466D02*
X0105167Y0223466D01*
X0105167Y0225064D02*
X0082768Y0225064D01*
X0083430Y0226663D02*
X0105167Y0226663D01*
X0105167Y0228261D02*
X0083616Y0228261D01*
X0083426Y0229860D02*
X0105167Y0229860D01*
X0105167Y0231458D02*
X0082764Y0231458D01*
X0082817Y0233057D02*
X0105167Y0233057D01*
X0105167Y0234655D02*
X0083479Y0234655D01*
X0083616Y0236254D02*
X0105167Y0236254D01*
X0105167Y0237852D02*
X0083377Y0237852D01*
X0082680Y0239451D02*
X0105167Y0239451D01*
X0105167Y0241049D02*
X0082866Y0241049D01*
X0077864Y0244005D02*
X0106328Y0244005D01*
X0110167Y0240167D01*
X0110167Y0180167D01*
X0117667Y0172667D01*
X0117667Y0152667D01*
X0110167Y0145167D01*
X0110167Y0100167D01*
X0105167Y0100380D02*
X0082124Y0100380D01*
X0079682Y0101979D02*
X0105167Y0101979D01*
X0105167Y0103577D02*
X0079649Y0103577D01*
X0082111Y0105176D02*
X0105167Y0105176D01*
X0105167Y0106774D02*
X0083142Y0106774D01*
X0083616Y0108373D02*
X0105167Y0108373D01*
X0105167Y0109971D02*
X0083616Y0109971D01*
X0083052Y0111570D02*
X0105167Y0111570D01*
X0105167Y0113168D02*
X0082544Y0113168D01*
X0083321Y0114767D02*
X0105167Y0114767D01*
X0105167Y0116365D02*
X0083616Y0116365D01*
X0083535Y0117964D02*
X0105167Y0117964D01*
X0105167Y0119562D02*
X0082873Y0119562D01*
X0082839Y0121161D02*
X0105167Y0121161D01*
X0105167Y0122759D02*
X0083501Y0122759D01*
X0083616Y0124358D02*
X0105167Y0124358D01*
X0105167Y0125956D02*
X0083355Y0125956D01*
X0082627Y0127555D02*
X0105167Y0127555D01*
X0105167Y0129154D02*
X0083018Y0129154D01*
X0083616Y0130752D02*
X0105167Y0130752D01*
X0105167Y0132351D02*
X0083616Y0132351D01*
X0083176Y0133949D02*
X0105167Y0133949D01*
X0105167Y0135548D02*
X0082246Y0135548D01*
X0083198Y0137146D02*
X0105167Y0137146D01*
X0105167Y0138745D02*
X0083616Y0138745D01*
X0083616Y0140343D02*
X0105167Y0140343D01*
X0105167Y0141942D02*
X0082996Y0141942D01*
X0082680Y0143540D02*
X0105167Y0143540D01*
X0105167Y0145139D02*
X0083377Y0145139D01*
X0083616Y0146737D02*
X0105167Y0146737D01*
X0105167Y0148336D02*
X0083479Y0148336D01*
X0082817Y0149934D02*
X0105167Y0149934D01*
X0103507Y0170715D02*
X0081892Y0170715D01*
X0057410Y0201087D02*
X0015167Y0201087D01*
X0015167Y0202685D02*
X0057567Y0202685D01*
X0057567Y0204284D02*
X0015167Y0204284D01*
X0015167Y0205882D02*
X0057567Y0205882D01*
X0057567Y0207481D02*
X0015167Y0207481D01*
X0015167Y0209079D02*
X0057937Y0209079D01*
X0059501Y0210678D02*
X0015167Y0210678D01*
X0015167Y0212276D02*
X0061099Y0212276D01*
X0056452Y0217750D02*
X0054320Y0216867D01*
X0046013Y0216867D01*
X0043881Y0217750D01*
X0042250Y0219381D01*
X0041367Y0221513D01*
X0041367Y0223820D01*
X0042250Y0225952D01*
X0043881Y0227584D01*
X0044082Y0227667D01*
X0043881Y0227750D01*
X0042250Y0229381D01*
X0041367Y0231513D01*
X0041367Y0233820D01*
X0042250Y0235952D01*
X0043881Y0237584D01*
X0044082Y0237667D01*
X0043881Y0237750D01*
X0042250Y0239381D01*
X0041367Y0241513D01*
X0041367Y0243820D01*
X0042250Y0245952D01*
X0043881Y0247584D01*
X0044082Y0247667D01*
X0043881Y0247750D01*
X0042250Y0249381D01*
X0041367Y0251513D01*
X0041367Y0253820D01*
X0042250Y0255952D01*
X0043881Y0257584D01*
X0046013Y0258467D01*
X0054320Y0258467D01*
X0056452Y0257584D01*
X0058084Y0255952D01*
X0058967Y0253820D01*
X0058967Y0251513D01*
X0058084Y0249381D01*
X0056452Y0247750D01*
X0056252Y0247667D01*
X0056452Y0247584D01*
X0058084Y0245952D01*
X0058967Y0243820D01*
X0058967Y0241513D01*
X0058084Y0239381D01*
X0056452Y0237750D01*
X0056252Y0237667D01*
X0056452Y0237584D01*
X0058084Y0235952D01*
X0058967Y0233820D01*
X0058967Y0231513D01*
X0058084Y0229381D01*
X0056452Y0227750D01*
X0056252Y0227667D01*
X0056452Y0227584D01*
X0058084Y0225952D01*
X0058967Y0223820D01*
X0058967Y0221513D01*
X0058084Y0219381D01*
X0056452Y0217750D01*
X0057373Y0218670D02*
X0105167Y0218670D01*
X0105167Y0217072D02*
X0054815Y0217072D01*
X0058451Y0220269D02*
X0105167Y0220269D01*
X0105167Y0221867D02*
X0058967Y0221867D01*
X0058967Y0223466D02*
X0063693Y0223466D01*
X0062133Y0225064D02*
X0058451Y0225064D01*
X0057373Y0226663D02*
X0061470Y0226663D01*
X0061284Y0228261D02*
X0056964Y0228261D01*
X0058282Y0229860D02*
X0061474Y0229860D01*
X0062136Y0231458D02*
X0058944Y0231458D01*
X0058967Y0233057D02*
X0062083Y0233057D01*
X0061421Y0234655D02*
X0058621Y0234655D01*
X0057782Y0236254D02*
X0061284Y0236254D01*
X0061523Y0237852D02*
X0056555Y0237852D01*
X0058112Y0239451D02*
X0062221Y0239451D01*
X0062034Y0241049D02*
X0058775Y0241049D01*
X0058967Y0242648D02*
X0061372Y0242648D01*
X0061284Y0244246D02*
X0058790Y0244246D01*
X0058128Y0245845D02*
X0061572Y0245845D01*
X0062339Y0247443D02*
X0056592Y0247443D01*
X0057744Y0249042D02*
X0064164Y0249042D01*
X0063227Y0252239D02*
X0058967Y0252239D01*
X0058960Y0253837D02*
X0061940Y0253837D01*
X0061284Y0255436D02*
X0058297Y0255436D01*
X0057001Y0257034D02*
X0061284Y0257034D01*
X0061667Y0258633D02*
X0035113Y0258633D01*
X0036217Y0257034D02*
X0043332Y0257034D01*
X0042036Y0255436D02*
X0036217Y0255436D01*
X0036217Y0253837D02*
X0041374Y0253837D01*
X0041367Y0252239D02*
X0036217Y0252239D01*
X0036217Y0250640D02*
X0041728Y0250640D01*
X0042589Y0249042D02*
X0036217Y0249042D01*
X0036217Y0247443D02*
X0043741Y0247443D01*
X0042205Y0245845D02*
X0035757Y0245845D01*
X0034159Y0244246D02*
X0041543Y0244246D01*
X0041367Y0242648D02*
X0032560Y0242648D01*
X0030962Y0241049D02*
X0041559Y0241049D01*
X0042221Y0239451D02*
X0029363Y0239451D01*
X0041713Y0234655D02*
X0015167Y0234655D01*
X0015167Y0233057D02*
X0041367Y0233057D01*
X0041389Y0231458D02*
X0015167Y0231458D01*
X0015167Y0229860D02*
X0042051Y0229860D01*
X0043370Y0228261D02*
X0015167Y0228261D01*
X0015167Y0226663D02*
X0042960Y0226663D01*
X0041882Y0225064D02*
X0015167Y0225064D01*
X0015167Y0223466D02*
X0041367Y0223466D01*
X0041367Y0221867D02*
X0015167Y0221867D01*
X0015167Y0220269D02*
X0041882Y0220269D01*
X0042961Y0218670D02*
X0015167Y0218670D01*
X0015167Y0217072D02*
X0045518Y0217072D01*
X0042551Y0236254D02*
X0015167Y0236254D01*
X0015167Y0237852D02*
X0043779Y0237852D01*
X0058605Y0250640D02*
X0105167Y0250640D01*
X0105167Y0249042D02*
X0080737Y0249042D01*
X0082561Y0247443D02*
X0105167Y0247443D01*
X0105167Y0252239D02*
X0081674Y0252239D01*
X0082961Y0253837D02*
X0105167Y0253837D01*
X0105167Y0255436D02*
X0083616Y0255436D01*
X0083616Y0257034D02*
X0105167Y0257034D01*
X0105167Y0258633D02*
X0083233Y0258633D01*
X0082332Y0260231D02*
X0105167Y0260231D01*
X0105167Y0261830D02*
X0083140Y0261830D01*
X0083616Y0263428D02*
X0105167Y0263428D01*
X0105167Y0265027D02*
X0083616Y0265027D01*
X0083054Y0266625D02*
X0105167Y0266625D01*
X0105167Y0268224D02*
X0082541Y0268224D01*
X0083320Y0269823D02*
X0105167Y0269823D01*
X0105167Y0271421D02*
X0083616Y0271421D01*
X0083536Y0273020D02*
X0105167Y0273020D01*
X0105167Y0274618D02*
X0082874Y0274618D01*
X0082837Y0276217D02*
X0105167Y0276217D01*
X0105167Y0277815D02*
X0083499Y0277815D01*
X0083616Y0279414D02*
X0105167Y0279414D01*
X0105167Y0281012D02*
X0083357Y0281012D01*
X0082630Y0282611D02*
X0105167Y0282611D01*
X0105167Y0284209D02*
X0083017Y0284209D01*
X0083616Y0285808D02*
X0105167Y0285808D01*
X0105167Y0287406D02*
X0083616Y0287406D01*
X0083177Y0289005D02*
X0105167Y0289005D01*
X0105167Y0290603D02*
X0082243Y0290603D01*
X0083196Y0292202D02*
X0105167Y0292202D01*
X0105167Y0293800D02*
X0083616Y0293800D01*
X0083616Y0295399D02*
X0105167Y0295399D01*
X0105167Y0296997D02*
X0082998Y0296997D01*
X0061903Y0296997D02*
X0015167Y0296997D01*
X0015167Y0295399D02*
X0061284Y0295399D01*
X0061284Y0293800D02*
X0015167Y0293800D01*
X0015167Y0292202D02*
X0061704Y0292202D01*
X0062658Y0290603D02*
X0015167Y0290603D01*
X0015167Y0289005D02*
X0061723Y0289005D01*
X0061284Y0287406D02*
X0048842Y0287406D01*
X0047631Y0288617D02*
X0051117Y0285131D01*
X0051117Y0280202D01*
X0047631Y0276717D01*
X0042702Y0276717D01*
X0039217Y0280202D01*
X0039217Y0285131D01*
X0042702Y0288617D01*
X0047631Y0288617D01*
X0050440Y0285808D02*
X0061284Y0285808D01*
X0061883Y0284209D02*
X0051117Y0284209D01*
X0051117Y0282611D02*
X0062270Y0282611D01*
X0061543Y0281012D02*
X0051117Y0281012D01*
X0050328Y0279414D02*
X0061284Y0279414D01*
X0061401Y0277815D02*
X0048730Y0277815D01*
X0041604Y0277815D02*
X0015167Y0277815D01*
X0015167Y0276217D02*
X0062063Y0276217D01*
X0062026Y0274618D02*
X0015167Y0274618D01*
X0015167Y0273020D02*
X0061364Y0273020D01*
X0061284Y0271421D02*
X0015167Y0271421D01*
X0015167Y0269823D02*
X0061580Y0269823D01*
X0062360Y0268224D02*
X0015167Y0268224D01*
X0015167Y0266625D02*
X0061846Y0266625D01*
X0061284Y0265027D02*
X0028719Y0265027D01*
X0030317Y0263428D02*
X0061284Y0263428D01*
X0061760Y0261830D02*
X0031916Y0261830D01*
X0033514Y0260231D02*
X0062568Y0260231D01*
X0072134Y0253837D02*
X0072766Y0253837D01*
X0074053Y0252239D02*
X0070847Y0252239D01*
X0069910Y0249042D02*
X0074990Y0249042D01*
X0073166Y0247443D02*
X0071734Y0247443D01*
X0071941Y0225064D02*
X0072959Y0225064D01*
X0074519Y0223466D02*
X0070381Y0223466D01*
X0105167Y0215473D02*
X0015167Y0215473D01*
X0015167Y0213875D02*
X0105167Y0213875D01*
X0132667Y0240167D02*
X0132667Y0262667D01*
X0135167Y0265167D01*
X0157667Y0265167D01*
X0160167Y0267667D01*
X0182667Y0267667D01*
X0185167Y0265167D01*
X0185167Y0264209D01*
X0184881Y0264090D01*
X0184093Y0263303D01*
X0183667Y0262274D01*
X0183667Y0252460D01*
X0184093Y0251431D01*
X0184881Y0250643D01*
X0185167Y0250524D01*
X0185167Y0200167D01*
X0177667Y0200167D01*
X0175167Y0197667D01*
X0175167Y0182667D01*
X0160167Y0170167D01*
X0140167Y0170167D01*
X0135167Y0175167D01*
X0135167Y0200167D01*
X0137667Y0202667D01*
X0155167Y0202667D01*
X0160167Y0207667D01*
X0160167Y0232667D01*
X0155167Y0237667D01*
X0135167Y0237667D01*
X0132667Y0240167D01*
X0132667Y0241049D02*
X0185167Y0241049D01*
X0185167Y0239451D02*
X0133383Y0239451D01*
X0134981Y0237852D02*
X0185167Y0237852D01*
X0185167Y0236254D02*
X0156580Y0236254D01*
X0158178Y0234655D02*
X0185167Y0234655D01*
X0185167Y0233057D02*
X0159777Y0233057D01*
X0160167Y0231458D02*
X0185167Y0231458D01*
X0185167Y0229860D02*
X0160167Y0229860D01*
X0160167Y0228261D02*
X0185167Y0228261D01*
X0185167Y0226663D02*
X0160167Y0226663D01*
X0160167Y0225064D02*
X0185167Y0225064D01*
X0185167Y0223466D02*
X0160167Y0223466D01*
X0160167Y0221867D02*
X0185167Y0221867D01*
X0185167Y0220269D02*
X0160167Y0220269D01*
X0160167Y0218670D02*
X0185167Y0218670D01*
X0185167Y0217072D02*
X0160167Y0217072D01*
X0160167Y0215473D02*
X0185167Y0215473D01*
X0185167Y0213875D02*
X0160167Y0213875D01*
X0160167Y0212276D02*
X0185167Y0212276D01*
X0185167Y0210678D02*
X0160167Y0210678D01*
X0160167Y0209079D02*
X0185167Y0209079D01*
X0185167Y0207481D02*
X0159981Y0207481D01*
X0158382Y0205882D02*
X0185167Y0205882D01*
X0185167Y0204284D02*
X0156784Y0204284D01*
X0155185Y0202685D02*
X0185167Y0202685D01*
X0185167Y0201087D02*
X0136087Y0201087D01*
X0135167Y0199488D02*
X0176988Y0199488D01*
X0175390Y0197890D02*
X0135167Y0197890D01*
X0135167Y0196291D02*
X0175167Y0196291D01*
X0175167Y0194692D02*
X0135167Y0194692D01*
X0135167Y0193094D02*
X0175167Y0193094D01*
X0175167Y0191495D02*
X0135167Y0191495D01*
X0135167Y0189897D02*
X0175167Y0189897D01*
X0175167Y0188298D02*
X0135167Y0188298D01*
X0135167Y0186700D02*
X0175167Y0186700D01*
X0175167Y0185101D02*
X0135167Y0185101D01*
X0135167Y0183503D02*
X0175167Y0183503D01*
X0174252Y0181904D02*
X0135167Y0181904D01*
X0135167Y0180306D02*
X0172334Y0180306D01*
X0170416Y0178707D02*
X0135167Y0178707D01*
X0135167Y0177109D02*
X0168497Y0177109D01*
X0166579Y0175510D02*
X0135167Y0175510D01*
X0136421Y0173912D02*
X0164661Y0173912D01*
X0162743Y0172313D02*
X0138020Y0172313D01*
X0139619Y0170715D02*
X0160824Y0170715D01*
X0182667Y0145167D02*
X0187667Y0140167D01*
X0187667Y0132967D01*
X0187667Y0124358D02*
X0164358Y0124358D01*
X0162759Y0122759D02*
X0187667Y0122759D01*
X0187667Y0121161D02*
X0161161Y0121161D01*
X0159562Y0119562D02*
X0187667Y0119562D01*
X0187667Y0117964D02*
X0157964Y0117964D01*
X0194761Y0125956D02*
X0195572Y0125956D01*
X0204117Y0147667D02*
X0205167Y0147667D01*
X0240167Y0150167D02*
X0242567Y0150167D01*
X0242567Y0140167D02*
X0242667Y0140067D01*
X0227667Y0184867D02*
X0227667Y0189417D01*
X0230417Y0192167D01*
X0230417Y0194167D01*
X0230417Y0199167D02*
X0231217Y0199967D01*
X0231217Y0200967D01*
X0224917Y0199167D02*
X0224917Y0204867D01*
X0224117Y0205667D01*
X0224117Y0205167D01*
X0221617Y0202667D01*
X0224917Y0194167D02*
X0224917Y0192417D01*
X0222667Y0190167D01*
X0222667Y0184867D01*
X0227667Y0217667D02*
X0188167Y0217667D01*
X0188167Y0265167D01*
X0210167Y0265167D01*
X0227667Y0247667D01*
X0227667Y0217667D01*
X0227667Y0218670D02*
X0188167Y0218670D01*
X0188167Y0220269D02*
X0227667Y0220269D01*
X0227667Y0221867D02*
X0188167Y0221867D01*
X0188167Y0223466D02*
X0227667Y0223466D01*
X0227667Y0225064D02*
X0188167Y0225064D01*
X0188167Y0226663D02*
X0227667Y0226663D01*
X0227667Y0228261D02*
X0188167Y0228261D01*
X0188167Y0229860D02*
X0227667Y0229860D01*
X0227667Y0231458D02*
X0188167Y0231458D01*
X0188167Y0233057D02*
X0227667Y0233057D01*
X0227667Y0234655D02*
X0188167Y0234655D01*
X0188167Y0236254D02*
X0227667Y0236254D01*
X0227667Y0237852D02*
X0188167Y0237852D01*
X0188167Y0239451D02*
X0227667Y0239451D01*
X0227667Y0241049D02*
X0188167Y0241049D01*
X0188167Y0242648D02*
X0227667Y0242648D01*
X0227667Y0244246D02*
X0188167Y0244246D01*
X0188167Y0245845D02*
X0227667Y0245845D01*
X0227667Y0247443D02*
X0188167Y0247443D01*
X0188167Y0249042D02*
X0226291Y0249042D01*
X0224693Y0250640D02*
X0188167Y0250640D01*
X0188167Y0252239D02*
X0223094Y0252239D01*
X0221496Y0253837D02*
X0188167Y0253837D01*
X0188167Y0255436D02*
X0219897Y0255436D01*
X0218299Y0257034D02*
X0188167Y0257034D01*
X0188167Y0258633D02*
X0216700Y0258633D01*
X0215102Y0260231D02*
X0188167Y0260231D01*
X0188167Y0261830D02*
X0213503Y0261830D01*
X0211905Y0263428D02*
X0188167Y0263428D01*
X0188167Y0265027D02*
X0210306Y0265027D01*
X0212371Y0266639D02*
X0211639Y0267371D01*
X0210684Y0267767D01*
X0200067Y0267767D01*
X0197667Y0270167D01*
X0197667Y0283727D01*
X0198052Y0284112D01*
X0198478Y0285141D01*
X0198478Y0285978D01*
X0202667Y0290167D01*
X0236752Y0290167D01*
X0237702Y0289217D01*
X0242631Y0289217D01*
X0243165Y0289751D01*
X0257667Y0277667D01*
X0257667Y0245167D01*
X0256217Y0243717D01*
X0256217Y0244029D01*
X0248279Y0251967D01*
X0237054Y0251967D01*
X0230267Y0245179D01*
X0230267Y0248184D01*
X0229871Y0249139D01*
X0212371Y0266639D01*
X0212385Y0266625D02*
X0257667Y0266625D01*
X0257667Y0265027D02*
X0213983Y0265027D01*
X0215582Y0263428D02*
X0257667Y0263428D01*
X0257667Y0261830D02*
X0217180Y0261830D01*
X0218779Y0260231D02*
X0257667Y0260231D01*
X0257667Y0258633D02*
X0220377Y0258633D01*
X0221976Y0257034D02*
X0257667Y0257034D01*
X0257667Y0255436D02*
X0223574Y0255436D01*
X0225173Y0253837D02*
X0257667Y0253837D01*
X0257667Y0252239D02*
X0226771Y0252239D01*
X0228370Y0250640D02*
X0235728Y0250640D01*
X0234129Y0249042D02*
X0229911Y0249042D01*
X0230267Y0247443D02*
X0232531Y0247443D01*
X0230932Y0245845D02*
X0230267Y0245845D01*
X0249606Y0250640D02*
X0257667Y0250640D01*
X0257667Y0249042D02*
X0251204Y0249042D01*
X0252803Y0247443D02*
X0257667Y0247443D01*
X0257667Y0245845D02*
X0254401Y0245845D01*
X0256000Y0244246D02*
X0256746Y0244246D01*
X0257667Y0268224D02*
X0199609Y0268224D01*
X0198011Y0269823D02*
X0257667Y0269823D01*
X0257667Y0271421D02*
X0197667Y0271421D01*
X0197667Y0273020D02*
X0257667Y0273020D01*
X0257667Y0274618D02*
X0197667Y0274618D01*
X0197667Y0276217D02*
X0257667Y0276217D01*
X0257489Y0277815D02*
X0197667Y0277815D01*
X0197667Y0279414D02*
X0255570Y0279414D01*
X0253652Y0281012D02*
X0197667Y0281012D01*
X0197667Y0282611D02*
X0251734Y0282611D01*
X0249816Y0284209D02*
X0198092Y0284209D01*
X0198478Y0285808D02*
X0247897Y0285808D01*
X0245979Y0287406D02*
X0199906Y0287406D01*
X0201505Y0289005D02*
X0244061Y0289005D01*
X0182667Y0282667D02*
X0182667Y0277967D01*
X0182667Y0282667D02*
X0180167Y0285167D01*
X0180167Y0287667D01*
X0177667Y0290167D01*
X0183708Y0266625D02*
X0159125Y0266625D01*
X0135027Y0265027D02*
X0185167Y0265027D01*
X0184219Y0263428D02*
X0133428Y0263428D01*
X0132667Y0261830D02*
X0183667Y0261830D01*
X0183667Y0260231D02*
X0132667Y0260231D01*
X0132667Y0258633D02*
X0183667Y0258633D01*
X0183667Y0257034D02*
X0132667Y0257034D01*
X0132667Y0255436D02*
X0183667Y0255436D01*
X0183667Y0253837D02*
X0132667Y0253837D01*
X0132667Y0252239D02*
X0183758Y0252239D01*
X0184887Y0250640D02*
X0132667Y0250640D01*
X0132667Y0249042D02*
X0185167Y0249042D01*
X0185167Y0247443D02*
X0132667Y0247443D01*
X0132667Y0245845D02*
X0185167Y0245845D01*
X0185167Y0244246D02*
X0132667Y0244246D01*
X0132667Y0242648D02*
X0185167Y0242648D01*
X0062356Y0113168D02*
X0060701Y0113168D01*
X0061363Y0111570D02*
X0061848Y0111570D01*
X0061579Y0114767D02*
X0059269Y0114767D01*
X0061202Y0108373D02*
X0061284Y0108373D01*
X0061759Y0106774D02*
X0060477Y0106774D01*
X0058774Y0105176D02*
X0062790Y0105176D01*
X0082243Y0092388D02*
X0105167Y0092388D01*
X0105167Y0090789D02*
X0083196Y0090789D01*
X0083616Y0089191D02*
X0105167Y0089191D01*
X0105167Y0087592D02*
X0083616Y0087592D01*
X0082998Y0085994D02*
X0105167Y0085994D01*
X0105167Y0084395D02*
X0082361Y0084395D01*
X0083245Y0082797D02*
X0105167Y0082797D01*
X0105167Y0081198D02*
X0083616Y0081198D01*
X0083611Y0079600D02*
X0105167Y0079600D01*
X0105167Y0078001D02*
X0082949Y0078001D01*
X0081645Y0076403D02*
X0105167Y0076403D01*
X0105167Y0071607D02*
X0015167Y0071607D01*
X0015167Y0070009D02*
X0105167Y0070009D01*
X0105167Y0068410D02*
X0015167Y0068410D01*
X0015167Y0066812D02*
X0105167Y0066812D01*
X0105167Y0065213D02*
X0080813Y0065213D01*
X0082896Y0063615D02*
X0105167Y0063615D01*
X0105167Y0062016D02*
X0084494Y0062016D01*
X0085267Y0060418D02*
X0105167Y0060418D01*
X0105167Y0058819D02*
X0085267Y0058819D01*
X0085267Y0057221D02*
X0105167Y0057221D01*
X0105167Y0055622D02*
X0085267Y0055622D01*
X0085267Y0054023D02*
X0105167Y0054023D01*
X0105167Y0052425D02*
X0085267Y0052425D01*
X0085267Y0050826D02*
X0105167Y0050826D01*
X0105167Y0049228D02*
X0085267Y0049228D01*
X0085267Y0047629D02*
X0105167Y0047629D01*
X0105167Y0046031D02*
X0085267Y0046031D01*
X0085267Y0044432D02*
X0105167Y0044432D01*
X0105167Y0042834D02*
X0085267Y0042834D01*
X0085267Y0041235D02*
X0105167Y0041235D01*
X0105167Y0039637D02*
X0085267Y0039637D01*
X0085267Y0038038D02*
X0105167Y0038038D01*
X0105167Y0036440D02*
X0085267Y0036440D01*
X0085267Y0034841D02*
X0105167Y0034841D01*
X0105167Y0033243D02*
X0085267Y0033243D01*
X0085267Y0031644D02*
X0105167Y0031644D01*
X0105167Y0030046D02*
X0085267Y0030046D01*
X0085267Y0028447D02*
X0105167Y0028447D01*
X0105167Y0026849D02*
X0085142Y0026849D01*
X0083927Y0025250D02*
X0103042Y0025250D01*
X0082667Y0027667D02*
X0080167Y0025167D01*
X0062667Y0025167D01*
X0060167Y0027667D01*
X0060167Y0035167D01*
X0057667Y0037667D01*
X0047667Y0037667D01*
X0045284Y0040049D01*
X0045753Y0040243D01*
X0046540Y0041031D01*
X0046967Y0042060D01*
X0046967Y0061967D01*
X0047667Y0062667D01*
X0080167Y0062667D01*
X0082667Y0060167D01*
X0082667Y0027667D01*
X0082667Y0028447D02*
X0060167Y0028447D01*
X0060167Y0030046D02*
X0082667Y0030046D01*
X0082667Y0031644D02*
X0060167Y0031644D01*
X0060167Y0033243D02*
X0082667Y0033243D01*
X0082667Y0034841D02*
X0060167Y0034841D01*
X0058893Y0036440D02*
X0082667Y0036440D01*
X0082667Y0038038D02*
X0047295Y0038038D01*
X0045696Y0039637D02*
X0082667Y0039637D01*
X0082667Y0041235D02*
X0046625Y0041235D01*
X0046967Y0042834D02*
X0082667Y0042834D01*
X0082667Y0044432D02*
X0046967Y0044432D01*
X0046967Y0046031D02*
X0082667Y0046031D01*
X0082667Y0047629D02*
X0046967Y0047629D01*
X0046967Y0049228D02*
X0082667Y0049228D01*
X0082667Y0050826D02*
X0046967Y0050826D01*
X0046967Y0052425D02*
X0082667Y0052425D01*
X0082667Y0054023D02*
X0046967Y0054023D01*
X0046967Y0055622D02*
X0082667Y0055622D01*
X0082667Y0057221D02*
X0046967Y0057221D01*
X0046967Y0058819D02*
X0082667Y0058819D01*
X0082416Y0060418D02*
X0046967Y0060418D01*
X0047016Y0062016D02*
X0080817Y0062016D01*
X0074082Y0076403D02*
X0070818Y0076403D01*
X0072122Y0078001D02*
X0072778Y0078001D01*
X0047020Y0065213D02*
X0015167Y0065213D01*
X0015167Y0063615D02*
X0044938Y0063615D01*
X0043339Y0062016D02*
X0015167Y0062016D01*
X0015167Y0060418D02*
X0042567Y0060418D01*
X0042567Y0058819D02*
X0015167Y0058819D01*
X0015167Y0057221D02*
X0042567Y0057221D01*
X0042567Y0055622D02*
X0015167Y0055622D01*
X0015167Y0054023D02*
X0042567Y0054023D01*
X0042567Y0052425D02*
X0015167Y0052425D01*
X0015167Y0050826D02*
X0042567Y0050826D01*
X0042567Y0049228D02*
X0015167Y0049228D01*
X0015167Y0047629D02*
X0042567Y0047629D01*
X0042567Y0046031D02*
X0015167Y0046031D01*
X0015167Y0044432D02*
X0042567Y0044432D01*
X0042567Y0042834D02*
X0015167Y0042834D01*
X0015167Y0041235D02*
X0042567Y0041235D01*
X0042572Y0039637D02*
X0015167Y0039637D01*
X0015167Y0038038D02*
X0043618Y0038038D01*
X0045216Y0036440D02*
X0015167Y0036440D01*
X0015167Y0034841D02*
X0016427Y0034841D01*
X0023907Y0034841D02*
X0056815Y0034841D01*
X0057567Y0033243D02*
X0025505Y0033243D01*
X0026117Y0031644D02*
X0057567Y0031644D01*
X0057567Y0030046D02*
X0026117Y0030046D01*
X0026117Y0028447D02*
X0057567Y0028447D01*
X0057691Y0026849D02*
X0025263Y0026849D01*
X0025775Y0025250D02*
X0058906Y0025250D01*
X0060985Y0026849D02*
X0081849Y0026849D01*
X0080250Y0025250D02*
X0062583Y0025250D01*
X0016230Y0089191D02*
X0015167Y0089191D01*
X0135167Y0047629D02*
X0174217Y0047629D01*
X0172618Y0046031D02*
X0135167Y0046031D01*
X0135167Y0044432D02*
X0171020Y0044432D01*
X0169421Y0042834D02*
X0135167Y0042834D01*
X0135167Y0041235D02*
X0167823Y0041235D01*
X0167367Y0039637D02*
X0135167Y0039637D01*
X0135167Y0038038D02*
X0167367Y0038038D01*
X0167367Y0036440D02*
X0135167Y0036440D01*
X0135167Y0034841D02*
X0167367Y0034841D01*
X0167367Y0033243D02*
X0135167Y0033243D01*
X0135167Y0031644D02*
X0167367Y0031644D01*
X0167367Y0030046D02*
X0135167Y0030046D01*
X0135167Y0028447D02*
X0167667Y0028447D01*
X0166440Y0026849D02*
X0135985Y0026849D01*
X0137583Y0025250D02*
X0164042Y0025250D01*
X0161644Y0023652D02*
X0139182Y0023652D01*
X0015970Y0239451D02*
X0015167Y0239451D01*
X0015167Y0265027D02*
X0016614Y0265027D01*
X0015167Y0279414D02*
X0040005Y0279414D01*
X0039217Y0281012D02*
X0015167Y0281012D01*
X0015167Y0282611D02*
X0039217Y0282611D01*
X0039217Y0284209D02*
X0015167Y0284209D01*
X0015167Y0285808D02*
X0039893Y0285808D01*
X0041492Y0287406D02*
X0015167Y0287406D01*
D32*
X0185167Y0157467D02*
X0210367Y0157467D01*
X0212667Y0155167D01*
X0230167Y0155167D01*
X0232667Y0157667D01*
D33*
X0232667Y0165467D01*
D34*
X0255167Y0197667D02*
X0255167Y0207667D01*
X0255167Y0217667D01*
X0260167Y0222667D01*
X0260167Y0249417D01*
X0242667Y0266917D01*
M02*
