G75*
%MOIN*%
%OFA0B0*%
%FSLAX25Y25*%
%IPPOS*%
%LPD*%
%AMOC8*
5,1,8,0,0,1.08239X$1,22.5*
%
%ADD10C,0.05906*%
%ADD11C,0.06000*%
%ADD12OC8,0.06300*%
%ADD13OC8,0.09450*%
%ADD14OC8,0.21500*%
%ADD15OC8,0.07600*%
%ADD16C,0.01600*%
%ADD17C,0.04100*%
%ADD18C,0.02400*%
D10*
X0067037Y0030167D03*
X0067037Y0037214D03*
X0067037Y0044261D03*
X0067037Y0051308D03*
X0067037Y0058356D03*
X0077864Y0058356D03*
X0077864Y0051308D03*
X0077864Y0044261D03*
X0077864Y0037214D03*
X0077864Y0030167D03*
X0077864Y0080757D03*
X0077864Y0088631D03*
X0077864Y0096505D03*
X0067037Y0096505D03*
X0067037Y0088631D03*
X0067037Y0080757D03*
X0067037Y0109064D03*
X0067037Y0116623D03*
X0067037Y0124182D03*
X0067037Y0131741D03*
X0067037Y0139301D03*
X0067037Y0146860D03*
X0077864Y0146860D03*
X0077864Y0139301D03*
X0077864Y0131741D03*
X0077864Y0124182D03*
X0077864Y0116623D03*
X0077864Y0109064D03*
X0077864Y0177667D03*
X0077864Y0184714D03*
X0077864Y0191761D03*
X0077864Y0198808D03*
X0077864Y0205856D03*
X0067037Y0205856D03*
X0067037Y0198808D03*
X0067037Y0191761D03*
X0067037Y0184714D03*
X0067037Y0177667D03*
X0067037Y0228257D03*
X0067037Y0236131D03*
X0067037Y0244005D03*
X0077864Y0244005D03*
X0077864Y0236131D03*
X0077864Y0228257D03*
X0077864Y0256564D03*
X0077864Y0264123D03*
X0077864Y0271682D03*
X0077864Y0279241D03*
X0077864Y0286801D03*
X0077864Y0294360D03*
X0067037Y0294360D03*
X0067037Y0286801D03*
X0067037Y0279241D03*
X0067037Y0271682D03*
X0067037Y0264123D03*
X0067037Y0256564D03*
X0141840Y0255383D03*
X0141840Y0262745D03*
X0141840Y0272155D03*
X0141840Y0279517D03*
X0141840Y0286879D03*
X0141840Y0294241D03*
X0152667Y0294241D03*
X0152667Y0286879D03*
X0152667Y0279517D03*
X0152667Y0272155D03*
X0152667Y0262745D03*
X0152667Y0255383D03*
X0152667Y0248021D03*
X0152667Y0240659D03*
X0152667Y0231249D03*
X0152667Y0223887D03*
X0152667Y0216525D03*
X0152667Y0209163D03*
X0152667Y0199753D03*
X0152667Y0192391D03*
X0152667Y0185029D03*
X0152667Y0177667D03*
X0141840Y0177667D03*
X0141840Y0185029D03*
X0141840Y0192391D03*
X0141840Y0199753D03*
X0141840Y0209163D03*
X0141840Y0216525D03*
X0141840Y0223887D03*
X0141840Y0231249D03*
X0141840Y0240659D03*
X0141840Y0248021D03*
X0141840Y0146741D03*
X0141840Y0139379D03*
X0141840Y0132017D03*
X0141840Y0124655D03*
X0141840Y0115245D03*
X0141840Y0107883D03*
X0141840Y0100521D03*
X0141840Y0093159D03*
X0141840Y0083749D03*
X0141840Y0076387D03*
X0141840Y0069025D03*
X0141840Y0061663D03*
X0141840Y0052253D03*
X0141840Y0044891D03*
X0141840Y0037529D03*
X0141840Y0030167D03*
X0152667Y0030167D03*
X0152667Y0037529D03*
X0152667Y0044891D03*
X0152667Y0052253D03*
X0152667Y0061663D03*
X0152667Y0069025D03*
X0152667Y0076387D03*
X0152667Y0083749D03*
X0152667Y0093159D03*
X0152667Y0100521D03*
X0152667Y0107883D03*
X0152667Y0115245D03*
X0152667Y0124655D03*
X0152667Y0132017D03*
X0152667Y0139379D03*
X0152667Y0146741D03*
D11*
X0242667Y0130667D02*
X0242667Y0124667D01*
X0242667Y0120667D02*
X0242667Y0114667D01*
X0242667Y0110667D02*
X0242667Y0104667D01*
X0252667Y0104667D02*
X0252667Y0110667D01*
X0252667Y0114667D02*
X0252667Y0120667D01*
X0252667Y0124667D02*
X0252667Y0130667D01*
X0255167Y0194667D02*
X0255167Y0200667D01*
X0255167Y0204667D02*
X0255167Y0210667D01*
X0255167Y0214667D02*
X0255167Y0220667D01*
X0245167Y0220667D02*
X0245167Y0214667D01*
X0245167Y0210667D02*
X0245167Y0204667D01*
X0245167Y0200667D02*
X0245167Y0194667D01*
X0055667Y0110167D02*
X0049667Y0110167D01*
X0049667Y0100167D02*
X0055667Y0100167D01*
X0055667Y0090167D02*
X0049667Y0090167D01*
X0049667Y0080167D02*
X0055667Y0080167D01*
X0053167Y0222667D02*
X0047167Y0222667D01*
X0047167Y0232667D02*
X0053167Y0232667D01*
X0053167Y0242667D02*
X0047167Y0242667D01*
X0047167Y0252667D02*
X0053167Y0252667D01*
D12*
X0045167Y0272667D03*
X0045167Y0282667D03*
X0240167Y0285167D03*
X0240167Y0295167D03*
X0247667Y0082667D03*
X0247667Y0072667D03*
X0020167Y0040167D03*
X0020167Y0030167D03*
D13*
X0205967Y0226167D03*
X0219367Y0226167D03*
X0219367Y0279167D03*
X0205967Y0279167D03*
X0210967Y0119167D03*
X0224367Y0119167D03*
X0224367Y0066167D03*
X0210967Y0066167D03*
D14*
X0209417Y0035167D03*
X0180917Y0035167D03*
X0022667Y0073417D03*
X0022667Y0101917D03*
X0022667Y0223417D03*
X0022667Y0251917D03*
X0242667Y0238417D03*
X0242667Y0266917D03*
D15*
X0177667Y0290167D03*
X0182667Y0145167D03*
D16*
X0015167Y0036752D02*
X0015167Y0027500D01*
X0017282Y0028067D01*
X0020020Y0028067D01*
X0022665Y0027358D01*
X0025037Y0025989D01*
X0026973Y0024052D01*
X0028342Y0021681D01*
X0028748Y0020167D01*
X0100070Y0020167D01*
X0100475Y0021681D01*
X0101845Y0024052D01*
X0103781Y0025989D01*
X0105167Y0026789D01*
X0105167Y0153545D01*
X0103781Y0154345D01*
X0101845Y0156281D01*
X0100475Y0158652D01*
X0099767Y0161297D01*
X0099767Y0164036D01*
X0100475Y0166681D01*
X0101845Y0169052D01*
X0103781Y0170989D01*
X0105167Y0171789D01*
X0105167Y0298545D01*
X0103781Y0299345D01*
X0102959Y0300167D01*
X0024874Y0300167D01*
X0024052Y0299345D01*
X0021681Y0297975D01*
X0019036Y0297267D01*
X0016297Y0297267D01*
X0015167Y0297570D01*
X0015167Y0235079D01*
X0017054Y0236967D01*
X0028279Y0236967D01*
X0036217Y0229029D01*
X0036217Y0217804D01*
X0028279Y0209867D01*
X0017054Y0209867D01*
X0015167Y0211754D01*
X0015167Y0172764D01*
X0016297Y0173067D01*
X0019036Y0173067D01*
X0021681Y0172358D01*
X0024052Y0170989D01*
X0025989Y0169052D01*
X0027358Y0166681D01*
X0028067Y0164036D01*
X0028067Y0161297D01*
X0027358Y0158652D01*
X0025989Y0156281D01*
X0024052Y0154345D01*
X0021681Y0152975D01*
X0019036Y0152267D01*
X0016297Y0152267D01*
X0015167Y0152570D01*
X0015167Y0085079D01*
X0017054Y0086967D01*
X0028279Y0086967D01*
X0036217Y0079029D01*
X0036217Y0067804D01*
X0028279Y0059867D01*
X0017054Y0059867D01*
X0015167Y0061754D01*
X0015167Y0043581D01*
X0017702Y0046117D01*
X0022631Y0046117D01*
X0026117Y0042631D01*
X0026117Y0037702D01*
X0022631Y0034217D01*
X0017702Y0034217D01*
X0015167Y0036752D01*
X0015167Y0036440D02*
X0015479Y0036440D01*
X0015167Y0034841D02*
X0017077Y0034841D01*
X0015167Y0033243D02*
X0062084Y0033243D01*
X0062160Y0033425D02*
X0061284Y0031311D01*
X0061284Y0029022D01*
X0062160Y0026908D01*
X0063778Y0025290D01*
X0065892Y0024414D01*
X0068181Y0024414D01*
X0070295Y0025290D01*
X0071914Y0026908D01*
X0072450Y0028203D01*
X0072987Y0026908D01*
X0074605Y0025290D01*
X0076719Y0024414D01*
X0079008Y0024414D01*
X0081122Y0025290D01*
X0082740Y0026908D01*
X0083616Y0029022D01*
X0083616Y0031311D01*
X0082740Y0033425D01*
X0082475Y0033690D01*
X0082740Y0033955D01*
X0083616Y0036070D01*
X0083616Y0038358D01*
X0082740Y0040473D01*
X0082475Y0040738D01*
X0082740Y0041002D01*
X0083616Y0043117D01*
X0083616Y0045405D01*
X0082740Y0047520D01*
X0082475Y0047785D01*
X0082740Y0048050D01*
X0083616Y0050164D01*
X0083616Y0052453D01*
X0082740Y0054567D01*
X0082475Y0054832D01*
X0082740Y0055097D01*
X0083616Y0057211D01*
X0083616Y0059500D01*
X0082740Y0061614D01*
X0081122Y0063233D01*
X0079008Y0064108D01*
X0076719Y0064108D01*
X0074605Y0063233D01*
X0072987Y0061614D01*
X0072450Y0060319D01*
X0071914Y0061614D01*
X0070295Y0063233D01*
X0068181Y0064108D01*
X0065892Y0064108D01*
X0063778Y0063233D01*
X0062160Y0061614D01*
X0061284Y0059500D01*
X0061284Y0057211D01*
X0062160Y0055097D01*
X0062425Y0054832D01*
X0062160Y0054567D01*
X0061284Y0052453D01*
X0061284Y0050164D01*
X0062160Y0048050D01*
X0062425Y0047785D01*
X0062160Y0047520D01*
X0061284Y0045405D01*
X0061284Y0043117D01*
X0062160Y0041002D01*
X0062425Y0040738D01*
X0062160Y0040473D01*
X0061284Y0038358D01*
X0061284Y0036070D01*
X0062160Y0033955D01*
X0062425Y0033690D01*
X0062160Y0033425D01*
X0061793Y0034841D02*
X0023256Y0034841D01*
X0024854Y0036440D02*
X0061284Y0036440D01*
X0061284Y0038038D02*
X0026117Y0038038D01*
X0026117Y0039637D02*
X0061814Y0039637D01*
X0062063Y0041235D02*
X0026117Y0041235D01*
X0025914Y0042834D02*
X0061401Y0042834D01*
X0061284Y0044432D02*
X0024315Y0044432D01*
X0022717Y0046031D02*
X0061543Y0046031D01*
X0062269Y0047629D02*
X0015167Y0047629D01*
X0015167Y0046031D02*
X0017616Y0046031D01*
X0016018Y0044432D02*
X0015167Y0044432D01*
X0015167Y0049228D02*
X0061672Y0049228D01*
X0061284Y0050826D02*
X0015167Y0050826D01*
X0015167Y0052425D02*
X0061284Y0052425D01*
X0061935Y0054023D02*
X0015167Y0054023D01*
X0015167Y0055622D02*
X0061942Y0055622D01*
X0061284Y0057221D02*
X0015167Y0057221D01*
X0015167Y0058819D02*
X0061284Y0058819D01*
X0061664Y0060418D02*
X0028830Y0060418D01*
X0030429Y0062016D02*
X0062562Y0062016D01*
X0064700Y0063615D02*
X0032027Y0063615D01*
X0033626Y0065213D02*
X0105167Y0065213D01*
X0105167Y0063615D02*
X0080200Y0063615D01*
X0082339Y0062016D02*
X0105167Y0062016D01*
X0105167Y0060418D02*
X0083236Y0060418D01*
X0083616Y0058819D02*
X0105167Y0058819D01*
X0105167Y0057221D02*
X0083616Y0057221D01*
X0082958Y0055622D02*
X0105167Y0055622D01*
X0105167Y0054023D02*
X0082966Y0054023D01*
X0083616Y0052425D02*
X0105167Y0052425D01*
X0105167Y0050826D02*
X0083616Y0050826D01*
X0083228Y0049228D02*
X0105167Y0049228D01*
X0105167Y0047629D02*
X0082631Y0047629D01*
X0083357Y0046031D02*
X0105167Y0046031D01*
X0105167Y0044432D02*
X0083616Y0044432D01*
X0083499Y0042834D02*
X0105167Y0042834D01*
X0105167Y0041235D02*
X0082837Y0041235D01*
X0083087Y0039637D02*
X0105167Y0039637D01*
X0105167Y0038038D02*
X0083616Y0038038D01*
X0083616Y0036440D02*
X0105167Y0036440D01*
X0105167Y0034841D02*
X0083107Y0034841D01*
X0082816Y0033243D02*
X0105167Y0033243D01*
X0105167Y0031644D02*
X0083478Y0031644D01*
X0083616Y0030046D02*
X0105167Y0030046D01*
X0105167Y0028447D02*
X0083378Y0028447D01*
X0082681Y0026849D02*
X0105167Y0026849D01*
X0103042Y0025250D02*
X0081027Y0025250D01*
X0074700Y0025250D02*
X0070200Y0025250D01*
X0071854Y0026849D02*
X0073046Y0026849D01*
X0063873Y0025250D02*
X0025775Y0025250D01*
X0027204Y0023652D02*
X0101613Y0023652D01*
X0100690Y0022053D02*
X0028127Y0022053D01*
X0028671Y0020455D02*
X0100147Y0020455D01*
X0072491Y0060418D02*
X0072409Y0060418D01*
X0071512Y0062016D02*
X0073388Y0062016D01*
X0075527Y0063615D02*
X0069373Y0063615D01*
X0068181Y0075004D02*
X0065892Y0075004D01*
X0063778Y0075880D01*
X0062160Y0077499D01*
X0062132Y0077567D01*
X0060868Y0077567D01*
X0060584Y0076881D01*
X0058952Y0075250D01*
X0056820Y0074367D01*
X0048513Y0074367D01*
X0046381Y0075250D01*
X0044750Y0076881D01*
X0043867Y0079013D01*
X0043867Y0081320D01*
X0044750Y0083452D01*
X0046381Y0085084D01*
X0046582Y0085167D01*
X0046381Y0085250D01*
X0044750Y0086881D01*
X0043867Y0089013D01*
X0043867Y0091320D01*
X0044750Y0093452D01*
X0046381Y0095084D01*
X0046582Y0095167D01*
X0046381Y0095250D01*
X0044750Y0096881D01*
X0043867Y0099013D01*
X0043867Y0101320D01*
X0044750Y0103452D01*
X0046381Y0105084D01*
X0046582Y0105167D01*
X0046381Y0105250D01*
X0044750Y0106881D01*
X0043867Y0109013D01*
X0043867Y0111320D01*
X0044750Y0113452D01*
X0046381Y0115084D01*
X0048513Y0115967D01*
X0056820Y0115967D01*
X0058952Y0115084D01*
X0060584Y0113452D01*
X0061467Y0111320D01*
X0061467Y0109013D01*
X0060584Y0106881D01*
X0058952Y0105250D01*
X0058752Y0105167D01*
X0058952Y0105084D01*
X0060584Y0103452D01*
X0060868Y0102767D01*
X0063892Y0102767D01*
X0064848Y0102371D01*
X0065234Y0101985D01*
X0065892Y0102258D01*
X0068181Y0102258D01*
X0070295Y0101382D01*
X0071914Y0099764D01*
X0072187Y0099105D01*
X0072714Y0099105D01*
X0072987Y0099764D01*
X0074605Y0101382D01*
X0076719Y0102258D01*
X0079008Y0102258D01*
X0081122Y0101382D01*
X0082740Y0099764D01*
X0083616Y0097650D01*
X0083616Y0095361D01*
X0082740Y0093247D01*
X0082062Y0092568D01*
X0082740Y0091890D01*
X0083616Y0089776D01*
X0083616Y0087487D01*
X0082740Y0085373D01*
X0082062Y0084694D01*
X0082740Y0084016D01*
X0083616Y0081902D01*
X0083616Y0079613D01*
X0082740Y0077499D01*
X0081122Y0075880D01*
X0079008Y0075004D01*
X0076719Y0075004D01*
X0074605Y0075880D01*
X0072987Y0077499D01*
X0072714Y0078157D01*
X0072187Y0078157D01*
X0071914Y0077499D01*
X0070295Y0075880D01*
X0068181Y0075004D01*
X0070818Y0076403D02*
X0074082Y0076403D01*
X0072778Y0078001D02*
X0072122Y0078001D01*
X0067037Y0080167D02*
X0067037Y0080757D01*
X0077864Y0080757D01*
X0083245Y0082797D02*
X0105167Y0082797D01*
X0105167Y0084395D02*
X0082361Y0084395D01*
X0082998Y0085994D02*
X0105167Y0085994D01*
X0105167Y0087592D02*
X0083616Y0087592D01*
X0083616Y0089191D02*
X0105167Y0089191D01*
X0105167Y0090789D02*
X0083196Y0090789D01*
X0082243Y0092388D02*
X0105167Y0092388D01*
X0105167Y0093986D02*
X0083047Y0093986D01*
X0083616Y0095585D02*
X0105167Y0095585D01*
X0105167Y0097183D02*
X0083616Y0097183D01*
X0083147Y0098782D02*
X0105167Y0098782D01*
X0105167Y0100380D02*
X0082124Y0100380D01*
X0079682Y0101979D02*
X0105167Y0101979D01*
X0105167Y0103577D02*
X0060458Y0103577D01*
X0058774Y0105176D02*
X0105167Y0105176D01*
X0105167Y0106774D02*
X0060477Y0106774D01*
X0061202Y0108373D02*
X0105167Y0108373D01*
X0105167Y0109971D02*
X0061467Y0109971D01*
X0061363Y0111570D02*
X0105167Y0111570D01*
X0105167Y0113168D02*
X0060701Y0113168D01*
X0059269Y0114767D02*
X0105167Y0114767D01*
X0105167Y0116365D02*
X0015167Y0116365D01*
X0015167Y0114767D02*
X0046064Y0114767D01*
X0044632Y0113168D02*
X0015167Y0113168D01*
X0015167Y0111570D02*
X0043970Y0111570D01*
X0043867Y0109971D02*
X0015167Y0109971D01*
X0015167Y0108373D02*
X0044132Y0108373D01*
X0044857Y0106774D02*
X0015167Y0106774D01*
X0015167Y0105176D02*
X0046559Y0105176D01*
X0044875Y0103577D02*
X0015167Y0103577D01*
X0015167Y0101979D02*
X0044139Y0101979D01*
X0043867Y0100380D02*
X0015167Y0100380D01*
X0015167Y0098782D02*
X0043962Y0098782D01*
X0044625Y0097183D02*
X0015167Y0097183D01*
X0015167Y0095585D02*
X0046046Y0095585D01*
X0045284Y0093986D02*
X0015167Y0093986D01*
X0015167Y0092388D02*
X0044309Y0092388D01*
X0043867Y0090789D02*
X0015167Y0090789D01*
X0015167Y0089191D02*
X0043867Y0089191D01*
X0044455Y0087592D02*
X0015167Y0087592D01*
X0015167Y0085994D02*
X0016081Y0085994D01*
X0029252Y0085994D02*
X0045637Y0085994D01*
X0045693Y0084395D02*
X0030851Y0084395D01*
X0032449Y0082797D02*
X0044478Y0082797D01*
X0043867Y0081198D02*
X0034048Y0081198D01*
X0035646Y0079600D02*
X0043867Y0079600D01*
X0044286Y0078001D02*
X0036217Y0078001D01*
X0036217Y0076403D02*
X0045228Y0076403D01*
X0047457Y0074804D02*
X0036217Y0074804D01*
X0036217Y0073206D02*
X0105167Y0073206D01*
X0105167Y0074804D02*
X0057877Y0074804D01*
X0060105Y0076403D02*
X0063256Y0076403D01*
X0067037Y0080167D02*
X0052667Y0080167D01*
X0052667Y0088631D02*
X0052667Y0090167D01*
X0052667Y0088631D02*
X0067037Y0088631D01*
X0077864Y0088631D01*
X0083616Y0081198D02*
X0105167Y0081198D01*
X0105167Y0079600D02*
X0083611Y0079600D01*
X0082949Y0078001D02*
X0105167Y0078001D01*
X0105167Y0076403D02*
X0081645Y0076403D01*
X0077864Y0096505D02*
X0067037Y0096505D01*
X0063375Y0100167D01*
X0052667Y0100167D01*
X0052667Y0110167D01*
X0068855Y0101979D02*
X0076045Y0101979D01*
X0073603Y0100380D02*
X0071297Y0100380D01*
X0105167Y0117964D02*
X0015167Y0117964D01*
X0015167Y0119562D02*
X0105167Y0119562D01*
X0105167Y0121161D02*
X0015167Y0121161D01*
X0015167Y0122759D02*
X0105167Y0122759D01*
X0105167Y0124358D02*
X0015167Y0124358D01*
X0015167Y0125956D02*
X0105167Y0125956D01*
X0105167Y0127555D02*
X0015167Y0127555D01*
X0015167Y0129154D02*
X0105167Y0129154D01*
X0105167Y0130752D02*
X0015167Y0130752D01*
X0015167Y0132351D02*
X0105167Y0132351D01*
X0105167Y0133949D02*
X0015167Y0133949D01*
X0015167Y0135548D02*
X0105167Y0135548D01*
X0105167Y0137146D02*
X0015167Y0137146D01*
X0015167Y0138745D02*
X0105167Y0138745D01*
X0105167Y0140343D02*
X0015167Y0140343D01*
X0015167Y0141942D02*
X0105167Y0141942D01*
X0105167Y0143540D02*
X0015167Y0143540D01*
X0015167Y0145139D02*
X0105167Y0145139D01*
X0105167Y0146737D02*
X0015167Y0146737D01*
X0015167Y0148336D02*
X0105167Y0148336D01*
X0105167Y0149934D02*
X0015167Y0149934D01*
X0015167Y0151533D02*
X0105167Y0151533D01*
X0105167Y0153131D02*
X0021951Y0153131D01*
X0024438Y0154730D02*
X0103396Y0154730D01*
X0101817Y0156328D02*
X0026016Y0156328D01*
X0026939Y0157927D02*
X0100894Y0157927D01*
X0100242Y0159525D02*
X0027592Y0159525D01*
X0028020Y0161124D02*
X0099813Y0161124D01*
X0099767Y0162722D02*
X0028067Y0162722D01*
X0027990Y0164321D02*
X0099843Y0164321D01*
X0100271Y0165919D02*
X0027562Y0165919D01*
X0026875Y0167518D02*
X0100959Y0167518D01*
X0101908Y0169116D02*
X0025925Y0169116D01*
X0024326Y0170715D02*
X0103507Y0170715D01*
X0105167Y0172313D02*
X0079972Y0172313D01*
X0079008Y0171914D02*
X0081122Y0172790D01*
X0082740Y0174408D01*
X0083616Y0176522D01*
X0083616Y0178811D01*
X0082740Y0180925D01*
X0082475Y0181190D01*
X0082740Y0181455D01*
X0083616Y0183570D01*
X0083616Y0185858D01*
X0082740Y0187973D01*
X0082475Y0188238D01*
X0082740Y0188502D01*
X0083616Y0190617D01*
X0083616Y0192905D01*
X0082740Y0195020D01*
X0082475Y0195285D01*
X0082740Y0195550D01*
X0083616Y0197664D01*
X0083616Y0199953D01*
X0082740Y0202067D01*
X0082475Y0202332D01*
X0082740Y0202597D01*
X0083616Y0204711D01*
X0083616Y0207000D01*
X0082740Y0209114D01*
X0081122Y0210733D01*
X0079008Y0211608D01*
X0076719Y0211608D01*
X0074605Y0210733D01*
X0072987Y0209114D01*
X0072450Y0207819D01*
X0071914Y0209114D01*
X0070295Y0210733D01*
X0068181Y0211608D01*
X0065892Y0211608D01*
X0063778Y0210733D01*
X0062160Y0209114D01*
X0061284Y0207000D01*
X0061284Y0204711D01*
X0062160Y0202597D01*
X0062425Y0202332D01*
X0062160Y0202067D01*
X0061284Y0199953D01*
X0061284Y0197664D01*
X0062160Y0195550D01*
X0062425Y0195285D01*
X0062160Y0195020D01*
X0061284Y0192905D01*
X0061284Y0190617D01*
X0062160Y0188502D01*
X0062425Y0188238D01*
X0062160Y0187973D01*
X0061284Y0185858D01*
X0061284Y0183570D01*
X0062160Y0181455D01*
X0062425Y0181190D01*
X0062160Y0180925D01*
X0061284Y0178811D01*
X0061284Y0176522D01*
X0062160Y0174408D01*
X0063778Y0172790D01*
X0065892Y0171914D01*
X0068181Y0171914D01*
X0070295Y0172790D01*
X0071914Y0174408D01*
X0072450Y0175703D01*
X0072987Y0174408D01*
X0074605Y0172790D01*
X0076719Y0171914D01*
X0079008Y0171914D01*
X0082244Y0173912D02*
X0105167Y0173912D01*
X0105167Y0175510D02*
X0083197Y0175510D01*
X0083616Y0177109D02*
X0105167Y0177109D01*
X0105167Y0178707D02*
X0083616Y0178707D01*
X0082997Y0180306D02*
X0105167Y0180306D01*
X0105167Y0181904D02*
X0082927Y0181904D01*
X0083589Y0183503D02*
X0105167Y0183503D01*
X0105167Y0185101D02*
X0083616Y0185101D01*
X0083268Y0186700D02*
X0105167Y0186700D01*
X0105167Y0188298D02*
X0082536Y0188298D01*
X0083318Y0189897D02*
X0105167Y0189897D01*
X0105167Y0191495D02*
X0083616Y0191495D01*
X0083538Y0193094D02*
X0105167Y0193094D01*
X0105167Y0194692D02*
X0082876Y0194692D01*
X0083047Y0196291D02*
X0105167Y0196291D01*
X0105167Y0197890D02*
X0083616Y0197890D01*
X0083616Y0199488D02*
X0105167Y0199488D01*
X0105167Y0201087D02*
X0083147Y0201087D01*
X0082777Y0202685D02*
X0105167Y0202685D01*
X0105167Y0204284D02*
X0083439Y0204284D01*
X0083616Y0205882D02*
X0105167Y0205882D01*
X0105167Y0207481D02*
X0083417Y0207481D01*
X0082755Y0209079D02*
X0105167Y0209079D01*
X0105167Y0210678D02*
X0081177Y0210678D01*
X0074550Y0210678D02*
X0070350Y0210678D01*
X0071928Y0209079D02*
X0072972Y0209079D01*
X0063723Y0210678D02*
X0029090Y0210678D01*
X0030689Y0212276D02*
X0105167Y0212276D01*
X0105167Y0213875D02*
X0032287Y0213875D01*
X0033886Y0215473D02*
X0105167Y0215473D01*
X0105167Y0217072D02*
X0054815Y0217072D01*
X0054320Y0216867D02*
X0056452Y0217750D01*
X0058084Y0219381D01*
X0058368Y0220067D01*
X0061963Y0220067D01*
X0062919Y0220462D01*
X0065234Y0222777D01*
X0065892Y0222504D01*
X0068181Y0222504D01*
X0070295Y0223380D01*
X0071914Y0224999D01*
X0072187Y0225657D01*
X0072714Y0225657D01*
X0072987Y0224999D01*
X0074605Y0223380D01*
X0076719Y0222504D01*
X0079008Y0222504D01*
X0081122Y0223380D01*
X0082740Y0224999D01*
X0083616Y0227113D01*
X0083616Y0229402D01*
X0082740Y0231516D01*
X0082062Y0232194D01*
X0082740Y0232873D01*
X0083616Y0234987D01*
X0083616Y0237276D01*
X0082740Y0239390D01*
X0082062Y0240068D01*
X0082740Y0240747D01*
X0083616Y0242861D01*
X0083616Y0245150D01*
X0082740Y0247264D01*
X0081122Y0248882D01*
X0079008Y0249758D01*
X0076719Y0249758D01*
X0074605Y0248882D01*
X0072987Y0247264D01*
X0072714Y0246605D01*
X0072187Y0246605D01*
X0071914Y0247264D01*
X0070295Y0248882D01*
X0068181Y0249758D01*
X0065892Y0249758D01*
X0063778Y0248882D01*
X0062160Y0247264D01*
X0061332Y0245267D01*
X0058368Y0245267D01*
X0058084Y0245952D01*
X0056452Y0247584D01*
X0056252Y0247667D01*
X0056452Y0247750D01*
X0058084Y0249381D01*
X0058967Y0251513D01*
X0058967Y0253820D01*
X0058084Y0255952D01*
X0056452Y0257584D01*
X0054320Y0258467D01*
X0046013Y0258467D01*
X0043881Y0257584D01*
X0042250Y0255952D01*
X0041367Y0253820D01*
X0041367Y0251513D01*
X0042250Y0249381D01*
X0043881Y0247750D01*
X0044082Y0247667D01*
X0043881Y0247584D01*
X0042250Y0245952D01*
X0041367Y0243820D01*
X0041367Y0241513D01*
X0042250Y0239381D01*
X0043881Y0237750D01*
X0044082Y0237667D01*
X0043881Y0237584D01*
X0042250Y0235952D01*
X0041367Y0233820D01*
X0041367Y0231513D01*
X0042250Y0229381D01*
X0043881Y0227750D01*
X0044082Y0227667D01*
X0043881Y0227584D01*
X0042250Y0225952D01*
X0041367Y0223820D01*
X0041367Y0221513D01*
X0042250Y0219381D01*
X0043881Y0217750D01*
X0046013Y0216867D01*
X0054320Y0216867D01*
X0057373Y0218670D02*
X0105167Y0218670D01*
X0105167Y0220269D02*
X0062451Y0220269D01*
X0064324Y0221867D02*
X0105167Y0221867D01*
X0105167Y0223466D02*
X0081208Y0223466D01*
X0082768Y0225064D02*
X0105167Y0225064D01*
X0105167Y0226663D02*
X0083430Y0226663D01*
X0083616Y0228261D02*
X0105167Y0228261D01*
X0105167Y0229860D02*
X0083426Y0229860D01*
X0082764Y0231458D02*
X0105167Y0231458D01*
X0105167Y0233057D02*
X0082817Y0233057D01*
X0083479Y0234655D02*
X0105167Y0234655D01*
X0105167Y0236254D02*
X0083616Y0236254D01*
X0083377Y0237852D02*
X0105167Y0237852D01*
X0105167Y0239451D02*
X0082680Y0239451D01*
X0082866Y0241049D02*
X0105167Y0241049D01*
X0105167Y0242648D02*
X0083528Y0242648D01*
X0083616Y0244246D02*
X0105167Y0244246D01*
X0105167Y0245845D02*
X0083328Y0245845D01*
X0082561Y0247443D02*
X0105167Y0247443D01*
X0105167Y0249042D02*
X0080737Y0249042D01*
X0074990Y0249042D02*
X0069910Y0249042D01*
X0071734Y0247443D02*
X0073166Y0247443D01*
X0077864Y0244005D02*
X0067037Y0244005D01*
X0065698Y0242667D01*
X0050167Y0242667D01*
X0050167Y0252667D01*
X0043332Y0257034D02*
X0015167Y0257034D01*
X0015167Y0255436D02*
X0042036Y0255436D01*
X0041374Y0253837D02*
X0015167Y0253837D01*
X0015167Y0252239D02*
X0041367Y0252239D01*
X0041728Y0250640D02*
X0015167Y0250640D01*
X0015167Y0249042D02*
X0042589Y0249042D01*
X0043741Y0247443D02*
X0015167Y0247443D01*
X0015167Y0245845D02*
X0042205Y0245845D01*
X0041543Y0244246D02*
X0015167Y0244246D01*
X0015167Y0242648D02*
X0041367Y0242648D01*
X0041559Y0241049D02*
X0015167Y0241049D01*
X0015167Y0239451D02*
X0042221Y0239451D01*
X0043779Y0237852D02*
X0015167Y0237852D01*
X0015167Y0236254D02*
X0016341Y0236254D01*
X0028992Y0236254D02*
X0042551Y0236254D01*
X0041713Y0234655D02*
X0030591Y0234655D01*
X0032189Y0233057D02*
X0041367Y0233057D01*
X0041389Y0231458D02*
X0033788Y0231458D01*
X0035386Y0229860D02*
X0042051Y0229860D01*
X0043370Y0228261D02*
X0036217Y0228261D01*
X0036217Y0226663D02*
X0042960Y0226663D01*
X0041882Y0225064D02*
X0036217Y0225064D01*
X0036217Y0223466D02*
X0041367Y0223466D01*
X0041367Y0221867D02*
X0036217Y0221867D01*
X0036217Y0220269D02*
X0041882Y0220269D01*
X0042961Y0218670D02*
X0036217Y0218670D01*
X0035484Y0217072D02*
X0045518Y0217072D01*
X0050167Y0222667D02*
X0061446Y0222667D01*
X0067037Y0228257D01*
X0077864Y0228257D01*
X0074519Y0223466D02*
X0070381Y0223466D01*
X0071941Y0225064D02*
X0072959Y0225064D01*
X0077864Y0236131D02*
X0067037Y0236131D01*
X0053631Y0236131D01*
X0050167Y0232667D01*
X0058128Y0245845D02*
X0061572Y0245845D01*
X0062339Y0247443D02*
X0056592Y0247443D01*
X0057744Y0249042D02*
X0064164Y0249042D01*
X0058967Y0252239D02*
X0105167Y0252239D01*
X0105167Y0253837D02*
X0058960Y0253837D01*
X0058297Y0255436D02*
X0105167Y0255436D01*
X0105167Y0257034D02*
X0057001Y0257034D01*
X0058605Y0250640D02*
X0105167Y0250640D01*
X0105167Y0258633D02*
X0015167Y0258633D01*
X0015167Y0260231D02*
X0105167Y0260231D01*
X0105167Y0261830D02*
X0015167Y0261830D01*
X0015167Y0263428D02*
X0105167Y0263428D01*
X0105167Y0265027D02*
X0015167Y0265027D01*
X0015167Y0266625D02*
X0105167Y0266625D01*
X0105167Y0268224D02*
X0049139Y0268224D01*
X0047631Y0266717D02*
X0051117Y0270202D01*
X0051117Y0275131D01*
X0047631Y0278617D01*
X0042702Y0278617D01*
X0039217Y0275131D01*
X0039217Y0270202D01*
X0042702Y0266717D01*
X0047631Y0266717D01*
X0050737Y0269823D02*
X0105167Y0269823D01*
X0105167Y0271421D02*
X0051117Y0271421D01*
X0051117Y0273020D02*
X0105167Y0273020D01*
X0105167Y0274618D02*
X0051117Y0274618D01*
X0050031Y0276217D02*
X0105167Y0276217D01*
X0105167Y0277815D02*
X0048433Y0277815D01*
X0041901Y0277815D02*
X0015167Y0277815D01*
X0015167Y0276217D02*
X0040302Y0276217D01*
X0039217Y0274618D02*
X0015167Y0274618D01*
X0015167Y0273020D02*
X0039217Y0273020D01*
X0039217Y0271421D02*
X0015167Y0271421D01*
X0015167Y0269823D02*
X0039596Y0269823D01*
X0041195Y0268224D02*
X0015167Y0268224D01*
X0015167Y0279414D02*
X0105167Y0279414D01*
X0105167Y0281012D02*
X0015167Y0281012D01*
X0015167Y0282611D02*
X0105167Y0282611D01*
X0105167Y0284209D02*
X0015167Y0284209D01*
X0015167Y0285808D02*
X0105167Y0285808D01*
X0105167Y0287406D02*
X0015167Y0287406D01*
X0015167Y0289005D02*
X0105167Y0289005D01*
X0105167Y0290603D02*
X0015167Y0290603D01*
X0015167Y0292202D02*
X0105167Y0292202D01*
X0105167Y0293800D02*
X0015167Y0293800D01*
X0015167Y0295399D02*
X0105167Y0295399D01*
X0105167Y0296997D02*
X0015167Y0296997D01*
X0022755Y0298596D02*
X0105078Y0298596D01*
X0137667Y0298596D02*
X0250078Y0298596D01*
X0251152Y0297975D02*
X0253797Y0297267D01*
X0256536Y0297267D01*
X0257667Y0297570D01*
X0257667Y0225909D01*
X0256320Y0226467D01*
X0254013Y0226467D01*
X0251881Y0225584D01*
X0250250Y0223952D01*
X0250167Y0223752D01*
X0250084Y0223952D01*
X0248452Y0225584D01*
X0246320Y0226467D01*
X0244013Y0226467D01*
X0241881Y0225584D01*
X0240250Y0223952D01*
X0239367Y0221820D01*
X0239367Y0215544D01*
X0229090Y0205267D01*
X0220229Y0205267D01*
X0219734Y0205761D01*
X0218393Y0206317D01*
X0216941Y0206317D01*
X0215599Y0205761D01*
X0214572Y0204734D01*
X0214017Y0203393D01*
X0214017Y0201941D01*
X0214572Y0200599D01*
X0215599Y0199572D01*
X0216941Y0199017D01*
X0218393Y0199017D01*
X0219734Y0199572D01*
X0220229Y0200067D01*
X0230684Y0200067D01*
X0231639Y0200462D01*
X0241404Y0210227D01*
X0241881Y0209750D01*
X0244013Y0208867D01*
X0246320Y0208867D01*
X0248452Y0209750D01*
X0249367Y0210664D01*
X0249367Y0203513D01*
X0249717Y0202667D01*
X0249367Y0201820D01*
X0249367Y0193513D01*
X0250250Y0191381D01*
X0251881Y0189750D01*
X0254013Y0188867D01*
X0256320Y0188867D01*
X0257667Y0189424D01*
X0257667Y0042667D01*
X0222667Y0017667D01*
X0137667Y0017667D01*
X0137667Y0026204D01*
X0138581Y0025290D01*
X0140696Y0024414D01*
X0142984Y0024414D01*
X0145099Y0025290D01*
X0146717Y0026908D01*
X0147253Y0028203D01*
X0147790Y0026908D01*
X0149408Y0025290D01*
X0151522Y0024414D01*
X0153811Y0024414D01*
X0155925Y0025290D01*
X0157544Y0026908D01*
X0158419Y0029022D01*
X0158419Y0031311D01*
X0157544Y0033425D01*
X0157121Y0033848D01*
X0157544Y0034270D01*
X0158419Y0036385D01*
X0158419Y0038673D01*
X0157544Y0040788D01*
X0157121Y0041210D01*
X0157544Y0041632D01*
X0158419Y0043747D01*
X0158419Y0046035D01*
X0157544Y0048150D01*
X0157121Y0048572D01*
X0157544Y0048995D01*
X0158419Y0051109D01*
X0158419Y0053398D01*
X0157544Y0055512D01*
X0155925Y0057130D01*
X0153811Y0058006D01*
X0151522Y0058006D01*
X0149408Y0057130D01*
X0147790Y0055512D01*
X0147253Y0054217D01*
X0146717Y0055512D01*
X0145099Y0057130D01*
X0142984Y0058006D01*
X0140696Y0058006D01*
X0138581Y0057130D01*
X0137667Y0056216D01*
X0137667Y0089196D01*
X0138581Y0088282D01*
X0140696Y0087406D01*
X0142984Y0087406D01*
X0145099Y0088282D01*
X0146717Y0089900D01*
X0147253Y0091195D01*
X0147790Y0089900D01*
X0149408Y0088282D01*
X0151522Y0087406D01*
X0153811Y0087406D01*
X0155925Y0088282D01*
X0157544Y0089900D01*
X0158419Y0092014D01*
X0158419Y0094303D01*
X0157544Y0096417D01*
X0157121Y0096840D01*
X0157544Y0097262D01*
X0158419Y0099377D01*
X0158419Y0101665D01*
X0157544Y0103780D01*
X0157121Y0104202D01*
X0157544Y0104625D01*
X0158419Y0106739D01*
X0158419Y0109027D01*
X0157544Y0111142D01*
X0157121Y0111564D01*
X0157544Y0111987D01*
X0158419Y0114101D01*
X0158419Y0116390D01*
X0157544Y0118504D01*
X0155925Y0120122D01*
X0153811Y0120998D01*
X0151522Y0120998D01*
X0149408Y0120122D01*
X0147790Y0118504D01*
X0147253Y0117209D01*
X0146717Y0118504D01*
X0145099Y0120122D01*
X0142984Y0120998D01*
X0140696Y0120998D01*
X0138581Y0120122D01*
X0137667Y0119208D01*
X0137667Y0173704D01*
X0138581Y0172790D01*
X0140696Y0171914D01*
X0142984Y0171914D01*
X0145099Y0172790D01*
X0146717Y0174408D01*
X0147253Y0175703D01*
X0147790Y0174408D01*
X0149408Y0172790D01*
X0151522Y0171914D01*
X0153811Y0171914D01*
X0155925Y0172790D01*
X0157544Y0174408D01*
X0158419Y0176522D01*
X0158419Y0178811D01*
X0157544Y0180925D01*
X0157121Y0181348D01*
X0157544Y0181770D01*
X0158419Y0183885D01*
X0158419Y0186173D01*
X0157544Y0188288D01*
X0157121Y0188710D01*
X0157544Y0189132D01*
X0158419Y0191247D01*
X0158419Y0193535D01*
X0157544Y0195650D01*
X0157121Y0196072D01*
X0157544Y0196495D01*
X0158419Y0198609D01*
X0158419Y0200898D01*
X0157544Y0203012D01*
X0155925Y0204630D01*
X0153811Y0205506D01*
X0151522Y0205506D01*
X0149408Y0204630D01*
X0147790Y0203012D01*
X0147253Y0201717D01*
X0146717Y0203012D01*
X0145099Y0204630D01*
X0142984Y0205506D01*
X0140696Y0205506D01*
X0138581Y0204630D01*
X0137667Y0203716D01*
X0137667Y0236696D01*
X0138581Y0235782D01*
X0140696Y0234906D01*
X0142984Y0234906D01*
X0145099Y0235782D01*
X0146717Y0237400D01*
X0147253Y0238695D01*
X0147790Y0237400D01*
X0149408Y0235782D01*
X0151522Y0234906D01*
X0153811Y0234906D01*
X0155925Y0235782D01*
X0157544Y0237400D01*
X0158419Y0239514D01*
X0158419Y0241803D01*
X0157544Y0243917D01*
X0157121Y0244340D01*
X0157544Y0244762D01*
X0158419Y0246877D01*
X0158419Y0249165D01*
X0157544Y0251280D01*
X0157121Y0251702D01*
X0157544Y0252125D01*
X0158419Y0254239D01*
X0158419Y0256527D01*
X0157544Y0258642D01*
X0157121Y0259064D01*
X0157544Y0259487D01*
X0158419Y0261601D01*
X0158419Y0263890D01*
X0157544Y0266004D01*
X0155925Y0267622D01*
X0153811Y0268498D01*
X0151522Y0268498D01*
X0149408Y0267622D01*
X0147790Y0266004D01*
X0147253Y0264709D01*
X0146717Y0266004D01*
X0145099Y0267622D01*
X0142984Y0268498D01*
X0140696Y0268498D01*
X0138581Y0267622D01*
X0137667Y0266708D01*
X0137667Y0300167D01*
X0247959Y0300167D01*
X0248781Y0299345D01*
X0251152Y0297975D01*
X0257667Y0296997D02*
X0137667Y0296997D01*
X0137667Y0295399D02*
X0173565Y0295399D01*
X0174933Y0296767D02*
X0171067Y0292900D01*
X0171067Y0287433D01*
X0174933Y0283567D01*
X0180400Y0283567D01*
X0184267Y0287433D01*
X0184267Y0292900D01*
X0180400Y0296767D01*
X0174933Y0296767D01*
X0171966Y0293800D02*
X0137667Y0293800D01*
X0137667Y0292202D02*
X0171067Y0292202D01*
X0171067Y0290603D02*
X0137667Y0290603D01*
X0137667Y0289005D02*
X0171067Y0289005D01*
X0171093Y0287406D02*
X0137667Y0287406D01*
X0137667Y0285808D02*
X0172692Y0285808D01*
X0174290Y0284209D02*
X0137667Y0284209D01*
X0137667Y0282611D02*
X0198769Y0282611D01*
X0198442Y0282284D02*
X0198442Y0276050D01*
X0202850Y0271642D01*
X0209084Y0271642D01*
X0212667Y0275225D01*
X0216250Y0271642D01*
X0222484Y0271642D01*
X0226892Y0276050D01*
X0226892Y0282284D01*
X0222484Y0286692D01*
X0216250Y0286692D01*
X0212667Y0283109D01*
X0209084Y0286692D01*
X0202850Y0286692D01*
X0198442Y0282284D01*
X0198442Y0281012D02*
X0137667Y0281012D01*
X0137667Y0279414D02*
X0198442Y0279414D01*
X0198442Y0277815D02*
X0137667Y0277815D01*
X0137667Y0276217D02*
X0198442Y0276217D01*
X0199873Y0274618D02*
X0137667Y0274618D01*
X0137667Y0273020D02*
X0201472Y0273020D01*
X0210461Y0273020D02*
X0214872Y0273020D01*
X0213273Y0274618D02*
X0212060Y0274618D01*
X0211566Y0284209D02*
X0213767Y0284209D01*
X0215366Y0285808D02*
X0209968Y0285808D01*
X0201966Y0285808D02*
X0182641Y0285808D01*
X0181043Y0284209D02*
X0200367Y0284209D01*
X0184240Y0287406D02*
X0234217Y0287406D01*
X0234217Y0287631D02*
X0234217Y0282702D01*
X0236753Y0280166D01*
X0229117Y0272529D01*
X0229117Y0261304D01*
X0237054Y0253367D01*
X0248279Y0253367D01*
X0256217Y0261304D01*
X0256217Y0272529D01*
X0248279Y0280467D01*
X0243881Y0280467D01*
X0246117Y0282702D01*
X0246117Y0287631D01*
X0242631Y0291117D01*
X0237702Y0291117D01*
X0234217Y0287631D01*
X0234217Y0285808D02*
X0223368Y0285808D01*
X0224966Y0284209D02*
X0234217Y0284209D01*
X0234308Y0282611D02*
X0226565Y0282611D01*
X0226892Y0281012D02*
X0235907Y0281012D01*
X0236001Y0279414D02*
X0226892Y0279414D01*
X0226892Y0277815D02*
X0234402Y0277815D01*
X0232804Y0276217D02*
X0226892Y0276217D01*
X0225460Y0274618D02*
X0231205Y0274618D01*
X0229607Y0273020D02*
X0223861Y0273020D01*
X0229117Y0271421D02*
X0137667Y0271421D01*
X0137667Y0269823D02*
X0229117Y0269823D01*
X0229117Y0268224D02*
X0154473Y0268224D01*
X0156922Y0266625D02*
X0229117Y0266625D01*
X0229117Y0265027D02*
X0157948Y0265027D01*
X0158419Y0263428D02*
X0229117Y0263428D01*
X0229117Y0261830D02*
X0158419Y0261830D01*
X0157852Y0260231D02*
X0230189Y0260231D01*
X0231788Y0258633D02*
X0157547Y0258633D01*
X0158209Y0257034D02*
X0233386Y0257034D01*
X0234985Y0255436D02*
X0158419Y0255436D01*
X0158253Y0253837D02*
X0236583Y0253837D01*
X0248750Y0253837D02*
X0257667Y0253837D01*
X0257667Y0252239D02*
X0157591Y0252239D01*
X0157808Y0250640D02*
X0257667Y0250640D01*
X0257667Y0249042D02*
X0158419Y0249042D01*
X0158419Y0247443D02*
X0257667Y0247443D01*
X0257667Y0245845D02*
X0157992Y0245845D01*
X0157215Y0244246D02*
X0257667Y0244246D01*
X0257667Y0242648D02*
X0158070Y0242648D01*
X0158419Y0241049D02*
X0257667Y0241049D01*
X0257667Y0239451D02*
X0158393Y0239451D01*
X0157731Y0237852D02*
X0257667Y0237852D01*
X0257667Y0236254D02*
X0156397Y0236254D01*
X0148936Y0236254D02*
X0145570Y0236254D01*
X0146904Y0237852D02*
X0147602Y0237852D01*
X0138109Y0236254D02*
X0137667Y0236254D01*
X0137667Y0234655D02*
X0257667Y0234655D01*
X0257667Y0233057D02*
X0223118Y0233057D01*
X0222484Y0233692D02*
X0216250Y0233692D01*
X0212667Y0230109D01*
X0209084Y0233692D01*
X0202850Y0233692D01*
X0198442Y0229284D01*
X0198442Y0223050D01*
X0202850Y0218642D01*
X0209084Y0218642D01*
X0212667Y0222225D01*
X0216250Y0218642D01*
X0222484Y0218642D01*
X0226892Y0223050D01*
X0226892Y0229284D01*
X0222484Y0233692D01*
X0224717Y0231458D02*
X0257667Y0231458D01*
X0257667Y0229860D02*
X0226316Y0229860D01*
X0226892Y0228261D02*
X0257667Y0228261D01*
X0257667Y0226663D02*
X0226892Y0226663D01*
X0226892Y0225064D02*
X0241362Y0225064D01*
X0240048Y0223466D02*
X0226892Y0223466D01*
X0225709Y0221867D02*
X0239386Y0221867D01*
X0239367Y0220269D02*
X0224111Y0220269D01*
X0222512Y0218670D02*
X0239367Y0218670D01*
X0239367Y0217072D02*
X0137667Y0217072D01*
X0137667Y0218670D02*
X0202821Y0218670D01*
X0201223Y0220269D02*
X0137667Y0220269D01*
X0137667Y0221867D02*
X0199624Y0221867D01*
X0198442Y0223466D02*
X0137667Y0223466D01*
X0137667Y0225064D02*
X0198442Y0225064D01*
X0198442Y0226663D02*
X0137667Y0226663D01*
X0137667Y0228261D02*
X0198442Y0228261D01*
X0199018Y0229860D02*
X0137667Y0229860D01*
X0137667Y0231458D02*
X0200616Y0231458D01*
X0202215Y0233057D02*
X0137667Y0233057D01*
X0137667Y0215473D02*
X0239296Y0215473D01*
X0237698Y0213875D02*
X0137667Y0213875D01*
X0137667Y0212276D02*
X0236099Y0212276D01*
X0234501Y0210678D02*
X0137667Y0210678D01*
X0137667Y0209079D02*
X0232902Y0209079D01*
X0231304Y0207481D02*
X0137667Y0207481D01*
X0137667Y0205882D02*
X0215891Y0205882D01*
X0214386Y0204284D02*
X0156272Y0204284D01*
X0157679Y0202685D02*
X0214017Y0202685D01*
X0214370Y0201087D02*
X0158341Y0201087D01*
X0158419Y0199488D02*
X0215803Y0199488D01*
X0217667Y0202667D02*
X0230167Y0202667D01*
X0245167Y0217667D01*
X0248972Y0225064D02*
X0251362Y0225064D01*
X0249367Y0209079D02*
X0246833Y0209079D01*
X0249367Y0207481D02*
X0238658Y0207481D01*
X0240256Y0209079D02*
X0243500Y0209079D01*
X0249367Y0205882D02*
X0237059Y0205882D01*
X0235460Y0204284D02*
X0249367Y0204284D01*
X0249710Y0202685D02*
X0233862Y0202685D01*
X0232263Y0201087D02*
X0249367Y0201087D01*
X0249367Y0199488D02*
X0219531Y0199488D01*
X0219442Y0205882D02*
X0229705Y0205882D01*
X0216221Y0218670D02*
X0209112Y0218670D01*
X0210711Y0220269D02*
X0214623Y0220269D01*
X0213024Y0221867D02*
X0212309Y0221867D01*
X0211317Y0231458D02*
X0214016Y0231458D01*
X0215615Y0233057D02*
X0209718Y0233057D01*
X0249367Y0197890D02*
X0158121Y0197890D01*
X0157340Y0196291D02*
X0249367Y0196291D01*
X0249367Y0194692D02*
X0157940Y0194692D01*
X0158419Y0193094D02*
X0249540Y0193094D01*
X0250202Y0191495D02*
X0158419Y0191495D01*
X0157860Y0189897D02*
X0251734Y0189897D01*
X0257667Y0188298D02*
X0157533Y0188298D01*
X0158201Y0186700D02*
X0257667Y0186700D01*
X0257667Y0185101D02*
X0158419Y0185101D01*
X0158261Y0183503D02*
X0257667Y0183503D01*
X0257667Y0181904D02*
X0157599Y0181904D01*
X0157800Y0180306D02*
X0257667Y0180306D01*
X0257667Y0178707D02*
X0158419Y0178707D01*
X0158419Y0177109D02*
X0257667Y0177109D01*
X0257667Y0175510D02*
X0158000Y0175510D01*
X0157047Y0173912D02*
X0257667Y0173912D01*
X0257667Y0172313D02*
X0154775Y0172313D01*
X0150558Y0172313D02*
X0143948Y0172313D01*
X0146221Y0173912D02*
X0148286Y0173912D01*
X0147333Y0175510D02*
X0147173Y0175510D01*
X0139731Y0172313D02*
X0137667Y0172313D01*
X0137667Y0170715D02*
X0257667Y0170715D01*
X0257667Y0169116D02*
X0137667Y0169116D01*
X0137667Y0167518D02*
X0257667Y0167518D01*
X0257667Y0165919D02*
X0137667Y0165919D01*
X0137667Y0164321D02*
X0257667Y0164321D01*
X0257667Y0162722D02*
X0137667Y0162722D01*
X0137667Y0161124D02*
X0257667Y0161124D01*
X0257667Y0159525D02*
X0137667Y0159525D01*
X0137667Y0157927D02*
X0257667Y0157927D01*
X0257667Y0156328D02*
X0137667Y0156328D01*
X0137667Y0154730D02*
X0257667Y0154730D01*
X0257667Y0153131D02*
X0137667Y0153131D01*
X0137667Y0151533D02*
X0179699Y0151533D01*
X0179933Y0151767D02*
X0176067Y0147900D01*
X0176067Y0142433D01*
X0179933Y0138567D01*
X0185400Y0138567D01*
X0189267Y0142433D01*
X0189267Y0147900D01*
X0185400Y0151767D01*
X0179933Y0151767D01*
X0178100Y0149934D02*
X0137667Y0149934D01*
X0137667Y0148336D02*
X0176502Y0148336D01*
X0176067Y0146737D02*
X0137667Y0146737D01*
X0137667Y0145139D02*
X0176067Y0145139D01*
X0176067Y0143540D02*
X0137667Y0143540D01*
X0137667Y0141942D02*
X0176558Y0141942D01*
X0178156Y0140343D02*
X0137667Y0140343D01*
X0137667Y0138745D02*
X0179755Y0138745D01*
X0185578Y0138745D02*
X0257667Y0138745D01*
X0257667Y0140343D02*
X0187177Y0140343D01*
X0188775Y0141942D02*
X0257667Y0141942D01*
X0257667Y0143540D02*
X0189267Y0143540D01*
X0189267Y0145139D02*
X0257667Y0145139D01*
X0257667Y0146737D02*
X0189267Y0146737D01*
X0188831Y0148336D02*
X0257667Y0148336D01*
X0257667Y0149934D02*
X0187233Y0149934D01*
X0185634Y0151533D02*
X0257667Y0151533D01*
X0257667Y0137146D02*
X0137667Y0137146D01*
X0137667Y0135548D02*
X0239345Y0135548D01*
X0239381Y0135584D02*
X0237750Y0133952D01*
X0236867Y0131820D01*
X0236867Y0123513D01*
X0237217Y0122667D01*
X0236867Y0121820D01*
X0236867Y0113513D01*
X0237217Y0112667D01*
X0236867Y0111820D01*
X0236867Y0103513D01*
X0237750Y0101381D01*
X0239381Y0099750D01*
X0241513Y0098867D01*
X0243820Y0098867D01*
X0245952Y0099750D01*
X0247584Y0101381D01*
X0248467Y0103513D01*
X0248467Y0111820D01*
X0248116Y0112667D01*
X0248467Y0113513D01*
X0248467Y0121820D01*
X0248116Y0122667D01*
X0248467Y0123513D01*
X0248467Y0131820D01*
X0247584Y0133952D01*
X0245952Y0135584D01*
X0243820Y0136467D01*
X0241513Y0136467D01*
X0239381Y0135584D01*
X0237748Y0133949D02*
X0137667Y0133949D01*
X0137667Y0132351D02*
X0237086Y0132351D01*
X0236867Y0130752D02*
X0137667Y0130752D01*
X0137667Y0129154D02*
X0236867Y0129154D01*
X0236867Y0127555D02*
X0137667Y0127555D01*
X0137667Y0125956D02*
X0207115Y0125956D01*
X0207850Y0126692D02*
X0203442Y0122284D01*
X0203442Y0116050D01*
X0207850Y0111642D01*
X0214084Y0111642D01*
X0217667Y0115225D01*
X0221250Y0111642D01*
X0227484Y0111642D01*
X0231892Y0116050D01*
X0231892Y0122284D01*
X0227484Y0126692D01*
X0221250Y0126692D01*
X0217667Y0123109D01*
X0214084Y0126692D01*
X0207850Y0126692D01*
X0205516Y0124358D02*
X0137667Y0124358D01*
X0137667Y0122759D02*
X0203918Y0122759D01*
X0203442Y0121161D02*
X0137667Y0121161D01*
X0137667Y0119562D02*
X0138021Y0119562D01*
X0145658Y0119562D02*
X0148848Y0119562D01*
X0147566Y0117964D02*
X0146941Y0117964D01*
X0156485Y0119562D02*
X0203442Y0119562D01*
X0203442Y0117964D02*
X0157767Y0117964D01*
X0158419Y0116365D02*
X0203442Y0116365D01*
X0204724Y0114767D02*
X0158419Y0114767D01*
X0158033Y0113168D02*
X0206323Y0113168D01*
X0215610Y0113168D02*
X0219723Y0113168D01*
X0218124Y0114767D02*
X0217209Y0114767D01*
X0216417Y0124358D02*
X0218916Y0124358D01*
X0220515Y0125956D02*
X0214819Y0125956D01*
X0228219Y0125956D02*
X0236867Y0125956D01*
X0236867Y0124358D02*
X0229817Y0124358D01*
X0231416Y0122759D02*
X0237179Y0122759D01*
X0236867Y0121161D02*
X0231892Y0121161D01*
X0231892Y0119562D02*
X0236867Y0119562D01*
X0236867Y0117964D02*
X0231892Y0117964D01*
X0231892Y0116365D02*
X0236867Y0116365D01*
X0236867Y0114767D02*
X0230609Y0114767D01*
X0229010Y0113168D02*
X0237009Y0113168D01*
X0236867Y0111570D02*
X0157127Y0111570D01*
X0158028Y0109971D02*
X0236867Y0109971D01*
X0236867Y0108373D02*
X0158419Y0108373D01*
X0158419Y0106774D02*
X0236867Y0106774D01*
X0236867Y0105176D02*
X0157772Y0105176D01*
X0157627Y0103577D02*
X0236867Y0103577D01*
X0237502Y0101979D02*
X0158290Y0101979D01*
X0158419Y0100380D02*
X0238751Y0100380D01*
X0246583Y0100380D02*
X0257667Y0100380D01*
X0257667Y0098782D02*
X0158173Y0098782D01*
X0157465Y0097183D02*
X0257667Y0097183D01*
X0257667Y0095585D02*
X0157889Y0095585D01*
X0158419Y0093986D02*
X0257667Y0093986D01*
X0257667Y0092388D02*
X0158419Y0092388D01*
X0157912Y0090789D02*
X0257667Y0090789D01*
X0257667Y0089191D02*
X0156834Y0089191D01*
X0154260Y0087592D02*
X0257667Y0087592D01*
X0257667Y0085994D02*
X0137667Y0085994D01*
X0137667Y0087592D02*
X0140246Y0087592D01*
X0137672Y0089191D02*
X0137667Y0089191D01*
X0137667Y0084395D02*
X0257667Y0084395D01*
X0257667Y0082797D02*
X0137667Y0082797D01*
X0137667Y0081198D02*
X0257667Y0081198D01*
X0257667Y0079600D02*
X0137667Y0079600D01*
X0137667Y0078001D02*
X0244587Y0078001D01*
X0245202Y0078617D02*
X0241717Y0075131D01*
X0241717Y0070202D01*
X0245202Y0066717D01*
X0250131Y0066717D01*
X0253617Y0070202D01*
X0253617Y0075131D01*
X0250131Y0078617D01*
X0245202Y0078617D01*
X0242988Y0076403D02*
X0137667Y0076403D01*
X0137667Y0074804D02*
X0241717Y0074804D01*
X0241717Y0073206D02*
X0227970Y0073206D01*
X0227484Y0073692D02*
X0221250Y0073692D01*
X0217667Y0070109D01*
X0214084Y0073692D01*
X0207850Y0073692D01*
X0203442Y0069284D01*
X0203442Y0063050D01*
X0207850Y0058642D01*
X0214084Y0058642D01*
X0217667Y0062225D01*
X0221250Y0058642D01*
X0227484Y0058642D01*
X0231892Y0063050D01*
X0231892Y0069284D01*
X0227484Y0073692D01*
X0229568Y0071607D02*
X0241717Y0071607D01*
X0241910Y0070009D02*
X0231167Y0070009D01*
X0231892Y0068410D02*
X0243509Y0068410D01*
X0245107Y0066812D02*
X0231892Y0066812D01*
X0231892Y0065213D02*
X0257667Y0065213D01*
X0257667Y0063615D02*
X0231892Y0063615D01*
X0230858Y0062016D02*
X0257667Y0062016D01*
X0257667Y0060418D02*
X0229259Y0060418D01*
X0227661Y0058819D02*
X0257667Y0058819D01*
X0257667Y0057221D02*
X0155707Y0057221D01*
X0157434Y0055622D02*
X0257667Y0055622D01*
X0257667Y0054023D02*
X0158160Y0054023D01*
X0158419Y0052425D02*
X0257667Y0052425D01*
X0257667Y0050826D02*
X0158302Y0050826D01*
X0157640Y0049228D02*
X0257667Y0049228D01*
X0257667Y0047629D02*
X0216116Y0047629D01*
X0215029Y0048717D02*
X0203804Y0048717D01*
X0195867Y0040779D01*
X0195867Y0029554D01*
X0203804Y0021617D01*
X0215029Y0021617D01*
X0222967Y0029554D01*
X0222967Y0040779D01*
X0215029Y0048717D01*
X0217715Y0046031D02*
X0257667Y0046031D01*
X0257667Y0044432D02*
X0219313Y0044432D01*
X0220912Y0042834D02*
X0257667Y0042834D01*
X0255663Y0041235D02*
X0222510Y0041235D01*
X0222967Y0039637D02*
X0253425Y0039637D01*
X0251187Y0038038D02*
X0222967Y0038038D01*
X0222967Y0036440D02*
X0248949Y0036440D01*
X0246711Y0034841D02*
X0222967Y0034841D01*
X0222967Y0033243D02*
X0244473Y0033243D01*
X0242235Y0031644D02*
X0222967Y0031644D01*
X0222967Y0030046D02*
X0239997Y0030046D01*
X0237760Y0028447D02*
X0221860Y0028447D01*
X0220261Y0026849D02*
X0235522Y0026849D01*
X0233284Y0025250D02*
X0218663Y0025250D01*
X0217064Y0023652D02*
X0231046Y0023652D01*
X0228808Y0022053D02*
X0215466Y0022053D01*
X0224332Y0018856D02*
X0137667Y0018856D01*
X0137667Y0020455D02*
X0226570Y0020455D01*
X0203367Y0022053D02*
X0137667Y0022053D01*
X0137667Y0023652D02*
X0201769Y0023652D01*
X0200170Y0025250D02*
X0155830Y0025250D01*
X0157484Y0026849D02*
X0198572Y0026849D01*
X0196973Y0028447D02*
X0158181Y0028447D01*
X0158419Y0030046D02*
X0195867Y0030046D01*
X0195867Y0031644D02*
X0158281Y0031644D01*
X0157619Y0033243D02*
X0195867Y0033243D01*
X0195867Y0034841D02*
X0157780Y0034841D01*
X0158419Y0036440D02*
X0195867Y0036440D01*
X0195867Y0038038D02*
X0158419Y0038038D01*
X0158020Y0039637D02*
X0195867Y0039637D01*
X0196323Y0041235D02*
X0157147Y0041235D01*
X0158041Y0042834D02*
X0197921Y0042834D01*
X0199520Y0044432D02*
X0158419Y0044432D01*
X0158419Y0046031D02*
X0201118Y0046031D01*
X0202717Y0047629D02*
X0157759Y0047629D01*
X0149626Y0057221D02*
X0144881Y0057221D01*
X0146607Y0055622D02*
X0147900Y0055622D01*
X0138799Y0057221D02*
X0137667Y0057221D01*
X0137667Y0058819D02*
X0207672Y0058819D01*
X0206074Y0060418D02*
X0137667Y0060418D01*
X0137667Y0062016D02*
X0204475Y0062016D01*
X0203442Y0063615D02*
X0137667Y0063615D01*
X0137667Y0065213D02*
X0203442Y0065213D01*
X0203442Y0066812D02*
X0137667Y0066812D01*
X0137667Y0068410D02*
X0203442Y0068410D01*
X0204167Y0070009D02*
X0137667Y0070009D01*
X0137667Y0071607D02*
X0205765Y0071607D01*
X0207364Y0073206D02*
X0137667Y0073206D01*
X0143434Y0087592D02*
X0151073Y0087592D01*
X0148499Y0089191D02*
X0146007Y0089191D01*
X0147085Y0090789D02*
X0147421Y0090789D01*
X0105167Y0071607D02*
X0036217Y0071607D01*
X0036217Y0070009D02*
X0105167Y0070009D01*
X0105167Y0068410D02*
X0036217Y0068410D01*
X0035224Y0066812D02*
X0105167Y0066812D01*
X0137667Y0025250D02*
X0138676Y0025250D01*
X0145003Y0025250D02*
X0149503Y0025250D01*
X0147849Y0026849D02*
X0146658Y0026849D01*
X0214261Y0058819D02*
X0221072Y0058819D01*
X0219474Y0060418D02*
X0215859Y0060418D01*
X0217458Y0062016D02*
X0217875Y0062016D01*
X0219165Y0071607D02*
X0216168Y0071607D01*
X0214570Y0073206D02*
X0220764Y0073206D01*
X0247831Y0101979D02*
X0257667Y0101979D01*
X0257667Y0103577D02*
X0248467Y0103577D01*
X0248467Y0105176D02*
X0257667Y0105176D01*
X0257667Y0106774D02*
X0248467Y0106774D01*
X0248467Y0108373D02*
X0257667Y0108373D01*
X0257667Y0109971D02*
X0248467Y0109971D01*
X0248467Y0111570D02*
X0257667Y0111570D01*
X0257667Y0113168D02*
X0248324Y0113168D01*
X0248467Y0114767D02*
X0257667Y0114767D01*
X0257667Y0116365D02*
X0248467Y0116365D01*
X0248467Y0117964D02*
X0257667Y0117964D01*
X0257667Y0119562D02*
X0248467Y0119562D01*
X0248467Y0121161D02*
X0257667Y0121161D01*
X0257667Y0122759D02*
X0248155Y0122759D01*
X0248467Y0124358D02*
X0257667Y0124358D01*
X0257667Y0125956D02*
X0248467Y0125956D01*
X0248467Y0127555D02*
X0257667Y0127555D01*
X0257667Y0129154D02*
X0248467Y0129154D01*
X0248467Y0130752D02*
X0257667Y0130752D01*
X0257667Y0132351D02*
X0248247Y0132351D01*
X0247585Y0133949D02*
X0257667Y0133949D01*
X0257667Y0135548D02*
X0245988Y0135548D01*
X0250747Y0078001D02*
X0257667Y0078001D01*
X0257667Y0076403D02*
X0252345Y0076403D01*
X0253617Y0074804D02*
X0257667Y0074804D01*
X0257667Y0073206D02*
X0253617Y0073206D01*
X0253617Y0071607D02*
X0257667Y0071607D01*
X0257667Y0070009D02*
X0253423Y0070009D01*
X0251825Y0068410D02*
X0257667Y0068410D01*
X0257667Y0066812D02*
X0250226Y0066812D01*
X0147654Y0202685D02*
X0146852Y0202685D01*
X0145445Y0204284D02*
X0149061Y0204284D01*
X0138235Y0204284D02*
X0137667Y0204284D01*
X0147122Y0265027D02*
X0147385Y0265027D01*
X0148411Y0266625D02*
X0146095Y0266625D01*
X0143646Y0268224D02*
X0150861Y0268224D01*
X0140034Y0268224D02*
X0137667Y0268224D01*
X0181768Y0295399D02*
X0257667Y0295399D01*
X0257667Y0293800D02*
X0183367Y0293800D01*
X0184267Y0292202D02*
X0257667Y0292202D01*
X0257667Y0290603D02*
X0243145Y0290603D01*
X0244743Y0289005D02*
X0257667Y0289005D01*
X0257667Y0287406D02*
X0246117Y0287406D01*
X0246117Y0285808D02*
X0257667Y0285808D01*
X0257667Y0284209D02*
X0246117Y0284209D01*
X0246025Y0282611D02*
X0257667Y0282611D01*
X0257667Y0281012D02*
X0244427Y0281012D01*
X0249332Y0279414D02*
X0257667Y0279414D01*
X0257667Y0277815D02*
X0250931Y0277815D01*
X0252529Y0276217D02*
X0257667Y0276217D01*
X0257667Y0274618D02*
X0254128Y0274618D01*
X0255726Y0273020D02*
X0257667Y0273020D01*
X0257667Y0271421D02*
X0256217Y0271421D01*
X0256217Y0269823D02*
X0257667Y0269823D01*
X0257667Y0268224D02*
X0256217Y0268224D01*
X0256217Y0266625D02*
X0257667Y0266625D01*
X0257667Y0265027D02*
X0256217Y0265027D01*
X0256217Y0263428D02*
X0257667Y0263428D01*
X0257667Y0261830D02*
X0256217Y0261830D01*
X0255144Y0260231D02*
X0257667Y0260231D01*
X0257667Y0258633D02*
X0253546Y0258633D01*
X0251947Y0257034D02*
X0257667Y0257034D01*
X0257667Y0255436D02*
X0250348Y0255436D01*
X0235590Y0289005D02*
X0184267Y0289005D01*
X0184267Y0290603D02*
X0237189Y0290603D01*
X0075755Y0172313D02*
X0069145Y0172313D01*
X0071418Y0173912D02*
X0073483Y0173912D01*
X0072530Y0175510D02*
X0072370Y0175510D01*
X0064928Y0172313D02*
X0021758Y0172313D01*
X0015167Y0173912D02*
X0062656Y0173912D01*
X0061703Y0175510D02*
X0015167Y0175510D01*
X0015167Y0177109D02*
X0061284Y0177109D01*
X0061284Y0178707D02*
X0015167Y0178707D01*
X0015167Y0180306D02*
X0061903Y0180306D01*
X0061974Y0181904D02*
X0015167Y0181904D01*
X0015167Y0183503D02*
X0061312Y0183503D01*
X0061284Y0185101D02*
X0015167Y0185101D01*
X0015167Y0186700D02*
X0061633Y0186700D01*
X0062364Y0188298D02*
X0015167Y0188298D01*
X0015167Y0189897D02*
X0061582Y0189897D01*
X0061284Y0191495D02*
X0015167Y0191495D01*
X0015167Y0193094D02*
X0061362Y0193094D01*
X0062024Y0194692D02*
X0015167Y0194692D01*
X0015167Y0196291D02*
X0061853Y0196291D01*
X0061284Y0197890D02*
X0015167Y0197890D01*
X0015167Y0199488D02*
X0061284Y0199488D01*
X0061754Y0201087D02*
X0015167Y0201087D01*
X0015167Y0202685D02*
X0062123Y0202685D01*
X0061461Y0204284D02*
X0015167Y0204284D01*
X0015167Y0205882D02*
X0061284Y0205882D01*
X0061483Y0207481D02*
X0015167Y0207481D01*
X0015167Y0209079D02*
X0062145Y0209079D01*
X0016243Y0210678D02*
X0015167Y0210678D01*
X0015167Y0060418D02*
X0016503Y0060418D01*
X0015167Y0031644D02*
X0061422Y0031644D01*
X0061284Y0030046D02*
X0015167Y0030046D01*
X0015167Y0028447D02*
X0061522Y0028447D01*
X0062219Y0026849D02*
X0023547Y0026849D01*
D17*
X0205167Y0140167D03*
X0217667Y0202667D03*
X0197667Y0295167D03*
D18*
X0197667Y0282667D01*
M02*
