G75*
%MOIN*%
%OFA0B0*%
%FSLAX25Y25*%
%IPPOS*%
%LPD*%
%AMOC8*
5,1,8,0,0,1.08239X$1,22.5*
%
%ADD10C,0.12000*%
%ADD11C,0.06706*%
%ADD12C,0.06800*%
%ADD13R,0.03200X0.09500*%
%ADD14R,0.05131X0.04737*%
%ADD15OC8,0.07100*%
%ADD16R,0.10100X0.20900*%
%ADD17OC8,0.10250*%
%ADD18R,0.03800X0.05600*%
%ADD19R,0.03000X0.08600*%
%ADD20R,0.06500X0.05200*%
%ADD21R,0.07100X0.06300*%
%ADD22R,0.15000X0.07900*%
%ADD23R,0.03400X0.04600*%
%ADD24R,0.05200X0.06500*%
%ADD25R,0.06300X0.07100*%
%ADD26OC8,0.22300*%
%ADD27OC8,0.08400*%
%ADD28C,0.04900*%
D10*
X0018651Y0017667D03*
X0110167Y0017667D03*
X0110167Y0162667D03*
X0017667Y0162667D03*
X0017667Y0307667D03*
X0110167Y0307667D03*
X0255167Y0307667D03*
X0255167Y0017667D03*
D11*
X0152667Y0030167D03*
X0152667Y0037529D03*
X0152667Y0044891D03*
X0152667Y0052253D03*
X0152667Y0061663D03*
X0152667Y0069025D03*
X0152667Y0076387D03*
X0152667Y0083749D03*
X0152667Y0093159D03*
X0152667Y0100521D03*
X0152667Y0107883D03*
X0152667Y0115245D03*
X0152667Y0124655D03*
X0152667Y0132017D03*
X0152667Y0139379D03*
X0152667Y0146741D03*
X0141840Y0146741D03*
X0141840Y0139379D03*
X0141840Y0132017D03*
X0141840Y0124655D03*
X0141840Y0115245D03*
X0141840Y0107883D03*
X0141840Y0100521D03*
X0141840Y0093159D03*
X0141840Y0083749D03*
X0141840Y0076387D03*
X0141840Y0069025D03*
X0141840Y0061663D03*
X0141840Y0052253D03*
X0141840Y0044891D03*
X0141840Y0037529D03*
X0141840Y0030167D03*
X0077864Y0030167D03*
X0077864Y0037214D03*
X0077864Y0044261D03*
X0077864Y0051308D03*
X0077864Y0058356D03*
X0067037Y0058356D03*
X0067037Y0051308D03*
X0067037Y0044261D03*
X0067037Y0037214D03*
X0067037Y0030167D03*
X0067037Y0080757D03*
X0067037Y0088631D03*
X0067037Y0096505D03*
X0077864Y0096505D03*
X0077864Y0088631D03*
X0077864Y0080757D03*
X0077864Y0109064D03*
X0077864Y0116623D03*
X0077864Y0124182D03*
X0077864Y0131741D03*
X0077864Y0139301D03*
X0077864Y0146860D03*
X0067037Y0146860D03*
X0067037Y0139301D03*
X0067037Y0131741D03*
X0067037Y0124182D03*
X0067037Y0116623D03*
X0067037Y0109064D03*
X0067037Y0177667D03*
X0067037Y0184714D03*
X0067037Y0191761D03*
X0067037Y0198808D03*
X0067037Y0205856D03*
X0077864Y0205856D03*
X0077864Y0198808D03*
X0077864Y0191761D03*
X0077864Y0184714D03*
X0077864Y0177667D03*
X0077864Y0228257D03*
X0077864Y0236131D03*
X0077864Y0244005D03*
X0067037Y0244005D03*
X0067037Y0236131D03*
X0067037Y0228257D03*
X0067037Y0256564D03*
X0067037Y0264123D03*
X0067037Y0271682D03*
X0067037Y0279241D03*
X0067037Y0286801D03*
X0067037Y0294360D03*
X0077864Y0294360D03*
X0077864Y0286801D03*
X0077864Y0279241D03*
X0077864Y0271682D03*
X0077864Y0264123D03*
X0077864Y0256564D03*
X0141840Y0255383D03*
X0141840Y0262745D03*
X0141840Y0272155D03*
X0141840Y0279517D03*
X0141840Y0286879D03*
X0141840Y0294241D03*
X0152667Y0294241D03*
X0152667Y0286879D03*
X0152667Y0279517D03*
X0152667Y0272155D03*
X0152667Y0262745D03*
X0152667Y0255383D03*
X0152667Y0248021D03*
X0152667Y0240659D03*
X0152667Y0231249D03*
X0152667Y0223887D03*
X0152667Y0216525D03*
X0152667Y0209163D03*
X0152667Y0199753D03*
X0152667Y0192391D03*
X0152667Y0185029D03*
X0152667Y0177667D03*
X0141840Y0177667D03*
X0141840Y0185029D03*
X0141840Y0192391D03*
X0141840Y0199753D03*
X0141840Y0209163D03*
X0141840Y0216525D03*
X0141840Y0223887D03*
X0141840Y0231249D03*
X0141840Y0240659D03*
X0141840Y0248021D03*
D12*
X0053167Y0252667D02*
X0047167Y0252667D01*
X0047167Y0242667D02*
X0053167Y0242667D01*
X0053167Y0232667D02*
X0047167Y0232667D01*
X0047167Y0222667D02*
X0053167Y0222667D01*
X0055667Y0110167D02*
X0049667Y0110167D01*
X0049667Y0100167D02*
X0055667Y0100167D01*
X0055667Y0090167D02*
X0049667Y0090167D01*
X0049667Y0080167D02*
X0055667Y0080167D01*
X0242667Y0104667D02*
X0242667Y0110667D01*
X0242667Y0114667D02*
X0242667Y0120667D01*
X0242667Y0124667D02*
X0242667Y0130667D01*
X0252667Y0130667D02*
X0252667Y0124667D01*
X0252667Y0120667D02*
X0252667Y0114667D01*
X0252667Y0110667D02*
X0252667Y0104667D01*
X0255167Y0194667D02*
X0255167Y0200667D01*
X0255167Y0204667D02*
X0255167Y0210667D01*
X0255167Y0214667D02*
X0255167Y0220667D01*
X0245167Y0220667D02*
X0245167Y0214667D01*
X0245167Y0210667D02*
X0245167Y0204667D01*
X0245167Y0200667D02*
X0245167Y0194667D01*
D13*
X0192667Y0257367D03*
X0187667Y0257367D03*
X0182667Y0257367D03*
X0177667Y0257367D03*
X0177667Y0277967D03*
X0182667Y0277967D03*
X0187667Y0277967D03*
X0192667Y0277967D03*
X0192667Y0132967D03*
X0197667Y0132967D03*
X0187667Y0132967D03*
X0182667Y0132967D03*
X0182667Y0112367D03*
X0187667Y0112367D03*
X0192667Y0112367D03*
X0197667Y0112367D03*
D14*
X0198513Y0145167D03*
X0191820Y0145167D03*
X0193513Y0287667D03*
X0186820Y0287667D03*
D15*
X0240167Y0285167D03*
X0240167Y0295167D03*
X0247667Y0082667D03*
X0247667Y0072667D03*
X0045167Y0272667D03*
X0045167Y0282667D03*
X0020167Y0040167D03*
X0020167Y0030167D03*
D16*
X0039517Y0052667D03*
X0055817Y0052667D03*
X0053317Y0185167D03*
X0037017Y0185167D03*
D17*
X0205967Y0226167D03*
X0219367Y0226167D03*
X0219367Y0279167D03*
X0205967Y0279167D03*
X0210967Y0119167D03*
X0224367Y0119167D03*
X0224367Y0066167D03*
X0210967Y0066167D03*
D18*
X0207667Y0196067D03*
X0207667Y0209267D03*
D19*
X0217667Y0184867D03*
X0222667Y0184867D03*
X0227667Y0184867D03*
X0232667Y0184867D03*
X0232667Y0165467D03*
X0227667Y0165467D03*
X0222667Y0165467D03*
X0217667Y0165467D03*
D20*
X0210167Y0176617D03*
X0210167Y0183717D03*
D21*
X0242567Y0150167D03*
X0242567Y0140167D03*
X0252767Y0140167D03*
X0252767Y0150167D03*
D22*
X0185167Y0157467D03*
X0185167Y0192867D03*
D23*
X0224917Y0194167D03*
X0224917Y0199167D03*
X0230417Y0199167D03*
X0230417Y0194167D03*
D24*
X0231217Y0205667D03*
X0224117Y0205667D03*
X0211217Y0147667D03*
X0204117Y0147667D03*
X0191217Y0297667D03*
X0184117Y0297667D03*
D25*
X0240167Y0175267D03*
X0250167Y0175267D03*
X0250167Y0165067D03*
X0240167Y0165067D03*
D26*
X0242667Y0238417D03*
X0242667Y0266917D03*
X0209417Y0035167D03*
X0180917Y0035167D03*
X0022667Y0073417D03*
X0022667Y0101917D03*
X0022667Y0223417D03*
X0022667Y0251917D03*
D27*
X0177667Y0290167D03*
X0182667Y0145167D03*
D28*
X0205167Y0140167D03*
X0217667Y0202667D03*
X0197667Y0295167D03*
M02*
