%
M48
M72
T01C0.02362
T02C0.02756
T03C0.03200
T04C0.03346
T05C0.03740
T06C0.04000
T07C0.04400
T08C0.05512
T09C0.11200
%
T01
X46346Y38800
X63996Y51950
X76346Y52800
X83346Y53800
X108346Y33800
X135346Y34800
X151346Y29800
X163346Y34800
X202346Y55800
X207346Y63300
X236346Y71800
X239346Y66800
X246346Y71800
X251346Y66800
X263346Y73800
X268346Y69800
X273096Y82800
X268346Y85800
X280346Y89800
X288346Y89800
X297346Y89800
X307346Y91800
X307346Y72800
X313346Y61800
X320346Y62800
X311346Y51800
X319346Y50800
X323346Y16800
X332346Y17800
X345346Y15800
X367346Y19800
X361346Y68800
X333346Y130800
X344346Y131800
X361346Y149800
X367346Y147800
X385346Y167800
X398346Y177800
X365346Y189800
X346596Y194550
X345346Y205800
X365346Y205800
X359346Y226800
X350346Y229800
X339346Y248800
X313346Y234800
X303596Y228300
X294346Y225800
X287346Y223800
X287846Y232050
X278846Y215050
X283346Y210800
X283346Y204800
X278346Y200800
X263346Y205800
X256096Y204300
X250846Y196800
X257346Y192800
X245846Y190800
X251346Y179800
X246346Y174800
X262346Y179800
X228346Y164800
X222346Y156800
X227346Y149800
X212346Y160800
X215346Y170800
X222346Y182800
X213346Y185800
X207346Y184300
X193846Y180050
X188846Y182550
X184596Y186050
X178846Y179300
X185346Y171800
X191346Y170800
X181346Y165800
X179346Y154800
X179346Y140800
X187346Y138800
X194346Y138800
X201346Y135800
X206346Y147800
X197346Y149800
X168346Y123800
X167346Y111800
X167346Y105800
X171346Y86800
X188346Y86800
X236346Y112800
X249346Y124800
X245346Y139800
X254346Y147800
X260346Y150800
X275346Y131800
X269346Y130800
X284346Y130800
X290346Y132800
X257346Y107800
X258346Y99800
X269346Y102800
X275346Y98800
X242346Y78800
X147346Y128800
X134346Y144800
X141346Y149800
X140346Y155800
X135596Y168550
X132846Y183300
X160346Y186800
X186346Y198800
X196346Y200800
X205346Y204800
X206596Y248550
X195596Y248550
X198346Y258800
X183846Y248550
X169846Y248550
X159096Y248300
X153096Y248300
X146846Y248300
X154346Y258800
X130346Y219800
X135346Y214800
X146346Y211800
X151096Y211800
X120346Y214800
X102346Y199800
X103346Y193800
X87346Y196800
X80346Y201800
X59346Y191800
X53346Y196800
X55346Y206800
X46346Y207800
X50346Y215800
X44346Y230800
X50346Y237800
X73346Y229800
X31346Y197800
X37346Y187800
X45346Y179800
X65346Y173800
X85346Y161800
X83346Y156800
X95346Y161800
X114346Y140800
X112346Y128800
X105346Y128800
X89346Y133800
X75346Y123800
X82346Y110800
X95846Y90300
X111346Y89800
X117046Y105300
X115346Y111800
X133346Y111800
X133346Y105800
X63346Y147800
X28346Y134800
X218846Y248800
X223346Y253800
X247346Y268800
X256346Y267800
X257346Y245800
X270096Y224550
X311346Y214800
X314346Y207800
X312346Y192800
X340346Y163800
X334346Y156800
T02
X219094Y297509
X211220Y297509
X203346Y297509
X195472Y297509
X187598Y297509
X171094Y297509
X163220Y297509
X155346Y297509
X147472Y297509
X139598Y297509
T03
X348346Y77800
X358346Y77800
X368346Y77800
X378346Y77800
X378346Y47800
X368346Y47800
X358346Y47800
X348346Y47800
T04
X349882Y26965
X359882Y26965
X339882Y26965
X329882Y26965
X319882Y26965
X309882Y26965
X299882Y26965
X289882Y26965
X279882Y26965
X269882Y26965
X236220Y42965
X226220Y42965
X216220Y42965
X206220Y42965
X196220Y42965
X186220Y42965
X176220Y42965
X166220Y42965
X109504Y23115
X99504Y23115
X89504Y23115
X79504Y23115
X69504Y23115
X59504Y23115
X49504Y23115
X39504Y23115
X30008Y170320
X30008Y185280
X378346Y182800
X378346Y172800
X392346Y172800
X392346Y182800
X392346Y192800
X392346Y202800
X392346Y212800
X378346Y212800
X378346Y202800
X378346Y192800
X378346Y162800
X378346Y152800
X378346Y142800
X392346Y142800
X392346Y152800
X392346Y162800
T05
X239783Y105304
X229783Y105304
X229783Y95304
X229783Y85304
X239783Y85304
X239783Y95304
T06
X218596Y105050
X295346Y158800
X295346Y168800
X295346Y178800
X305346Y178800
X305346Y168800
X305346Y158800
X322346Y158800
X342346Y178800
X362346Y158800
X362346Y198800
X322346Y198800
X305346Y198800
X295346Y198800
X295346Y188800
X305346Y188800
X305346Y208800
X295346Y208800
X295346Y218800
X305346Y218800
X305346Y247800
X295346Y247800
X295346Y257800
X295346Y267800
X295346Y277800
X305346Y277800
X305346Y267800
X305346Y257800
X328346Y260800
X348346Y280800
X368346Y260800
X368346Y300800
X328346Y300800
X305346Y287800
X295346Y287800
X121346Y199800
X111346Y199800
X111346Y189800
X121346Y189800
X51346Y163800
X51346Y153800
X33346Y207800
X23346Y207800
X34246Y285700
X44246Y285700
X327346Y95800
X337346Y95800
X336346Y67800
X336346Y57800
X392346Y56800
X392346Y66800
T07
X379346Y95800
X369346Y95800
X359346Y95800
X349346Y95800
X236346Y26800
X226346Y26800
X216346Y26800
X206346Y26800
X196346Y26800
X186346Y26800
X22213Y223430
X22213Y233430
X22213Y243430
X22213Y253430
X22213Y263430
X22213Y273430
X92213Y263430
X92213Y253430
X92213Y243430
X92213Y233430
X235346Y252800
X235346Y262800
X235346Y272800
X235346Y282800
X235346Y292800
X235346Y302800
T08
X61283Y117066
X61283Y114066
X61283Y111066
X52483Y94366
X49483Y94366
X46483Y94366
X37683Y111066
X37683Y114066
X37683Y117066
T09
X21346Y15800
X21346Y303800
X395046Y303800
X395046Y15800
M30
