G75*
%MOIN*%
%OFA0B0*%
%FSLAX25Y25*%
%IPPOS*%
%LPD*%
%AMOC8*
5,1,8,0,0,1.08239X$1,22.5*
%
%ADD10C,0.00700*%
D10*
X0138979Y0118367D02*
X0139796Y0117550D01*
X0142248Y0117550D01*
X0142248Y0122454D01*
X0142248Y0120819D02*
X0139796Y0120819D01*
X0138979Y0120002D01*
X0138979Y0118367D01*
X0144135Y0117550D02*
X0144135Y0120819D01*
X0144135Y0117550D02*
X0146587Y0117550D01*
X0147405Y0118367D01*
X0147405Y0120819D01*
X0150025Y0122454D02*
X0150025Y0117550D01*
X0150842Y0117550D02*
X0149207Y0117550D01*
X0152729Y0118367D02*
X0153546Y0117550D01*
X0155181Y0117550D01*
X0155999Y0118367D01*
X0155999Y0121637D01*
X0155181Y0122454D01*
X0153546Y0122454D01*
X0152729Y0121637D01*
X0150842Y0122454D02*
X0150025Y0122454D01*
X0163042Y0120819D02*
X0165494Y0120819D01*
X0166311Y0120002D01*
X0165494Y0119185D01*
X0163859Y0119185D01*
X0163042Y0118367D01*
X0163859Y0117550D01*
X0166311Y0117550D01*
X0168198Y0117550D02*
X0170650Y0117550D01*
X0171468Y0118367D01*
X0171468Y0120002D01*
X0170650Y0120819D01*
X0168198Y0120819D01*
X0174088Y0120819D02*
X0174088Y0117550D01*
X0174905Y0117550D02*
X0173271Y0117550D01*
X0174088Y0120819D02*
X0174905Y0120819D01*
X0176708Y0120819D02*
X0178343Y0120819D01*
X0177526Y0121637D02*
X0177526Y0118367D01*
X0176708Y0117550D01*
X0180230Y0118367D02*
X0180230Y0120002D01*
X0181047Y0120819D01*
X0182682Y0120819D01*
X0183499Y0120002D01*
X0183499Y0118367D01*
X0182682Y0117550D01*
X0181047Y0117550D01*
X0180230Y0118367D01*
X0174088Y0122454D02*
X0174088Y0123272D01*
X0185386Y0120002D02*
X0186204Y0120819D01*
X0188656Y0120819D01*
X0188656Y0122454D02*
X0188656Y0117550D01*
X0186204Y0117550D01*
X0185386Y0118367D01*
X0185386Y0120002D01*
X0190543Y0120002D02*
X0191360Y0120819D01*
X0192995Y0120819D01*
X0193812Y0120002D01*
X0193812Y0118367D01*
X0192995Y0117550D01*
X0191360Y0117550D01*
X0190543Y0118367D01*
X0190543Y0120002D01*
X0195699Y0120002D02*
X0195699Y0121637D01*
X0196516Y0122454D01*
X0198969Y0122454D01*
X0198969Y0117550D01*
X0198969Y0119185D02*
X0196516Y0119185D01*
X0195699Y0120002D01*
X0197334Y0119185D02*
X0195699Y0117550D01*
X0206012Y0117550D02*
X0208464Y0117550D01*
X0209281Y0118367D01*
X0209281Y0120819D01*
X0211902Y0122454D02*
X0211902Y0117550D01*
X0212719Y0117550D02*
X0211084Y0117550D01*
X0214606Y0118367D02*
X0214606Y0120002D01*
X0215423Y0120819D01*
X0217058Y0120819D01*
X0217875Y0120002D01*
X0217875Y0118367D01*
X0217058Y0117550D01*
X0215423Y0117550D01*
X0214606Y0118367D01*
X0212719Y0122454D02*
X0211902Y0122454D01*
X0206012Y0120819D02*
X0206012Y0116733D01*
X0206829Y0115915D01*
X0207647Y0115915D01*
X0219762Y0120002D02*
X0220580Y0119185D01*
X0223032Y0119185D01*
X0223032Y0117550D02*
X0223032Y0122454D01*
X0220580Y0122454D01*
X0219762Y0121637D01*
X0219762Y0120002D01*
X0229991Y0117550D02*
X0231626Y0117550D01*
X0230808Y0117550D02*
X0230808Y0122454D01*
X0231626Y0122454D01*
X0233513Y0120002D02*
X0233513Y0117550D01*
X0235965Y0117550D01*
X0236782Y0118367D01*
X0235965Y0119185D01*
X0233513Y0119185D01*
X0233513Y0120002D02*
X0234330Y0120819D01*
X0235965Y0120819D01*
X0238669Y0121637D02*
X0239486Y0122454D01*
X0241121Y0122454D01*
X0241938Y0121637D01*
X0241938Y0118367D01*
X0241121Y0117550D01*
X0239486Y0117550D01*
X0238669Y0118367D01*
X0248982Y0117550D02*
X0251434Y0117550D01*
X0252251Y0118367D01*
X0252251Y0120819D01*
X0254138Y0120002D02*
X0254956Y0120819D01*
X0257408Y0120819D01*
X0257408Y0122454D02*
X0257408Y0117550D01*
X0254956Y0117550D01*
X0254138Y0118367D01*
X0254138Y0120002D01*
X0248982Y0120819D02*
X0248982Y0116733D01*
X0249799Y0115915D01*
X0250617Y0115915D01*
X0264451Y0117550D02*
X0266903Y0117550D01*
X0267720Y0118367D01*
X0267720Y0120002D01*
X0266903Y0120819D01*
X0264451Y0120819D01*
X0264451Y0122454D02*
X0264451Y0117550D01*
X0269607Y0119185D02*
X0272877Y0119185D01*
X0272877Y0120002D02*
X0272060Y0120819D01*
X0270425Y0120819D01*
X0269607Y0120002D01*
X0269607Y0119185D01*
X0270425Y0117550D02*
X0272060Y0117550D01*
X0272877Y0118367D01*
X0272877Y0120002D01*
X0274764Y0120002D02*
X0274764Y0117550D01*
X0274764Y0120002D02*
X0275581Y0120819D01*
X0278033Y0120819D01*
X0278033Y0117550D01*
X0279920Y0117550D02*
X0282372Y0117550D01*
X0283190Y0118367D01*
X0283190Y0120002D01*
X0282372Y0120819D01*
X0279920Y0120819D01*
X0279920Y0116733D01*
X0280738Y0115915D01*
X0281555Y0115915D01*
X0284993Y0117550D02*
X0286627Y0117550D01*
X0285810Y0117550D02*
X0285810Y0120819D01*
X0286627Y0120819D01*
X0285810Y0122454D02*
X0285810Y0123272D01*
X0288514Y0120819D02*
X0290966Y0120819D01*
X0291784Y0120002D01*
X0290966Y0119185D01*
X0289332Y0119185D01*
X0288514Y0118367D01*
X0289332Y0117550D01*
X0291784Y0117550D01*
X0293671Y0119185D02*
X0296940Y0119185D01*
X0296940Y0120002D02*
X0296123Y0120819D01*
X0294488Y0120819D01*
X0293671Y0120002D01*
X0293671Y0119185D01*
X0294488Y0117550D02*
X0296123Y0117550D01*
X0296940Y0118367D01*
X0296940Y0120002D01*
X0298827Y0118367D02*
X0298827Y0121637D01*
X0299644Y0122454D01*
X0302096Y0122454D01*
X0302096Y0117550D01*
X0299644Y0117550D01*
X0298827Y0118367D01*
M02*
