G75*
%MOIN*%
%OFA0B0*%
%FSLAX25Y25*%
%IPPOS*%
%LPD*%
%AMOC8*
5,1,8,0,0,1.08239X$1,22.5*
%
%ADD10C,0.11600*%
%ADD11OC8,0.06502*%
%ADD12C,0.06000*%
%ADD13OC8,0.19400*%
%ADD14C,0.08668*%
%ADD15C,0.07800*%
%ADD16C,0.06699*%
%ADD17C,0.03746*%
%ADD18C,0.07800*%
%ADD19C,0.07400*%
%ADD20C,0.05600*%
%ADD21OC8,0.06400*%
D10*
X0021346Y0015800D03*
X0021346Y0303800D03*
X0395046Y0303800D03*
X0395046Y0015800D03*
D11*
X0239783Y0085304D03*
X0229783Y0085304D03*
X0229783Y0095304D03*
X0229783Y0105304D03*
X0239783Y0105304D03*
X0239783Y0095304D03*
D12*
X0236220Y0044645D02*
X0236220Y0041285D01*
X0226220Y0041285D02*
X0226220Y0044645D01*
X0216220Y0044645D02*
X0216220Y0041285D01*
X0206220Y0041285D02*
X0206220Y0044645D01*
X0196220Y0044645D02*
X0196220Y0041285D01*
X0186220Y0041285D02*
X0186220Y0044645D01*
X0176220Y0044645D02*
X0176220Y0041285D01*
X0166220Y0041285D02*
X0166220Y0044645D01*
X0109504Y0024795D02*
X0109504Y0021435D01*
X0099504Y0021435D02*
X0099504Y0024795D01*
X0089504Y0024795D02*
X0089504Y0021435D01*
X0079504Y0021435D02*
X0079504Y0024795D01*
X0069504Y0024795D02*
X0069504Y0021435D01*
X0059504Y0021435D02*
X0059504Y0024795D01*
X0049504Y0024795D02*
X0049504Y0021435D01*
X0039504Y0021435D02*
X0039504Y0024795D01*
X0269882Y0025285D02*
X0269882Y0028645D01*
X0279882Y0028645D02*
X0279882Y0025285D01*
X0289882Y0025285D02*
X0289882Y0028645D01*
X0299882Y0028645D02*
X0299882Y0025285D01*
X0309882Y0025285D02*
X0309882Y0028645D01*
X0319882Y0028645D02*
X0319882Y0025285D01*
X0329882Y0025285D02*
X0329882Y0028645D01*
X0339882Y0028645D02*
X0339882Y0025285D01*
X0349882Y0025285D02*
X0349882Y0028645D01*
X0359882Y0028645D02*
X0359882Y0025285D01*
X0376666Y0142800D02*
X0380026Y0142800D01*
X0380026Y0152800D02*
X0376666Y0152800D01*
X0376666Y0162800D02*
X0380026Y0162800D01*
X0390666Y0162800D02*
X0394026Y0162800D01*
X0394026Y0152800D02*
X0390666Y0152800D01*
X0390666Y0142800D02*
X0394026Y0142800D01*
X0394026Y0172800D02*
X0390666Y0172800D01*
X0390666Y0182800D02*
X0394026Y0182800D01*
X0394026Y0192800D02*
X0390666Y0192800D01*
X0390666Y0202800D02*
X0394026Y0202800D01*
X0394026Y0212800D02*
X0390666Y0212800D01*
X0380026Y0212800D02*
X0376666Y0212800D01*
X0376666Y0202800D02*
X0380026Y0202800D01*
X0380026Y0192800D02*
X0376666Y0192800D01*
X0376666Y0182800D02*
X0380026Y0182800D01*
X0380026Y0172800D02*
X0376666Y0172800D01*
D13*
X0061283Y0114066D03*
X0037683Y0114066D03*
X0049483Y0094366D03*
D14*
X0046483Y0094366D03*
X0052483Y0094366D03*
X0061283Y0111066D03*
X0061283Y0117066D03*
X0037683Y0117066D03*
X0037683Y0111066D03*
D15*
X0024433Y0223430D02*
X0019993Y0223430D01*
X0019993Y0233430D02*
X0024433Y0233430D01*
X0024433Y0243430D02*
X0019993Y0243430D01*
X0019993Y0253430D02*
X0024433Y0253430D01*
X0024433Y0263430D02*
X0019993Y0263430D01*
X0019993Y0273430D02*
X0024433Y0273430D01*
X0089993Y0263430D02*
X0094433Y0263430D01*
X0094433Y0253430D02*
X0089993Y0253430D01*
X0089993Y0243430D02*
X0094433Y0243430D01*
X0094433Y0233430D02*
X0089993Y0233430D01*
X0233126Y0252800D02*
X0237566Y0252800D01*
X0237566Y0262800D02*
X0233126Y0262800D01*
X0233126Y0272800D02*
X0237566Y0272800D01*
X0237566Y0282800D02*
X0233126Y0282800D01*
X0233126Y0292800D02*
X0237566Y0292800D01*
X0237566Y0302800D02*
X0233126Y0302800D01*
X0349346Y0098020D02*
X0349346Y0093580D01*
X0359346Y0093580D02*
X0359346Y0098020D01*
X0369346Y0098020D02*
X0369346Y0093580D01*
X0379346Y0093580D02*
X0379346Y0098020D01*
X0236346Y0029020D02*
X0236346Y0024580D01*
X0226346Y0024580D02*
X0226346Y0029020D01*
X0216346Y0029020D02*
X0216346Y0024580D01*
X0206346Y0024580D02*
X0206346Y0029020D01*
X0196346Y0029020D02*
X0196346Y0024580D01*
X0186346Y0024580D02*
X0186346Y0029020D01*
D16*
X0187598Y0297509D03*
X0195472Y0297509D03*
X0203346Y0297509D03*
X0211220Y0297509D03*
X0219094Y0297509D03*
X0171094Y0297509D03*
X0163220Y0297509D03*
X0155346Y0297509D03*
X0147472Y0297509D03*
X0139598Y0297509D03*
D17*
X0030008Y0185280D03*
X0030008Y0170320D03*
D18*
X0051346Y0163800D03*
X0051346Y0153800D03*
X0111346Y0189800D03*
X0121346Y0189800D03*
X0121346Y0199800D03*
X0111346Y0199800D03*
X0033346Y0207800D03*
X0023346Y0207800D03*
X0034246Y0285700D03*
X0044246Y0285700D03*
X0327346Y0095800D03*
X0337346Y0095800D03*
X0336346Y0067800D03*
X0336346Y0057800D03*
X0392346Y0056800D03*
X0392346Y0066800D03*
D19*
X0362346Y0158800D03*
X0342346Y0178800D03*
X0322346Y0158800D03*
X0322346Y0198800D03*
X0362346Y0198800D03*
X0368346Y0260800D03*
X0348346Y0280800D03*
X0328346Y0260800D03*
X0328346Y0300800D03*
X0368346Y0300800D03*
D20*
X0368346Y0079360D02*
X0368346Y0076240D01*
X0358346Y0076240D02*
X0358346Y0079360D01*
X0348346Y0079360D02*
X0348346Y0076240D01*
X0348346Y0049360D02*
X0348346Y0046240D01*
X0358346Y0046240D02*
X0358346Y0049360D01*
X0368346Y0049360D02*
X0368346Y0046240D01*
X0378346Y0046240D02*
X0378346Y0049360D01*
X0378346Y0076240D02*
X0378346Y0079360D01*
D21*
X0305346Y0158800D03*
X0295346Y0158800D03*
X0295346Y0168800D03*
X0295346Y0178800D03*
X0305346Y0178800D03*
X0305346Y0168800D03*
X0305346Y0188800D03*
X0295346Y0188800D03*
X0295346Y0198800D03*
X0295346Y0208800D03*
X0295346Y0218800D03*
X0305346Y0218800D03*
X0305346Y0208800D03*
X0305346Y0198800D03*
X0305346Y0247800D03*
X0295346Y0247800D03*
X0295346Y0257800D03*
X0295346Y0267800D03*
X0295346Y0277800D03*
X0305346Y0277800D03*
X0305346Y0267800D03*
X0305346Y0257800D03*
X0305346Y0287800D03*
X0295346Y0287800D03*
X0218596Y0105050D03*
M02*
