%
M48
M72
T01C0.02362
T02C0.02756
T03C0.03200
T04C0.03346
T05C0.03740
T06C0.04000
T07C0.04400
T08C0.05512
T09C0.11200
%
T01
X100814Y65861
X118464Y79011
X130814Y79861
X137814Y80861
X162814Y60861
X189814Y61861
X205814Y56861
X217814Y61861
X256814Y82861
X261814Y90361
X290814Y98861
X293814Y93861
X300814Y98861
X305814Y93861
X317814Y100861
X322814Y96861
X327564Y109861
X322814Y112861
X334814Y116861
X342814Y116861
X351814Y116861
X361814Y118861
X361814Y99861
X367814Y88861
X374814Y89861
X373814Y77861
X365814Y78861
X377814Y43861
X386814Y44861
X399814Y42861
X421814Y46861
X415814Y95861
X398814Y158861
X387814Y157861
X415814Y176861
X421814Y174861
X439814Y194861
X452814Y204861
X419814Y216861
X401064Y221611
X399814Y232861
X419814Y232861
X413814Y253861
X404814Y256861
X393814Y275861
X367814Y261861
X358064Y255361
X348814Y252861
X341814Y250861
X342314Y259111
X324564Y251611
X333314Y242111
X337814Y237861
X337814Y231861
X332814Y227861
X317814Y232861
X310564Y231361
X305314Y223861
X300314Y217861
X311814Y219861
X316814Y206861
X305814Y206861
X300814Y201861
X282814Y191861
X276814Y183861
X281814Y176861
X299814Y166861
X308814Y174861
X314814Y177861
X323814Y157861
X329814Y158861
X338814Y157861
X344814Y159861
X311814Y134861
X323814Y129861
X329814Y125861
X312814Y126861
X290814Y139861
X303814Y151861
X260814Y174861
X251814Y176861
X248814Y165861
X255814Y162861
X241814Y165861
X233814Y167861
X233814Y181861
X235814Y192861
X239814Y198861
X245814Y197861
X233314Y206361
X239064Y213111
X243314Y209611
X248314Y207111
X261814Y211361
X267814Y212861
X276814Y209861
X269814Y197861
X266814Y187861
X222814Y150861
X221814Y138861
X221814Y132861
X225814Y113861
X242814Y113861
X187814Y132861
X187814Y138861
X171514Y132361
X169814Y138861
X166814Y155861
X159814Y155861
X143814Y160861
X129814Y150861
X136814Y137861
X150314Y117361
X165814Y116861
X201814Y155861
X188814Y171861
X195814Y176861
X194814Y182861
X190064Y195611
X187314Y210361
X214814Y213861
X240814Y225861
X250814Y227861
X259814Y231861
X205564Y238861
X200814Y238861
X189814Y241861
X184814Y246861
X174814Y241861
X156814Y226861
X157814Y220861
X141814Y223861
X134814Y228861
X113814Y218861
X107814Y223861
X109814Y233861
X100814Y234861
X104814Y242861
X98814Y257861
X104814Y264861
X127814Y256861
X85814Y224861
X91814Y214861
X99814Y206861
X119814Y200861
X139814Y188861
X137814Y183861
X149814Y188861
X168814Y167861
X117814Y174861
X82814Y161861
X201314Y275361
X207564Y275361
X213564Y275361
X224314Y275611
X238314Y275611
X250064Y275611
X261064Y275611
X273314Y275861
X277814Y280861
X252814Y285861
X208814Y285861
X301814Y295861
X310814Y294861
X311814Y272861
X365814Y241861
X368814Y234861
X366814Y219861
X394814Y190861
X388814Y183861
X296814Y105861
T02
X273562Y324570
X265688Y324570
X257814Y324570
X249940Y324570
X242066Y324570
X225562Y324570
X217688Y324570
X209814Y324570
X201940Y324570
X194066Y324570
T03
X402814Y104861
X412814Y104861
X422814Y104861
X432814Y104861
X432814Y74861
X422814Y74861
X412814Y74861
X402814Y74861
T04
X404350Y54026
X414350Y54026
X394350Y54026
X384350Y54026
X374350Y54026
X364350Y54026
X354350Y54026
X344350Y54026
X334350Y54026
X324350Y54026
X290688Y70026
X280688Y70026
X270688Y70026
X260688Y70026
X250688Y70026
X240688Y70026
X230688Y70026
X220688Y70026
X163972Y50176
X153972Y50176
X143972Y50176
X133972Y50176
X123972Y50176
X113972Y50176
X103972Y50176
X93972Y50176
X84476Y197381
X84476Y212341
X432814Y209861
X432814Y199861
X446814Y199861
X446814Y209861
X446814Y219861
X432814Y219861
X432814Y229861
X446814Y229861
X446814Y239861
X432814Y239861
X432814Y189861
X446814Y189861
X446814Y179861
X432814Y179861
X432814Y169861
X446814Y169861
T05
X294251Y132365
X284251Y132365
X284251Y122365
X294251Y122365
X294251Y112365
X284251Y112365
T06
X273064Y132111
X349814Y185861
X349814Y195861
X359814Y195861
X359814Y185861
X376814Y185861
X359814Y205861
X349814Y205861
X349814Y215861
X359814Y215861
X359814Y225861
X349814Y225861
X349814Y235861
X349814Y245861
X359814Y245861
X359814Y235861
X376814Y225861
X396814Y205861
X416814Y185861
X416814Y225861
X359814Y274861
X349814Y274861
X349814Y284861
X359814Y284861
X359814Y294861
X349814Y294861
X349814Y304861
X349814Y314861
X359814Y314861
X359814Y304861
X382814Y287861
X402814Y307861
X422814Y287861
X422814Y327861
X382814Y327861
X175814Y226861
X165814Y226861
X165814Y216861
X175814Y216861
X105814Y190861
X105814Y180861
X87814Y234861
X77814Y234861
X88714Y312761
X98714Y312761
X381814Y122861
X391814Y122861
X390814Y94861
X390814Y84861
X446814Y83861
X446814Y93861
T07
X433814Y122861
X423814Y122861
X413814Y122861
X403814Y122861
X290814Y53861
X280814Y53861
X270814Y53861
X260814Y53861
X250814Y53861
X240814Y53861
X76680Y250491
X76680Y260491
X76680Y270491
X76680Y280491
X76680Y290491
X76680Y300491
X146680Y290491
X146680Y280491
X146680Y270491
X146680Y260491
X289814Y279861
X289814Y289861
X289814Y299861
X289814Y309861
X289814Y319861
X289814Y329861
T08
X115751Y144127
X115751Y141127
X115751Y138127
X106951Y121427
X103951Y121427
X100951Y121427
X92151Y138127
X92151Y141127
X92151Y144127
T09
X75814Y42861
X449514Y42861
X449514Y330861
X75814Y330861
M30
