G75*
%MOIN*%
%OFA0B0*%
%FSLAX25Y25*%
%IPPOS*%
%LPD*%
%AMOC8*
5,1,8,0,0,1.08239X$1,22.5*
%
%ADD10C,0.11600*%
%ADD11OC8,0.06502*%
%ADD12C,0.06000*%
%ADD13OC8,0.19400*%
%ADD14C,0.08668*%
%ADD15C,0.07800*%
%ADD16C,0.06699*%
%ADD17C,0.03746*%
%ADD18C,0.07800*%
%ADD19C,0.07400*%
%ADD20C,0.05600*%
%ADD21OC8,0.06400*%
D10*
X0075814Y0042861D03*
X0449514Y0042861D03*
X0449514Y0330861D03*
X0075814Y0330861D03*
D11*
X0284251Y0132365D03*
X0294251Y0132365D03*
X0294251Y0122365D03*
X0284251Y0122365D03*
X0284251Y0112365D03*
X0294251Y0112365D03*
D12*
X0290688Y0071706D02*
X0290688Y0068346D01*
X0280688Y0068346D02*
X0280688Y0071706D01*
X0270688Y0071706D02*
X0270688Y0068346D01*
X0260688Y0068346D02*
X0260688Y0071706D01*
X0250688Y0071706D02*
X0250688Y0068346D01*
X0240688Y0068346D02*
X0240688Y0071706D01*
X0230688Y0071706D02*
X0230688Y0068346D01*
X0220688Y0068346D02*
X0220688Y0071706D01*
X0163972Y0051856D02*
X0163972Y0048496D01*
X0153972Y0048496D02*
X0153972Y0051856D01*
X0143972Y0051856D02*
X0143972Y0048496D01*
X0133972Y0048496D02*
X0133972Y0051856D01*
X0123972Y0051856D02*
X0123972Y0048496D01*
X0113972Y0048496D02*
X0113972Y0051856D01*
X0103972Y0051856D02*
X0103972Y0048496D01*
X0093972Y0048496D02*
X0093972Y0051856D01*
X0324350Y0052346D02*
X0324350Y0055706D01*
X0334350Y0055706D02*
X0334350Y0052346D01*
X0344350Y0052346D02*
X0344350Y0055706D01*
X0354350Y0055706D02*
X0354350Y0052346D01*
X0364350Y0052346D02*
X0364350Y0055706D01*
X0374350Y0055706D02*
X0374350Y0052346D01*
X0384350Y0052346D02*
X0384350Y0055706D01*
X0394350Y0055706D02*
X0394350Y0052346D01*
X0404350Y0052346D02*
X0404350Y0055706D01*
X0414350Y0055706D02*
X0414350Y0052346D01*
X0431134Y0169861D02*
X0434494Y0169861D01*
X0445134Y0169861D02*
X0448494Y0169861D01*
X0448494Y0179861D02*
X0445134Y0179861D01*
X0434494Y0179861D02*
X0431134Y0179861D01*
X0431134Y0189861D02*
X0434494Y0189861D01*
X0445134Y0189861D02*
X0448494Y0189861D01*
X0448494Y0199861D02*
X0445134Y0199861D01*
X0445134Y0209861D02*
X0448494Y0209861D01*
X0448494Y0219861D02*
X0445134Y0219861D01*
X0434494Y0219861D02*
X0431134Y0219861D01*
X0431134Y0229861D02*
X0434494Y0229861D01*
X0445134Y0229861D02*
X0448494Y0229861D01*
X0448494Y0239861D02*
X0445134Y0239861D01*
X0434494Y0239861D02*
X0431134Y0239861D01*
X0431134Y0209861D02*
X0434494Y0209861D01*
X0434494Y0199861D02*
X0431134Y0199861D01*
D13*
X0115751Y0141127D03*
X0103951Y0121427D03*
X0092151Y0141127D03*
D14*
X0092151Y0138127D03*
X0092151Y0144127D03*
X0115751Y0144127D03*
X0115751Y0138127D03*
X0106951Y0121427D03*
X0100951Y0121427D03*
D15*
X0240814Y0056081D02*
X0240814Y0051641D01*
X0250814Y0051641D02*
X0250814Y0056081D01*
X0260814Y0056081D02*
X0260814Y0051641D01*
X0270814Y0051641D02*
X0270814Y0056081D01*
X0280814Y0056081D02*
X0280814Y0051641D01*
X0290814Y0051641D02*
X0290814Y0056081D01*
X0403814Y0120641D02*
X0403814Y0125081D01*
X0413814Y0125081D02*
X0413814Y0120641D01*
X0423814Y0120641D02*
X0423814Y0125081D01*
X0433814Y0125081D02*
X0433814Y0120641D01*
X0292034Y0279861D02*
X0287594Y0279861D01*
X0287594Y0289861D02*
X0292034Y0289861D01*
X0292034Y0299861D02*
X0287594Y0299861D01*
X0287594Y0309861D02*
X0292034Y0309861D01*
X0292034Y0319861D02*
X0287594Y0319861D01*
X0287594Y0329861D02*
X0292034Y0329861D01*
X0148900Y0290491D02*
X0144460Y0290491D01*
X0144460Y0280491D02*
X0148900Y0280491D01*
X0148900Y0270491D02*
X0144460Y0270491D01*
X0144460Y0260491D02*
X0148900Y0260491D01*
X0078900Y0260491D02*
X0074460Y0260491D01*
X0074460Y0250491D02*
X0078900Y0250491D01*
X0078900Y0270491D02*
X0074460Y0270491D01*
X0074460Y0280491D02*
X0078900Y0280491D01*
X0078900Y0290491D02*
X0074460Y0290491D01*
X0074460Y0300491D02*
X0078900Y0300491D01*
D16*
X0194066Y0324570D03*
X0201940Y0324570D03*
X0209814Y0324570D03*
X0217688Y0324570D03*
X0225562Y0324570D03*
X0242066Y0324570D03*
X0249940Y0324570D03*
X0257814Y0324570D03*
X0265688Y0324570D03*
X0273562Y0324570D03*
D17*
X0084476Y0212341D03*
X0084476Y0197381D03*
D18*
X0105814Y0190861D03*
X0105814Y0180861D03*
X0165814Y0216861D03*
X0175814Y0216861D03*
X0175814Y0226861D03*
X0165814Y0226861D03*
X0087814Y0234861D03*
X0077814Y0234861D03*
X0088714Y0312761D03*
X0098714Y0312761D03*
X0381814Y0122861D03*
X0391814Y0122861D03*
X0390814Y0094861D03*
X0390814Y0084861D03*
X0446814Y0083861D03*
X0446814Y0093861D03*
D19*
X0416814Y0185861D03*
X0396814Y0205861D03*
X0376814Y0185861D03*
X0376814Y0225861D03*
X0416814Y0225861D03*
X0422814Y0287861D03*
X0402814Y0307861D03*
X0382814Y0287861D03*
X0382814Y0327861D03*
X0422814Y0327861D03*
D20*
X0422814Y0106421D02*
X0422814Y0103301D01*
X0432814Y0103301D02*
X0432814Y0106421D01*
X0412814Y0106421D02*
X0412814Y0103301D01*
X0402814Y0103301D02*
X0402814Y0106421D01*
X0402814Y0076421D02*
X0402814Y0073301D01*
X0412814Y0073301D02*
X0412814Y0076421D01*
X0422814Y0076421D02*
X0422814Y0073301D01*
X0432814Y0073301D02*
X0432814Y0076421D01*
D21*
X0359814Y0185861D03*
X0349814Y0185861D03*
X0349814Y0195861D03*
X0359814Y0195861D03*
X0359814Y0205861D03*
X0349814Y0205861D03*
X0349814Y0215861D03*
X0359814Y0215861D03*
X0359814Y0225861D03*
X0349814Y0225861D03*
X0349814Y0235861D03*
X0349814Y0245861D03*
X0359814Y0245861D03*
X0359814Y0235861D03*
X0359814Y0274861D03*
X0349814Y0274861D03*
X0349814Y0284861D03*
X0359814Y0284861D03*
X0359814Y0294861D03*
X0349814Y0294861D03*
X0349814Y0304861D03*
X0349814Y0314861D03*
X0359814Y0314861D03*
X0359814Y0304861D03*
X0273064Y0132111D03*
M02*
