G75*
%MOIN*%
%OFA0B0*%
%FSLAX25Y25*%
%IPPOS*%
%LPD*%
%AMOC8*
5,1,8,0,0,1.08239X$1,22.5*
%
%ADD10C,0.00700*%
D10*
X0247975Y0155711D02*
X0247975Y0160615D01*
X0251245Y0160615D02*
X0247975Y0155711D01*
X0251245Y0155711D02*
X0251245Y0160615D01*
X0253047Y0160615D02*
X0254682Y0160615D01*
X0253865Y0160615D02*
X0253865Y0155711D01*
X0254682Y0155711D02*
X0253047Y0155711D01*
X0253288Y0153115D02*
X0253288Y0152298D01*
X0254923Y0150663D01*
X0254923Y0148211D01*
X0254923Y0150663D02*
X0256557Y0152298D01*
X0256557Y0153115D01*
X0261714Y0153115D02*
X0261714Y0148211D01*
X0258444Y0148211D01*
X0263601Y0148211D02*
X0263601Y0151480D01*
X0265235Y0153115D01*
X0266870Y0151480D01*
X0266870Y0148211D01*
X0266870Y0150663D02*
X0263601Y0150663D01*
X0264995Y0155711D02*
X0261726Y0155711D01*
X0263360Y0158163D02*
X0264995Y0158163D01*
X0264995Y0160615D02*
X0261726Y0160615D01*
X0264995Y0160615D02*
X0264995Y0155711D01*
X0266882Y0156528D02*
X0266882Y0159798D01*
X0267699Y0160615D01*
X0270151Y0160615D01*
X0270151Y0155711D01*
X0267699Y0155711D01*
X0266882Y0156528D01*
X0268757Y0153115D02*
X0272027Y0153115D01*
X0270392Y0153115D02*
X0270392Y0148211D01*
X0273829Y0148211D02*
X0275464Y0148211D01*
X0274647Y0148211D02*
X0274647Y0153115D01*
X0275464Y0153115D02*
X0273829Y0153115D01*
X0275308Y0155711D02*
X0275308Y0158980D01*
X0273673Y0160615D01*
X0272038Y0158980D01*
X0272038Y0155711D01*
X0272038Y0158163D02*
X0275308Y0158163D01*
X0277195Y0160615D02*
X0277195Y0155711D01*
X0280464Y0155711D02*
X0280464Y0160615D01*
X0278829Y0158980D01*
X0277195Y0160615D01*
M02*
